G04 #@! TF.GenerationSoftware,KiCad,Pcbnew,5.1.4+dfsg1-1*
G04 #@! TF.CreationDate,2020-03-29T20:15:13+02:00*
G04 #@! TF.ProjectId,TPSE Glass,54505345-2047-46c6-9173-732e6b696361,rev?*
G04 #@! TF.SameCoordinates,Original*
G04 #@! TF.FileFunction,Copper,L1,Top*
G04 #@! TF.FilePolarity,Positive*
%FSLAX46Y46*%
G04 Gerber Fmt 4.6, Leading zero omitted, Abs format (unit mm)*
G04 Created by KiCad (PCBNEW 5.1.4+dfsg1-1) date 2020-03-29 20:15:13*
%MOMM*%
%LPD*%
G04 APERTURE LIST*
%ADD10C,0.100000*%
%ADD11C,0.975000*%
%ADD12C,1.050000*%
%ADD13C,1.150000*%
%ADD14C,1.250000*%
%ADD15R,9.000000X9.000000*%
%ADD16R,3.000000X5.100000*%
%ADD17R,2.200000X0.600000*%
%ADD18R,1.380000X0.450000*%
%ADD19R,2.100000X1.475000*%
%ADD20R,1.900000X2.375000*%
%ADD21R,1.900000X1.175000*%
%ADD22R,1.500000X0.550000*%
%ADD23R,0.550000X1.500000*%
%ADD24R,0.900000X0.800000*%
%ADD25C,0.950000*%
%ADD26R,1.700000X1.700000*%
%ADD27O,1.700000X1.700000*%
%ADD28R,1.000000X0.700000*%
%ADD29C,0.600000*%
%ADD30C,0.500000*%
%ADD31C,0.400000*%
G04 APERTURE END LIST*
D10*
G36*
X45680142Y-26501174D02*
G01*
X45703803Y-26504684D01*
X45727007Y-26510496D01*
X45749529Y-26518554D01*
X45771153Y-26528782D01*
X45791670Y-26541079D01*
X45810883Y-26555329D01*
X45828607Y-26571393D01*
X45844671Y-26589117D01*
X45858921Y-26608330D01*
X45871218Y-26628847D01*
X45881446Y-26650471D01*
X45889504Y-26672993D01*
X45895316Y-26696197D01*
X45898826Y-26719858D01*
X45900000Y-26743750D01*
X45900000Y-27231250D01*
X45898826Y-27255142D01*
X45895316Y-27278803D01*
X45889504Y-27302007D01*
X45881446Y-27324529D01*
X45871218Y-27346153D01*
X45858921Y-27366670D01*
X45844671Y-27385883D01*
X45828607Y-27403607D01*
X45810883Y-27419671D01*
X45791670Y-27433921D01*
X45771153Y-27446218D01*
X45749529Y-27456446D01*
X45727007Y-27464504D01*
X45703803Y-27470316D01*
X45680142Y-27473826D01*
X45656250Y-27475000D01*
X44743750Y-27475000D01*
X44719858Y-27473826D01*
X44696197Y-27470316D01*
X44672993Y-27464504D01*
X44650471Y-27456446D01*
X44628847Y-27446218D01*
X44608330Y-27433921D01*
X44589117Y-27419671D01*
X44571393Y-27403607D01*
X44555329Y-27385883D01*
X44541079Y-27366670D01*
X44528782Y-27346153D01*
X44518554Y-27324529D01*
X44510496Y-27302007D01*
X44504684Y-27278803D01*
X44501174Y-27255142D01*
X44500000Y-27231250D01*
X44500000Y-26743750D01*
X44501174Y-26719858D01*
X44504684Y-26696197D01*
X44510496Y-26672993D01*
X44518554Y-26650471D01*
X44528782Y-26628847D01*
X44541079Y-26608330D01*
X44555329Y-26589117D01*
X44571393Y-26571393D01*
X44589117Y-26555329D01*
X44608330Y-26541079D01*
X44628847Y-26528782D01*
X44650471Y-26518554D01*
X44672993Y-26510496D01*
X44696197Y-26504684D01*
X44719858Y-26501174D01*
X44743750Y-26500000D01*
X45656250Y-26500000D01*
X45680142Y-26501174D01*
X45680142Y-26501174D01*
G37*
D11*
X45200000Y-26987500D03*
D10*
G36*
X45680142Y-24626174D02*
G01*
X45703803Y-24629684D01*
X45727007Y-24635496D01*
X45749529Y-24643554D01*
X45771153Y-24653782D01*
X45791670Y-24666079D01*
X45810883Y-24680329D01*
X45828607Y-24696393D01*
X45844671Y-24714117D01*
X45858921Y-24733330D01*
X45871218Y-24753847D01*
X45881446Y-24775471D01*
X45889504Y-24797993D01*
X45895316Y-24821197D01*
X45898826Y-24844858D01*
X45900000Y-24868750D01*
X45900000Y-25356250D01*
X45898826Y-25380142D01*
X45895316Y-25403803D01*
X45889504Y-25427007D01*
X45881446Y-25449529D01*
X45871218Y-25471153D01*
X45858921Y-25491670D01*
X45844671Y-25510883D01*
X45828607Y-25528607D01*
X45810883Y-25544671D01*
X45791670Y-25558921D01*
X45771153Y-25571218D01*
X45749529Y-25581446D01*
X45727007Y-25589504D01*
X45703803Y-25595316D01*
X45680142Y-25598826D01*
X45656250Y-25600000D01*
X44743750Y-25600000D01*
X44719858Y-25598826D01*
X44696197Y-25595316D01*
X44672993Y-25589504D01*
X44650471Y-25581446D01*
X44628847Y-25571218D01*
X44608330Y-25558921D01*
X44589117Y-25544671D01*
X44571393Y-25528607D01*
X44555329Y-25510883D01*
X44541079Y-25491670D01*
X44528782Y-25471153D01*
X44518554Y-25449529D01*
X44510496Y-25427007D01*
X44504684Y-25403803D01*
X44501174Y-25380142D01*
X44500000Y-25356250D01*
X44500000Y-24868750D01*
X44501174Y-24844858D01*
X44504684Y-24821197D01*
X44510496Y-24797993D01*
X44518554Y-24775471D01*
X44528782Y-24753847D01*
X44541079Y-24733330D01*
X44555329Y-24714117D01*
X44571393Y-24696393D01*
X44589117Y-24680329D01*
X44608330Y-24666079D01*
X44628847Y-24653782D01*
X44650471Y-24643554D01*
X44672993Y-24635496D01*
X44696197Y-24629684D01*
X44719858Y-24626174D01*
X44743750Y-24625000D01*
X45656250Y-24625000D01*
X45680142Y-24626174D01*
X45680142Y-24626174D01*
G37*
D11*
X45200000Y-25112500D03*
D10*
G36*
X45099505Y-32838704D02*
G01*
X45123773Y-32842304D01*
X45147572Y-32848265D01*
X45170671Y-32856530D01*
X45192850Y-32867020D01*
X45213893Y-32879632D01*
X45233599Y-32894247D01*
X45251777Y-32910723D01*
X45268253Y-32928901D01*
X45282868Y-32948607D01*
X45295480Y-32969650D01*
X45305970Y-32991829D01*
X45314235Y-33014928D01*
X45320196Y-33038727D01*
X45323796Y-33062995D01*
X45325000Y-33087499D01*
X45325000Y-33662501D01*
X45323796Y-33687005D01*
X45320196Y-33711273D01*
X45314235Y-33735072D01*
X45305970Y-33758171D01*
X45295480Y-33780350D01*
X45282868Y-33801393D01*
X45268253Y-33821099D01*
X45251777Y-33839277D01*
X45233599Y-33855753D01*
X45213893Y-33870368D01*
X45192850Y-33882980D01*
X45170671Y-33893470D01*
X45147572Y-33901735D01*
X45123773Y-33907696D01*
X45099505Y-33911296D01*
X45075001Y-33912500D01*
X44524999Y-33912500D01*
X44500495Y-33911296D01*
X44476227Y-33907696D01*
X44452428Y-33901735D01*
X44429329Y-33893470D01*
X44407150Y-33882980D01*
X44386107Y-33870368D01*
X44366401Y-33855753D01*
X44348223Y-33839277D01*
X44331747Y-33821099D01*
X44317132Y-33801393D01*
X44304520Y-33780350D01*
X44294030Y-33758171D01*
X44285765Y-33735072D01*
X44279804Y-33711273D01*
X44276204Y-33687005D01*
X44275000Y-33662501D01*
X44275000Y-33087499D01*
X44276204Y-33062995D01*
X44279804Y-33038727D01*
X44285765Y-33014928D01*
X44294030Y-32991829D01*
X44304520Y-32969650D01*
X44317132Y-32948607D01*
X44331747Y-32928901D01*
X44348223Y-32910723D01*
X44366401Y-32894247D01*
X44386107Y-32879632D01*
X44407150Y-32867020D01*
X44429329Y-32856530D01*
X44452428Y-32848265D01*
X44476227Y-32842304D01*
X44500495Y-32838704D01*
X44524999Y-32837500D01*
X45075001Y-32837500D01*
X45099505Y-32838704D01*
X45099505Y-32838704D01*
G37*
D12*
X44800000Y-33375000D03*
D10*
G36*
X45099505Y-34263704D02*
G01*
X45123773Y-34267304D01*
X45147572Y-34273265D01*
X45170671Y-34281530D01*
X45192850Y-34292020D01*
X45213893Y-34304632D01*
X45233599Y-34319247D01*
X45251777Y-34335723D01*
X45268253Y-34353901D01*
X45282868Y-34373607D01*
X45295480Y-34394650D01*
X45305970Y-34416829D01*
X45314235Y-34439928D01*
X45320196Y-34463727D01*
X45323796Y-34487995D01*
X45325000Y-34512499D01*
X45325000Y-35087501D01*
X45323796Y-35112005D01*
X45320196Y-35136273D01*
X45314235Y-35160072D01*
X45305970Y-35183171D01*
X45295480Y-35205350D01*
X45282868Y-35226393D01*
X45268253Y-35246099D01*
X45251777Y-35264277D01*
X45233599Y-35280753D01*
X45213893Y-35295368D01*
X45192850Y-35307980D01*
X45170671Y-35318470D01*
X45147572Y-35326735D01*
X45123773Y-35332696D01*
X45099505Y-35336296D01*
X45075001Y-35337500D01*
X44524999Y-35337500D01*
X44500495Y-35336296D01*
X44476227Y-35332696D01*
X44452428Y-35326735D01*
X44429329Y-35318470D01*
X44407150Y-35307980D01*
X44386107Y-35295368D01*
X44366401Y-35280753D01*
X44348223Y-35264277D01*
X44331747Y-35246099D01*
X44317132Y-35226393D01*
X44304520Y-35205350D01*
X44294030Y-35183171D01*
X44285765Y-35160072D01*
X44279804Y-35136273D01*
X44276204Y-35112005D01*
X44275000Y-35087501D01*
X44275000Y-34512499D01*
X44276204Y-34487995D01*
X44279804Y-34463727D01*
X44285765Y-34439928D01*
X44294030Y-34416829D01*
X44304520Y-34394650D01*
X44317132Y-34373607D01*
X44331747Y-34353901D01*
X44348223Y-34335723D01*
X44366401Y-34319247D01*
X44386107Y-34304632D01*
X44407150Y-34292020D01*
X44429329Y-34281530D01*
X44452428Y-34273265D01*
X44476227Y-34267304D01*
X44500495Y-34263704D01*
X44524999Y-34262500D01*
X45075001Y-34262500D01*
X45099505Y-34263704D01*
X45099505Y-34263704D01*
G37*
D12*
X44800000Y-34800000D03*
D10*
G36*
X21799505Y-44801204D02*
G01*
X21823773Y-44804804D01*
X21847572Y-44810765D01*
X21870671Y-44819030D01*
X21892850Y-44829520D01*
X21913893Y-44842132D01*
X21933599Y-44856747D01*
X21951777Y-44873223D01*
X21968253Y-44891401D01*
X21982868Y-44911107D01*
X21995480Y-44932150D01*
X22005970Y-44954329D01*
X22014235Y-44977428D01*
X22020196Y-45001227D01*
X22023796Y-45025495D01*
X22025000Y-45049999D01*
X22025000Y-45700001D01*
X22023796Y-45724505D01*
X22020196Y-45748773D01*
X22014235Y-45772572D01*
X22005970Y-45795671D01*
X21995480Y-45817850D01*
X21982868Y-45838893D01*
X21968253Y-45858599D01*
X21951777Y-45876777D01*
X21933599Y-45893253D01*
X21913893Y-45907868D01*
X21892850Y-45920480D01*
X21870671Y-45930970D01*
X21847572Y-45939235D01*
X21823773Y-45945196D01*
X21799505Y-45948796D01*
X21775001Y-45950000D01*
X20874999Y-45950000D01*
X20850495Y-45948796D01*
X20826227Y-45945196D01*
X20802428Y-45939235D01*
X20779329Y-45930970D01*
X20757150Y-45920480D01*
X20736107Y-45907868D01*
X20716401Y-45893253D01*
X20698223Y-45876777D01*
X20681747Y-45858599D01*
X20667132Y-45838893D01*
X20654520Y-45817850D01*
X20644030Y-45795671D01*
X20635765Y-45772572D01*
X20629804Y-45748773D01*
X20626204Y-45724505D01*
X20625000Y-45700001D01*
X20625000Y-45049999D01*
X20626204Y-45025495D01*
X20629804Y-45001227D01*
X20635765Y-44977428D01*
X20644030Y-44954329D01*
X20654520Y-44932150D01*
X20667132Y-44911107D01*
X20681747Y-44891401D01*
X20698223Y-44873223D01*
X20716401Y-44856747D01*
X20736107Y-44842132D01*
X20757150Y-44829520D01*
X20779329Y-44819030D01*
X20802428Y-44810765D01*
X20826227Y-44804804D01*
X20850495Y-44801204D01*
X20874999Y-44800000D01*
X21775001Y-44800000D01*
X21799505Y-44801204D01*
X21799505Y-44801204D01*
G37*
D13*
X21325000Y-45375000D03*
D10*
G36*
X21799505Y-42751204D02*
G01*
X21823773Y-42754804D01*
X21847572Y-42760765D01*
X21870671Y-42769030D01*
X21892850Y-42779520D01*
X21913893Y-42792132D01*
X21933599Y-42806747D01*
X21951777Y-42823223D01*
X21968253Y-42841401D01*
X21982868Y-42861107D01*
X21995480Y-42882150D01*
X22005970Y-42904329D01*
X22014235Y-42927428D01*
X22020196Y-42951227D01*
X22023796Y-42975495D01*
X22025000Y-42999999D01*
X22025000Y-43650001D01*
X22023796Y-43674505D01*
X22020196Y-43698773D01*
X22014235Y-43722572D01*
X22005970Y-43745671D01*
X21995480Y-43767850D01*
X21982868Y-43788893D01*
X21968253Y-43808599D01*
X21951777Y-43826777D01*
X21933599Y-43843253D01*
X21913893Y-43857868D01*
X21892850Y-43870480D01*
X21870671Y-43880970D01*
X21847572Y-43889235D01*
X21823773Y-43895196D01*
X21799505Y-43898796D01*
X21775001Y-43900000D01*
X20874999Y-43900000D01*
X20850495Y-43898796D01*
X20826227Y-43895196D01*
X20802428Y-43889235D01*
X20779329Y-43880970D01*
X20757150Y-43870480D01*
X20736107Y-43857868D01*
X20716401Y-43843253D01*
X20698223Y-43826777D01*
X20681747Y-43808599D01*
X20667132Y-43788893D01*
X20654520Y-43767850D01*
X20644030Y-43745671D01*
X20635765Y-43722572D01*
X20629804Y-43698773D01*
X20626204Y-43674505D01*
X20625000Y-43650001D01*
X20625000Y-42999999D01*
X20626204Y-42975495D01*
X20629804Y-42951227D01*
X20635765Y-42927428D01*
X20644030Y-42904329D01*
X20654520Y-42882150D01*
X20667132Y-42861107D01*
X20681747Y-42841401D01*
X20698223Y-42823223D01*
X20716401Y-42806747D01*
X20736107Y-42792132D01*
X20757150Y-42779520D01*
X20779329Y-42769030D01*
X20802428Y-42760765D01*
X20826227Y-42754804D01*
X20850495Y-42751204D01*
X20874999Y-42750000D01*
X21775001Y-42750000D01*
X21799505Y-42751204D01*
X21799505Y-42751204D01*
G37*
D13*
X21325000Y-43325000D03*
D10*
G36*
X45799504Y-30876204D02*
G01*
X45823773Y-30879804D01*
X45847571Y-30885765D01*
X45870671Y-30894030D01*
X45892849Y-30904520D01*
X45913893Y-30917133D01*
X45933598Y-30931747D01*
X45951777Y-30948223D01*
X45968253Y-30966402D01*
X45982867Y-30986107D01*
X45995480Y-31007151D01*
X46005970Y-31029329D01*
X46014235Y-31052429D01*
X46020196Y-31076227D01*
X46023796Y-31100496D01*
X46025000Y-31125000D01*
X46025000Y-31875000D01*
X46023796Y-31899504D01*
X46020196Y-31923773D01*
X46014235Y-31947571D01*
X46005970Y-31970671D01*
X45995480Y-31992849D01*
X45982867Y-32013893D01*
X45968253Y-32033598D01*
X45951777Y-32051777D01*
X45933598Y-32068253D01*
X45913893Y-32082867D01*
X45892849Y-32095480D01*
X45870671Y-32105970D01*
X45847571Y-32114235D01*
X45823773Y-32120196D01*
X45799504Y-32123796D01*
X45775000Y-32125000D01*
X44525000Y-32125000D01*
X44500496Y-32123796D01*
X44476227Y-32120196D01*
X44452429Y-32114235D01*
X44429329Y-32105970D01*
X44407151Y-32095480D01*
X44386107Y-32082867D01*
X44366402Y-32068253D01*
X44348223Y-32051777D01*
X44331747Y-32033598D01*
X44317133Y-32013893D01*
X44304520Y-31992849D01*
X44294030Y-31970671D01*
X44285765Y-31947571D01*
X44279804Y-31923773D01*
X44276204Y-31899504D01*
X44275000Y-31875000D01*
X44275000Y-31125000D01*
X44276204Y-31100496D01*
X44279804Y-31076227D01*
X44285765Y-31052429D01*
X44294030Y-31029329D01*
X44304520Y-31007151D01*
X44317133Y-30986107D01*
X44331747Y-30966402D01*
X44348223Y-30948223D01*
X44366402Y-30931747D01*
X44386107Y-30917133D01*
X44407151Y-30904520D01*
X44429329Y-30894030D01*
X44452429Y-30885765D01*
X44476227Y-30879804D01*
X44500496Y-30876204D01*
X44525000Y-30875000D01*
X45775000Y-30875000D01*
X45799504Y-30876204D01*
X45799504Y-30876204D01*
G37*
D14*
X45150000Y-31500000D03*
D10*
G36*
X45799504Y-28076204D02*
G01*
X45823773Y-28079804D01*
X45847571Y-28085765D01*
X45870671Y-28094030D01*
X45892849Y-28104520D01*
X45913893Y-28117133D01*
X45933598Y-28131747D01*
X45951777Y-28148223D01*
X45968253Y-28166402D01*
X45982867Y-28186107D01*
X45995480Y-28207151D01*
X46005970Y-28229329D01*
X46014235Y-28252429D01*
X46020196Y-28276227D01*
X46023796Y-28300496D01*
X46025000Y-28325000D01*
X46025000Y-29075000D01*
X46023796Y-29099504D01*
X46020196Y-29123773D01*
X46014235Y-29147571D01*
X46005970Y-29170671D01*
X45995480Y-29192849D01*
X45982867Y-29213893D01*
X45968253Y-29233598D01*
X45951777Y-29251777D01*
X45933598Y-29268253D01*
X45913893Y-29282867D01*
X45892849Y-29295480D01*
X45870671Y-29305970D01*
X45847571Y-29314235D01*
X45823773Y-29320196D01*
X45799504Y-29323796D01*
X45775000Y-29325000D01*
X44525000Y-29325000D01*
X44500496Y-29323796D01*
X44476227Y-29320196D01*
X44452429Y-29314235D01*
X44429329Y-29305970D01*
X44407151Y-29295480D01*
X44386107Y-29282867D01*
X44366402Y-29268253D01*
X44348223Y-29251777D01*
X44331747Y-29233598D01*
X44317133Y-29213893D01*
X44304520Y-29192849D01*
X44294030Y-29170671D01*
X44285765Y-29147571D01*
X44279804Y-29123773D01*
X44276204Y-29099504D01*
X44275000Y-29075000D01*
X44275000Y-28325000D01*
X44276204Y-28300496D01*
X44279804Y-28276227D01*
X44285765Y-28252429D01*
X44294030Y-28229329D01*
X44304520Y-28207151D01*
X44317133Y-28186107D01*
X44331747Y-28166402D01*
X44348223Y-28148223D01*
X44366402Y-28131747D01*
X44386107Y-28117133D01*
X44407151Y-28104520D01*
X44429329Y-28094030D01*
X44452429Y-28085765D01*
X44476227Y-28079804D01*
X44500496Y-28076204D01*
X44525000Y-28075000D01*
X45775000Y-28075000D01*
X45799504Y-28076204D01*
X45799504Y-28076204D01*
G37*
D14*
X45150000Y-28700000D03*
D10*
G36*
X12674504Y-41176204D02*
G01*
X12698773Y-41179804D01*
X12722571Y-41185765D01*
X12745671Y-41194030D01*
X12767849Y-41204520D01*
X12788893Y-41217133D01*
X12808598Y-41231747D01*
X12826777Y-41248223D01*
X12843253Y-41266402D01*
X12857867Y-41286107D01*
X12870480Y-41307151D01*
X12880970Y-41329329D01*
X12889235Y-41352429D01*
X12895196Y-41376227D01*
X12898796Y-41400496D01*
X12900000Y-41425000D01*
X12900000Y-42175000D01*
X12898796Y-42199504D01*
X12895196Y-42223773D01*
X12889235Y-42247571D01*
X12880970Y-42270671D01*
X12870480Y-42292849D01*
X12857867Y-42313893D01*
X12843253Y-42333598D01*
X12826777Y-42351777D01*
X12808598Y-42368253D01*
X12788893Y-42382867D01*
X12767849Y-42395480D01*
X12745671Y-42405970D01*
X12722571Y-42414235D01*
X12698773Y-42420196D01*
X12674504Y-42423796D01*
X12650000Y-42425000D01*
X11400000Y-42425000D01*
X11375496Y-42423796D01*
X11351227Y-42420196D01*
X11327429Y-42414235D01*
X11304329Y-42405970D01*
X11282151Y-42395480D01*
X11261107Y-42382867D01*
X11241402Y-42368253D01*
X11223223Y-42351777D01*
X11206747Y-42333598D01*
X11192133Y-42313893D01*
X11179520Y-42292849D01*
X11169030Y-42270671D01*
X11160765Y-42247571D01*
X11154804Y-42223773D01*
X11151204Y-42199504D01*
X11150000Y-42175000D01*
X11150000Y-41425000D01*
X11151204Y-41400496D01*
X11154804Y-41376227D01*
X11160765Y-41352429D01*
X11169030Y-41329329D01*
X11179520Y-41307151D01*
X11192133Y-41286107D01*
X11206747Y-41266402D01*
X11223223Y-41248223D01*
X11241402Y-41231747D01*
X11261107Y-41217133D01*
X11282151Y-41204520D01*
X11304329Y-41194030D01*
X11327429Y-41185765D01*
X11351227Y-41179804D01*
X11375496Y-41176204D01*
X11400000Y-41175000D01*
X12650000Y-41175000D01*
X12674504Y-41176204D01*
X12674504Y-41176204D01*
G37*
D14*
X12025000Y-41800000D03*
D10*
G36*
X12674504Y-38376204D02*
G01*
X12698773Y-38379804D01*
X12722571Y-38385765D01*
X12745671Y-38394030D01*
X12767849Y-38404520D01*
X12788893Y-38417133D01*
X12808598Y-38431747D01*
X12826777Y-38448223D01*
X12843253Y-38466402D01*
X12857867Y-38486107D01*
X12870480Y-38507151D01*
X12880970Y-38529329D01*
X12889235Y-38552429D01*
X12895196Y-38576227D01*
X12898796Y-38600496D01*
X12900000Y-38625000D01*
X12900000Y-39375000D01*
X12898796Y-39399504D01*
X12895196Y-39423773D01*
X12889235Y-39447571D01*
X12880970Y-39470671D01*
X12870480Y-39492849D01*
X12857867Y-39513893D01*
X12843253Y-39533598D01*
X12826777Y-39551777D01*
X12808598Y-39568253D01*
X12788893Y-39582867D01*
X12767849Y-39595480D01*
X12745671Y-39605970D01*
X12722571Y-39614235D01*
X12698773Y-39620196D01*
X12674504Y-39623796D01*
X12650000Y-39625000D01*
X11400000Y-39625000D01*
X11375496Y-39623796D01*
X11351227Y-39620196D01*
X11327429Y-39614235D01*
X11304329Y-39605970D01*
X11282151Y-39595480D01*
X11261107Y-39582867D01*
X11241402Y-39568253D01*
X11223223Y-39551777D01*
X11206747Y-39533598D01*
X11192133Y-39513893D01*
X11179520Y-39492849D01*
X11169030Y-39470671D01*
X11160765Y-39447571D01*
X11154804Y-39423773D01*
X11151204Y-39399504D01*
X11150000Y-39375000D01*
X11150000Y-38625000D01*
X11151204Y-38600496D01*
X11154804Y-38576227D01*
X11160765Y-38552429D01*
X11169030Y-38529329D01*
X11179520Y-38507151D01*
X11192133Y-38486107D01*
X11206747Y-38466402D01*
X11223223Y-38448223D01*
X11241402Y-38431747D01*
X11261107Y-38417133D01*
X11282151Y-38404520D01*
X11304329Y-38394030D01*
X11327429Y-38385765D01*
X11351227Y-38379804D01*
X11375496Y-38376204D01*
X11400000Y-38375000D01*
X12650000Y-38375000D01*
X12674504Y-38376204D01*
X12674504Y-38376204D01*
G37*
D14*
X12025000Y-39000000D03*
D10*
G36*
X19074505Y-42751204D02*
G01*
X19098773Y-42754804D01*
X19122572Y-42760765D01*
X19145671Y-42769030D01*
X19167850Y-42779520D01*
X19188893Y-42792132D01*
X19208599Y-42806747D01*
X19226777Y-42823223D01*
X19243253Y-42841401D01*
X19257868Y-42861107D01*
X19270480Y-42882150D01*
X19280970Y-42904329D01*
X19289235Y-42927428D01*
X19295196Y-42951227D01*
X19298796Y-42975495D01*
X19300000Y-42999999D01*
X19300000Y-43650001D01*
X19298796Y-43674505D01*
X19295196Y-43698773D01*
X19289235Y-43722572D01*
X19280970Y-43745671D01*
X19270480Y-43767850D01*
X19257868Y-43788893D01*
X19243253Y-43808599D01*
X19226777Y-43826777D01*
X19208599Y-43843253D01*
X19188893Y-43857868D01*
X19167850Y-43870480D01*
X19145671Y-43880970D01*
X19122572Y-43889235D01*
X19098773Y-43895196D01*
X19074505Y-43898796D01*
X19050001Y-43900000D01*
X18149999Y-43900000D01*
X18125495Y-43898796D01*
X18101227Y-43895196D01*
X18077428Y-43889235D01*
X18054329Y-43880970D01*
X18032150Y-43870480D01*
X18011107Y-43857868D01*
X17991401Y-43843253D01*
X17973223Y-43826777D01*
X17956747Y-43808599D01*
X17942132Y-43788893D01*
X17929520Y-43767850D01*
X17919030Y-43745671D01*
X17910765Y-43722572D01*
X17904804Y-43698773D01*
X17901204Y-43674505D01*
X17900000Y-43650001D01*
X17900000Y-42999999D01*
X17901204Y-42975495D01*
X17904804Y-42951227D01*
X17910765Y-42927428D01*
X17919030Y-42904329D01*
X17929520Y-42882150D01*
X17942132Y-42861107D01*
X17956747Y-42841401D01*
X17973223Y-42823223D01*
X17991401Y-42806747D01*
X18011107Y-42792132D01*
X18032150Y-42779520D01*
X18054329Y-42769030D01*
X18077428Y-42760765D01*
X18101227Y-42754804D01*
X18125495Y-42751204D01*
X18149999Y-42750000D01*
X19050001Y-42750000D01*
X19074505Y-42751204D01*
X19074505Y-42751204D01*
G37*
D13*
X18600000Y-43325000D03*
D10*
G36*
X19074505Y-44801204D02*
G01*
X19098773Y-44804804D01*
X19122572Y-44810765D01*
X19145671Y-44819030D01*
X19167850Y-44829520D01*
X19188893Y-44842132D01*
X19208599Y-44856747D01*
X19226777Y-44873223D01*
X19243253Y-44891401D01*
X19257868Y-44911107D01*
X19270480Y-44932150D01*
X19280970Y-44954329D01*
X19289235Y-44977428D01*
X19295196Y-45001227D01*
X19298796Y-45025495D01*
X19300000Y-45049999D01*
X19300000Y-45700001D01*
X19298796Y-45724505D01*
X19295196Y-45748773D01*
X19289235Y-45772572D01*
X19280970Y-45795671D01*
X19270480Y-45817850D01*
X19257868Y-45838893D01*
X19243253Y-45858599D01*
X19226777Y-45876777D01*
X19208599Y-45893253D01*
X19188893Y-45907868D01*
X19167850Y-45920480D01*
X19145671Y-45930970D01*
X19122572Y-45939235D01*
X19098773Y-45945196D01*
X19074505Y-45948796D01*
X19050001Y-45950000D01*
X18149999Y-45950000D01*
X18125495Y-45948796D01*
X18101227Y-45945196D01*
X18077428Y-45939235D01*
X18054329Y-45930970D01*
X18032150Y-45920480D01*
X18011107Y-45907868D01*
X17991401Y-45893253D01*
X17973223Y-45876777D01*
X17956747Y-45858599D01*
X17942132Y-45838893D01*
X17929520Y-45817850D01*
X17919030Y-45795671D01*
X17910765Y-45772572D01*
X17904804Y-45748773D01*
X17901204Y-45724505D01*
X17900000Y-45700001D01*
X17900000Y-45049999D01*
X17901204Y-45025495D01*
X17904804Y-45001227D01*
X17910765Y-44977428D01*
X17919030Y-44954329D01*
X17929520Y-44932150D01*
X17942132Y-44911107D01*
X17956747Y-44891401D01*
X17973223Y-44873223D01*
X17991401Y-44856747D01*
X18011107Y-44842132D01*
X18032150Y-44829520D01*
X18054329Y-44819030D01*
X18077428Y-44810765D01*
X18101227Y-44804804D01*
X18125495Y-44801204D01*
X18149999Y-44800000D01*
X19050001Y-44800000D01*
X19074505Y-44801204D01*
X19074505Y-44801204D01*
G37*
D13*
X18600000Y-45375000D03*
D15*
X36975000Y-44800000D03*
D16*
X25975000Y-44800000D03*
X47975000Y-44800000D03*
D17*
X41625000Y-33400000D03*
X32425000Y-30860000D03*
X41625000Y-34670000D03*
X41625000Y-32130000D03*
X41625000Y-30860000D03*
X32425000Y-32130000D03*
X32425000Y-29590000D03*
X32425000Y-28320000D03*
X41625000Y-28320000D03*
X32425000Y-25780000D03*
X41625000Y-29590000D03*
X41625000Y-27050000D03*
X32425000Y-27050000D03*
X41625000Y-25780000D03*
X32425000Y-33400000D03*
X32425000Y-34670000D03*
D10*
G36*
X27949504Y-31251204D02*
G01*
X27973773Y-31254804D01*
X27997571Y-31260765D01*
X28020671Y-31269030D01*
X28042849Y-31279520D01*
X28063893Y-31292133D01*
X28083598Y-31306747D01*
X28101777Y-31323223D01*
X28118253Y-31341402D01*
X28132867Y-31361107D01*
X28145480Y-31382151D01*
X28155970Y-31404329D01*
X28164235Y-31427429D01*
X28170196Y-31451227D01*
X28173796Y-31475496D01*
X28175000Y-31500000D01*
X28175000Y-32250000D01*
X28173796Y-32274504D01*
X28170196Y-32298773D01*
X28164235Y-32322571D01*
X28155970Y-32345671D01*
X28145480Y-32367849D01*
X28132867Y-32388893D01*
X28118253Y-32408598D01*
X28101777Y-32426777D01*
X28083598Y-32443253D01*
X28063893Y-32457867D01*
X28042849Y-32470480D01*
X28020671Y-32480970D01*
X27997571Y-32489235D01*
X27973773Y-32495196D01*
X27949504Y-32498796D01*
X27925000Y-32500000D01*
X26675000Y-32500000D01*
X26650496Y-32498796D01*
X26626227Y-32495196D01*
X26602429Y-32489235D01*
X26579329Y-32480970D01*
X26557151Y-32470480D01*
X26536107Y-32457867D01*
X26516402Y-32443253D01*
X26498223Y-32426777D01*
X26481747Y-32408598D01*
X26467133Y-32388893D01*
X26454520Y-32367849D01*
X26444030Y-32345671D01*
X26435765Y-32322571D01*
X26429804Y-32298773D01*
X26426204Y-32274504D01*
X26425000Y-32250000D01*
X26425000Y-31500000D01*
X26426204Y-31475496D01*
X26429804Y-31451227D01*
X26435765Y-31427429D01*
X26444030Y-31404329D01*
X26454520Y-31382151D01*
X26467133Y-31361107D01*
X26481747Y-31341402D01*
X26498223Y-31323223D01*
X26516402Y-31306747D01*
X26536107Y-31292133D01*
X26557151Y-31279520D01*
X26579329Y-31269030D01*
X26602429Y-31260765D01*
X26626227Y-31254804D01*
X26650496Y-31251204D01*
X26675000Y-31250000D01*
X27925000Y-31250000D01*
X27949504Y-31251204D01*
X27949504Y-31251204D01*
G37*
D14*
X27300000Y-31875000D03*
D10*
G36*
X27949504Y-34051204D02*
G01*
X27973773Y-34054804D01*
X27997571Y-34060765D01*
X28020671Y-34069030D01*
X28042849Y-34079520D01*
X28063893Y-34092133D01*
X28083598Y-34106747D01*
X28101777Y-34123223D01*
X28118253Y-34141402D01*
X28132867Y-34161107D01*
X28145480Y-34182151D01*
X28155970Y-34204329D01*
X28164235Y-34227429D01*
X28170196Y-34251227D01*
X28173796Y-34275496D01*
X28175000Y-34300000D01*
X28175000Y-35050000D01*
X28173796Y-35074504D01*
X28170196Y-35098773D01*
X28164235Y-35122571D01*
X28155970Y-35145671D01*
X28145480Y-35167849D01*
X28132867Y-35188893D01*
X28118253Y-35208598D01*
X28101777Y-35226777D01*
X28083598Y-35243253D01*
X28063893Y-35257867D01*
X28042849Y-35270480D01*
X28020671Y-35280970D01*
X27997571Y-35289235D01*
X27973773Y-35295196D01*
X27949504Y-35298796D01*
X27925000Y-35300000D01*
X26675000Y-35300000D01*
X26650496Y-35298796D01*
X26626227Y-35295196D01*
X26602429Y-35289235D01*
X26579329Y-35280970D01*
X26557151Y-35270480D01*
X26536107Y-35257867D01*
X26516402Y-35243253D01*
X26498223Y-35226777D01*
X26481747Y-35208598D01*
X26467133Y-35188893D01*
X26454520Y-35167849D01*
X26444030Y-35145671D01*
X26435765Y-35122571D01*
X26429804Y-35098773D01*
X26426204Y-35074504D01*
X26425000Y-35050000D01*
X26425000Y-34300000D01*
X26426204Y-34275496D01*
X26429804Y-34251227D01*
X26435765Y-34227429D01*
X26444030Y-34204329D01*
X26454520Y-34182151D01*
X26467133Y-34161107D01*
X26481747Y-34141402D01*
X26498223Y-34123223D01*
X26516402Y-34106747D01*
X26536107Y-34092133D01*
X26557151Y-34079520D01*
X26579329Y-34069030D01*
X26602429Y-34060765D01*
X26626227Y-34054804D01*
X26650496Y-34051204D01*
X26675000Y-34050000D01*
X27925000Y-34050000D01*
X27949504Y-34051204D01*
X27949504Y-34051204D01*
G37*
D14*
X27300000Y-34675000D03*
D10*
G36*
X30324504Y-32776204D02*
G01*
X30348773Y-32779804D01*
X30372571Y-32785765D01*
X30395671Y-32794030D01*
X30417849Y-32804520D01*
X30438893Y-32817133D01*
X30458598Y-32831747D01*
X30476777Y-32848223D01*
X30493253Y-32866402D01*
X30507867Y-32886107D01*
X30520480Y-32907151D01*
X30530970Y-32929329D01*
X30539235Y-32952429D01*
X30545196Y-32976227D01*
X30548796Y-33000496D01*
X30550000Y-33025000D01*
X30550000Y-33775000D01*
X30548796Y-33799504D01*
X30545196Y-33823773D01*
X30539235Y-33847571D01*
X30530970Y-33870671D01*
X30520480Y-33892849D01*
X30507867Y-33913893D01*
X30493253Y-33933598D01*
X30476777Y-33951777D01*
X30458598Y-33968253D01*
X30438893Y-33982867D01*
X30417849Y-33995480D01*
X30395671Y-34005970D01*
X30372571Y-34014235D01*
X30348773Y-34020196D01*
X30324504Y-34023796D01*
X30300000Y-34025000D01*
X29050000Y-34025000D01*
X29025496Y-34023796D01*
X29001227Y-34020196D01*
X28977429Y-34014235D01*
X28954329Y-34005970D01*
X28932151Y-33995480D01*
X28911107Y-33982867D01*
X28891402Y-33968253D01*
X28873223Y-33951777D01*
X28856747Y-33933598D01*
X28842133Y-33913893D01*
X28829520Y-33892849D01*
X28819030Y-33870671D01*
X28810765Y-33847571D01*
X28804804Y-33823773D01*
X28801204Y-33799504D01*
X28800000Y-33775000D01*
X28800000Y-33025000D01*
X28801204Y-33000496D01*
X28804804Y-32976227D01*
X28810765Y-32952429D01*
X28819030Y-32929329D01*
X28829520Y-32907151D01*
X28842133Y-32886107D01*
X28856747Y-32866402D01*
X28873223Y-32848223D01*
X28891402Y-32831747D01*
X28911107Y-32817133D01*
X28932151Y-32804520D01*
X28954329Y-32794030D01*
X28977429Y-32785765D01*
X29001227Y-32779804D01*
X29025496Y-32776204D01*
X29050000Y-32775000D01*
X30300000Y-32775000D01*
X30324504Y-32776204D01*
X30324504Y-32776204D01*
G37*
D14*
X29675000Y-33400000D03*
D10*
G36*
X30324504Y-29976204D02*
G01*
X30348773Y-29979804D01*
X30372571Y-29985765D01*
X30395671Y-29994030D01*
X30417849Y-30004520D01*
X30438893Y-30017133D01*
X30458598Y-30031747D01*
X30476777Y-30048223D01*
X30493253Y-30066402D01*
X30507867Y-30086107D01*
X30520480Y-30107151D01*
X30530970Y-30129329D01*
X30539235Y-30152429D01*
X30545196Y-30176227D01*
X30548796Y-30200496D01*
X30550000Y-30225000D01*
X30550000Y-30975000D01*
X30548796Y-30999504D01*
X30545196Y-31023773D01*
X30539235Y-31047571D01*
X30530970Y-31070671D01*
X30520480Y-31092849D01*
X30507867Y-31113893D01*
X30493253Y-31133598D01*
X30476777Y-31151777D01*
X30458598Y-31168253D01*
X30438893Y-31182867D01*
X30417849Y-31195480D01*
X30395671Y-31205970D01*
X30372571Y-31214235D01*
X30348773Y-31220196D01*
X30324504Y-31223796D01*
X30300000Y-31225000D01*
X29050000Y-31225000D01*
X29025496Y-31223796D01*
X29001227Y-31220196D01*
X28977429Y-31214235D01*
X28954329Y-31205970D01*
X28932151Y-31195480D01*
X28911107Y-31182867D01*
X28891402Y-31168253D01*
X28873223Y-31151777D01*
X28856747Y-31133598D01*
X28842133Y-31113893D01*
X28829520Y-31092849D01*
X28819030Y-31070671D01*
X28810765Y-31047571D01*
X28804804Y-31023773D01*
X28801204Y-30999504D01*
X28800000Y-30975000D01*
X28800000Y-30225000D01*
X28801204Y-30200496D01*
X28804804Y-30176227D01*
X28810765Y-30152429D01*
X28819030Y-30129329D01*
X28829520Y-30107151D01*
X28842133Y-30086107D01*
X28856747Y-30066402D01*
X28873223Y-30048223D01*
X28891402Y-30031747D01*
X28911107Y-30017133D01*
X28932151Y-30004520D01*
X28954329Y-29994030D01*
X28977429Y-29985765D01*
X29001227Y-29979804D01*
X29025496Y-29976204D01*
X29050000Y-29975000D01*
X30300000Y-29975000D01*
X30324504Y-29976204D01*
X30324504Y-29976204D01*
G37*
D14*
X29675000Y-30600000D03*
D10*
G36*
X3999504Y-9626204D02*
G01*
X4023773Y-9629804D01*
X4047571Y-9635765D01*
X4070671Y-9644030D01*
X4092849Y-9654520D01*
X4113893Y-9667133D01*
X4133598Y-9681747D01*
X4151777Y-9698223D01*
X4168253Y-9716402D01*
X4182867Y-9736107D01*
X4195480Y-9757151D01*
X4205970Y-9779329D01*
X4214235Y-9802429D01*
X4220196Y-9826227D01*
X4223796Y-9850496D01*
X4225000Y-9875000D01*
X4225000Y-11125000D01*
X4223796Y-11149504D01*
X4220196Y-11173773D01*
X4214235Y-11197571D01*
X4205970Y-11220671D01*
X4195480Y-11242849D01*
X4182867Y-11263893D01*
X4168253Y-11283598D01*
X4151777Y-11301777D01*
X4133598Y-11318253D01*
X4113893Y-11332867D01*
X4092849Y-11345480D01*
X4070671Y-11355970D01*
X4047571Y-11364235D01*
X4023773Y-11370196D01*
X3999504Y-11373796D01*
X3975000Y-11375000D01*
X3225000Y-11375000D01*
X3200496Y-11373796D01*
X3176227Y-11370196D01*
X3152429Y-11364235D01*
X3129329Y-11355970D01*
X3107151Y-11345480D01*
X3086107Y-11332867D01*
X3066402Y-11318253D01*
X3048223Y-11301777D01*
X3031747Y-11283598D01*
X3017133Y-11263893D01*
X3004520Y-11242849D01*
X2994030Y-11220671D01*
X2985765Y-11197571D01*
X2979804Y-11173773D01*
X2976204Y-11149504D01*
X2975000Y-11125000D01*
X2975000Y-9875000D01*
X2976204Y-9850496D01*
X2979804Y-9826227D01*
X2985765Y-9802429D01*
X2994030Y-9779329D01*
X3004520Y-9757151D01*
X3017133Y-9736107D01*
X3031747Y-9716402D01*
X3048223Y-9698223D01*
X3066402Y-9681747D01*
X3086107Y-9667133D01*
X3107151Y-9654520D01*
X3129329Y-9644030D01*
X3152429Y-9635765D01*
X3176227Y-9629804D01*
X3200496Y-9626204D01*
X3225000Y-9625000D01*
X3975000Y-9625000D01*
X3999504Y-9626204D01*
X3999504Y-9626204D01*
G37*
D14*
X3600000Y-10500000D03*
D10*
G36*
X6799504Y-9626204D02*
G01*
X6823773Y-9629804D01*
X6847571Y-9635765D01*
X6870671Y-9644030D01*
X6892849Y-9654520D01*
X6913893Y-9667133D01*
X6933598Y-9681747D01*
X6951777Y-9698223D01*
X6968253Y-9716402D01*
X6982867Y-9736107D01*
X6995480Y-9757151D01*
X7005970Y-9779329D01*
X7014235Y-9802429D01*
X7020196Y-9826227D01*
X7023796Y-9850496D01*
X7025000Y-9875000D01*
X7025000Y-11125000D01*
X7023796Y-11149504D01*
X7020196Y-11173773D01*
X7014235Y-11197571D01*
X7005970Y-11220671D01*
X6995480Y-11242849D01*
X6982867Y-11263893D01*
X6968253Y-11283598D01*
X6951777Y-11301777D01*
X6933598Y-11318253D01*
X6913893Y-11332867D01*
X6892849Y-11345480D01*
X6870671Y-11355970D01*
X6847571Y-11364235D01*
X6823773Y-11370196D01*
X6799504Y-11373796D01*
X6775000Y-11375000D01*
X6025000Y-11375000D01*
X6000496Y-11373796D01*
X5976227Y-11370196D01*
X5952429Y-11364235D01*
X5929329Y-11355970D01*
X5907151Y-11345480D01*
X5886107Y-11332867D01*
X5866402Y-11318253D01*
X5848223Y-11301777D01*
X5831747Y-11283598D01*
X5817133Y-11263893D01*
X5804520Y-11242849D01*
X5794030Y-11220671D01*
X5785765Y-11197571D01*
X5779804Y-11173773D01*
X5776204Y-11149504D01*
X5775000Y-11125000D01*
X5775000Y-9875000D01*
X5776204Y-9850496D01*
X5779804Y-9826227D01*
X5785765Y-9802429D01*
X5794030Y-9779329D01*
X5804520Y-9757151D01*
X5817133Y-9736107D01*
X5831747Y-9716402D01*
X5848223Y-9698223D01*
X5866402Y-9681747D01*
X5886107Y-9667133D01*
X5907151Y-9654520D01*
X5929329Y-9644030D01*
X5952429Y-9635765D01*
X5976227Y-9629804D01*
X6000496Y-9626204D01*
X6025000Y-9625000D01*
X6775000Y-9625000D01*
X6799504Y-9626204D01*
X6799504Y-9626204D01*
G37*
D14*
X6400000Y-10500000D03*
D10*
G36*
X10999504Y-13126204D02*
G01*
X11023773Y-13129804D01*
X11047571Y-13135765D01*
X11070671Y-13144030D01*
X11092849Y-13154520D01*
X11113893Y-13167133D01*
X11133598Y-13181747D01*
X11151777Y-13198223D01*
X11168253Y-13216402D01*
X11182867Y-13236107D01*
X11195480Y-13257151D01*
X11205970Y-13279329D01*
X11214235Y-13302429D01*
X11220196Y-13326227D01*
X11223796Y-13350496D01*
X11225000Y-13375000D01*
X11225000Y-14625000D01*
X11223796Y-14649504D01*
X11220196Y-14673773D01*
X11214235Y-14697571D01*
X11205970Y-14720671D01*
X11195480Y-14742849D01*
X11182867Y-14763893D01*
X11168253Y-14783598D01*
X11151777Y-14801777D01*
X11133598Y-14818253D01*
X11113893Y-14832867D01*
X11092849Y-14845480D01*
X11070671Y-14855970D01*
X11047571Y-14864235D01*
X11023773Y-14870196D01*
X10999504Y-14873796D01*
X10975000Y-14875000D01*
X10225000Y-14875000D01*
X10200496Y-14873796D01*
X10176227Y-14870196D01*
X10152429Y-14864235D01*
X10129329Y-14855970D01*
X10107151Y-14845480D01*
X10086107Y-14832867D01*
X10066402Y-14818253D01*
X10048223Y-14801777D01*
X10031747Y-14783598D01*
X10017133Y-14763893D01*
X10004520Y-14742849D01*
X9994030Y-14720671D01*
X9985765Y-14697571D01*
X9979804Y-14673773D01*
X9976204Y-14649504D01*
X9975000Y-14625000D01*
X9975000Y-13375000D01*
X9976204Y-13350496D01*
X9979804Y-13326227D01*
X9985765Y-13302429D01*
X9994030Y-13279329D01*
X10004520Y-13257151D01*
X10017133Y-13236107D01*
X10031747Y-13216402D01*
X10048223Y-13198223D01*
X10066402Y-13181747D01*
X10086107Y-13167133D01*
X10107151Y-13154520D01*
X10129329Y-13144030D01*
X10152429Y-13135765D01*
X10176227Y-13129804D01*
X10200496Y-13126204D01*
X10225000Y-13125000D01*
X10975000Y-13125000D01*
X10999504Y-13126204D01*
X10999504Y-13126204D01*
G37*
D14*
X10600000Y-14000000D03*
D10*
G36*
X13799504Y-13126204D02*
G01*
X13823773Y-13129804D01*
X13847571Y-13135765D01*
X13870671Y-13144030D01*
X13892849Y-13154520D01*
X13913893Y-13167133D01*
X13933598Y-13181747D01*
X13951777Y-13198223D01*
X13968253Y-13216402D01*
X13982867Y-13236107D01*
X13995480Y-13257151D01*
X14005970Y-13279329D01*
X14014235Y-13302429D01*
X14020196Y-13326227D01*
X14023796Y-13350496D01*
X14025000Y-13375000D01*
X14025000Y-14625000D01*
X14023796Y-14649504D01*
X14020196Y-14673773D01*
X14014235Y-14697571D01*
X14005970Y-14720671D01*
X13995480Y-14742849D01*
X13982867Y-14763893D01*
X13968253Y-14783598D01*
X13951777Y-14801777D01*
X13933598Y-14818253D01*
X13913893Y-14832867D01*
X13892849Y-14845480D01*
X13870671Y-14855970D01*
X13847571Y-14864235D01*
X13823773Y-14870196D01*
X13799504Y-14873796D01*
X13775000Y-14875000D01*
X13025000Y-14875000D01*
X13000496Y-14873796D01*
X12976227Y-14870196D01*
X12952429Y-14864235D01*
X12929329Y-14855970D01*
X12907151Y-14845480D01*
X12886107Y-14832867D01*
X12866402Y-14818253D01*
X12848223Y-14801777D01*
X12831747Y-14783598D01*
X12817133Y-14763893D01*
X12804520Y-14742849D01*
X12794030Y-14720671D01*
X12785765Y-14697571D01*
X12779804Y-14673773D01*
X12776204Y-14649504D01*
X12775000Y-14625000D01*
X12775000Y-13375000D01*
X12776204Y-13350496D01*
X12779804Y-13326227D01*
X12785765Y-13302429D01*
X12794030Y-13279329D01*
X12804520Y-13257151D01*
X12817133Y-13236107D01*
X12831747Y-13216402D01*
X12848223Y-13198223D01*
X12866402Y-13181747D01*
X12886107Y-13167133D01*
X12907151Y-13154520D01*
X12929329Y-13144030D01*
X12952429Y-13135765D01*
X12976227Y-13129804D01*
X13000496Y-13126204D01*
X13025000Y-13125000D01*
X13775000Y-13125000D01*
X13799504Y-13126204D01*
X13799504Y-13126204D01*
G37*
D14*
X13400000Y-14000000D03*
D10*
G36*
X36999504Y-13126204D02*
G01*
X37023773Y-13129804D01*
X37047571Y-13135765D01*
X37070671Y-13144030D01*
X37092849Y-13154520D01*
X37113893Y-13167133D01*
X37133598Y-13181747D01*
X37151777Y-13198223D01*
X37168253Y-13216402D01*
X37182867Y-13236107D01*
X37195480Y-13257151D01*
X37205970Y-13279329D01*
X37214235Y-13302429D01*
X37220196Y-13326227D01*
X37223796Y-13350496D01*
X37225000Y-13375000D01*
X37225000Y-14625000D01*
X37223796Y-14649504D01*
X37220196Y-14673773D01*
X37214235Y-14697571D01*
X37205970Y-14720671D01*
X37195480Y-14742849D01*
X37182867Y-14763893D01*
X37168253Y-14783598D01*
X37151777Y-14801777D01*
X37133598Y-14818253D01*
X37113893Y-14832867D01*
X37092849Y-14845480D01*
X37070671Y-14855970D01*
X37047571Y-14864235D01*
X37023773Y-14870196D01*
X36999504Y-14873796D01*
X36975000Y-14875000D01*
X36225000Y-14875000D01*
X36200496Y-14873796D01*
X36176227Y-14870196D01*
X36152429Y-14864235D01*
X36129329Y-14855970D01*
X36107151Y-14845480D01*
X36086107Y-14832867D01*
X36066402Y-14818253D01*
X36048223Y-14801777D01*
X36031747Y-14783598D01*
X36017133Y-14763893D01*
X36004520Y-14742849D01*
X35994030Y-14720671D01*
X35985765Y-14697571D01*
X35979804Y-14673773D01*
X35976204Y-14649504D01*
X35975000Y-14625000D01*
X35975000Y-13375000D01*
X35976204Y-13350496D01*
X35979804Y-13326227D01*
X35985765Y-13302429D01*
X35994030Y-13279329D01*
X36004520Y-13257151D01*
X36017133Y-13236107D01*
X36031747Y-13216402D01*
X36048223Y-13198223D01*
X36066402Y-13181747D01*
X36086107Y-13167133D01*
X36107151Y-13154520D01*
X36129329Y-13144030D01*
X36152429Y-13135765D01*
X36176227Y-13129804D01*
X36200496Y-13126204D01*
X36225000Y-13125000D01*
X36975000Y-13125000D01*
X36999504Y-13126204D01*
X36999504Y-13126204D01*
G37*
D14*
X36600000Y-14000000D03*
D10*
G36*
X39799504Y-13126204D02*
G01*
X39823773Y-13129804D01*
X39847571Y-13135765D01*
X39870671Y-13144030D01*
X39892849Y-13154520D01*
X39913893Y-13167133D01*
X39933598Y-13181747D01*
X39951777Y-13198223D01*
X39968253Y-13216402D01*
X39982867Y-13236107D01*
X39995480Y-13257151D01*
X40005970Y-13279329D01*
X40014235Y-13302429D01*
X40020196Y-13326227D01*
X40023796Y-13350496D01*
X40025000Y-13375000D01*
X40025000Y-14625000D01*
X40023796Y-14649504D01*
X40020196Y-14673773D01*
X40014235Y-14697571D01*
X40005970Y-14720671D01*
X39995480Y-14742849D01*
X39982867Y-14763893D01*
X39968253Y-14783598D01*
X39951777Y-14801777D01*
X39933598Y-14818253D01*
X39913893Y-14832867D01*
X39892849Y-14845480D01*
X39870671Y-14855970D01*
X39847571Y-14864235D01*
X39823773Y-14870196D01*
X39799504Y-14873796D01*
X39775000Y-14875000D01*
X39025000Y-14875000D01*
X39000496Y-14873796D01*
X38976227Y-14870196D01*
X38952429Y-14864235D01*
X38929329Y-14855970D01*
X38907151Y-14845480D01*
X38886107Y-14832867D01*
X38866402Y-14818253D01*
X38848223Y-14801777D01*
X38831747Y-14783598D01*
X38817133Y-14763893D01*
X38804520Y-14742849D01*
X38794030Y-14720671D01*
X38785765Y-14697571D01*
X38779804Y-14673773D01*
X38776204Y-14649504D01*
X38775000Y-14625000D01*
X38775000Y-13375000D01*
X38776204Y-13350496D01*
X38779804Y-13326227D01*
X38785765Y-13302429D01*
X38794030Y-13279329D01*
X38804520Y-13257151D01*
X38817133Y-13236107D01*
X38831747Y-13216402D01*
X38848223Y-13198223D01*
X38866402Y-13181747D01*
X38886107Y-13167133D01*
X38907151Y-13154520D01*
X38929329Y-13144030D01*
X38952429Y-13135765D01*
X38976227Y-13129804D01*
X39000496Y-13126204D01*
X39025000Y-13125000D01*
X39775000Y-13125000D01*
X39799504Y-13126204D01*
X39799504Y-13126204D01*
G37*
D14*
X39400000Y-14000000D03*
D10*
G36*
X46799504Y-13126204D02*
G01*
X46823773Y-13129804D01*
X46847571Y-13135765D01*
X46870671Y-13144030D01*
X46892849Y-13154520D01*
X46913893Y-13167133D01*
X46933598Y-13181747D01*
X46951777Y-13198223D01*
X46968253Y-13216402D01*
X46982867Y-13236107D01*
X46995480Y-13257151D01*
X47005970Y-13279329D01*
X47014235Y-13302429D01*
X47020196Y-13326227D01*
X47023796Y-13350496D01*
X47025000Y-13375000D01*
X47025000Y-14625000D01*
X47023796Y-14649504D01*
X47020196Y-14673773D01*
X47014235Y-14697571D01*
X47005970Y-14720671D01*
X46995480Y-14742849D01*
X46982867Y-14763893D01*
X46968253Y-14783598D01*
X46951777Y-14801777D01*
X46933598Y-14818253D01*
X46913893Y-14832867D01*
X46892849Y-14845480D01*
X46870671Y-14855970D01*
X46847571Y-14864235D01*
X46823773Y-14870196D01*
X46799504Y-14873796D01*
X46775000Y-14875000D01*
X46025000Y-14875000D01*
X46000496Y-14873796D01*
X45976227Y-14870196D01*
X45952429Y-14864235D01*
X45929329Y-14855970D01*
X45907151Y-14845480D01*
X45886107Y-14832867D01*
X45866402Y-14818253D01*
X45848223Y-14801777D01*
X45831747Y-14783598D01*
X45817133Y-14763893D01*
X45804520Y-14742849D01*
X45794030Y-14720671D01*
X45785765Y-14697571D01*
X45779804Y-14673773D01*
X45776204Y-14649504D01*
X45775000Y-14625000D01*
X45775000Y-13375000D01*
X45776204Y-13350496D01*
X45779804Y-13326227D01*
X45785765Y-13302429D01*
X45794030Y-13279329D01*
X45804520Y-13257151D01*
X45817133Y-13236107D01*
X45831747Y-13216402D01*
X45848223Y-13198223D01*
X45866402Y-13181747D01*
X45886107Y-13167133D01*
X45907151Y-13154520D01*
X45929329Y-13144030D01*
X45952429Y-13135765D01*
X45976227Y-13129804D01*
X46000496Y-13126204D01*
X46025000Y-13125000D01*
X46775000Y-13125000D01*
X46799504Y-13126204D01*
X46799504Y-13126204D01*
G37*
D14*
X46400000Y-14000000D03*
D10*
G36*
X43999504Y-13126204D02*
G01*
X44023773Y-13129804D01*
X44047571Y-13135765D01*
X44070671Y-13144030D01*
X44092849Y-13154520D01*
X44113893Y-13167133D01*
X44133598Y-13181747D01*
X44151777Y-13198223D01*
X44168253Y-13216402D01*
X44182867Y-13236107D01*
X44195480Y-13257151D01*
X44205970Y-13279329D01*
X44214235Y-13302429D01*
X44220196Y-13326227D01*
X44223796Y-13350496D01*
X44225000Y-13375000D01*
X44225000Y-14625000D01*
X44223796Y-14649504D01*
X44220196Y-14673773D01*
X44214235Y-14697571D01*
X44205970Y-14720671D01*
X44195480Y-14742849D01*
X44182867Y-14763893D01*
X44168253Y-14783598D01*
X44151777Y-14801777D01*
X44133598Y-14818253D01*
X44113893Y-14832867D01*
X44092849Y-14845480D01*
X44070671Y-14855970D01*
X44047571Y-14864235D01*
X44023773Y-14870196D01*
X43999504Y-14873796D01*
X43975000Y-14875000D01*
X43225000Y-14875000D01*
X43200496Y-14873796D01*
X43176227Y-14870196D01*
X43152429Y-14864235D01*
X43129329Y-14855970D01*
X43107151Y-14845480D01*
X43086107Y-14832867D01*
X43066402Y-14818253D01*
X43048223Y-14801777D01*
X43031747Y-14783598D01*
X43017133Y-14763893D01*
X43004520Y-14742849D01*
X42994030Y-14720671D01*
X42985765Y-14697571D01*
X42979804Y-14673773D01*
X42976204Y-14649504D01*
X42975000Y-14625000D01*
X42975000Y-13375000D01*
X42976204Y-13350496D01*
X42979804Y-13326227D01*
X42985765Y-13302429D01*
X42994030Y-13279329D01*
X43004520Y-13257151D01*
X43017133Y-13236107D01*
X43031747Y-13216402D01*
X43048223Y-13198223D01*
X43066402Y-13181747D01*
X43086107Y-13167133D01*
X43107151Y-13154520D01*
X43129329Y-13144030D01*
X43152429Y-13135765D01*
X43176227Y-13129804D01*
X43200496Y-13126204D01*
X43225000Y-13125000D01*
X43975000Y-13125000D01*
X43999504Y-13126204D01*
X43999504Y-13126204D01*
G37*
D14*
X43600000Y-14000000D03*
D10*
G36*
X3999504Y-13126204D02*
G01*
X4023773Y-13129804D01*
X4047571Y-13135765D01*
X4070671Y-13144030D01*
X4092849Y-13154520D01*
X4113893Y-13167133D01*
X4133598Y-13181747D01*
X4151777Y-13198223D01*
X4168253Y-13216402D01*
X4182867Y-13236107D01*
X4195480Y-13257151D01*
X4205970Y-13279329D01*
X4214235Y-13302429D01*
X4220196Y-13326227D01*
X4223796Y-13350496D01*
X4225000Y-13375000D01*
X4225000Y-14625000D01*
X4223796Y-14649504D01*
X4220196Y-14673773D01*
X4214235Y-14697571D01*
X4205970Y-14720671D01*
X4195480Y-14742849D01*
X4182867Y-14763893D01*
X4168253Y-14783598D01*
X4151777Y-14801777D01*
X4133598Y-14818253D01*
X4113893Y-14832867D01*
X4092849Y-14845480D01*
X4070671Y-14855970D01*
X4047571Y-14864235D01*
X4023773Y-14870196D01*
X3999504Y-14873796D01*
X3975000Y-14875000D01*
X3225000Y-14875000D01*
X3200496Y-14873796D01*
X3176227Y-14870196D01*
X3152429Y-14864235D01*
X3129329Y-14855970D01*
X3107151Y-14845480D01*
X3086107Y-14832867D01*
X3066402Y-14818253D01*
X3048223Y-14801777D01*
X3031747Y-14783598D01*
X3017133Y-14763893D01*
X3004520Y-14742849D01*
X2994030Y-14720671D01*
X2985765Y-14697571D01*
X2979804Y-14673773D01*
X2976204Y-14649504D01*
X2975000Y-14625000D01*
X2975000Y-13375000D01*
X2976204Y-13350496D01*
X2979804Y-13326227D01*
X2985765Y-13302429D01*
X2994030Y-13279329D01*
X3004520Y-13257151D01*
X3017133Y-13236107D01*
X3031747Y-13216402D01*
X3048223Y-13198223D01*
X3066402Y-13181747D01*
X3086107Y-13167133D01*
X3107151Y-13154520D01*
X3129329Y-13144030D01*
X3152429Y-13135765D01*
X3176227Y-13129804D01*
X3200496Y-13126204D01*
X3225000Y-13125000D01*
X3975000Y-13125000D01*
X3999504Y-13126204D01*
X3999504Y-13126204D01*
G37*
D14*
X3600000Y-14000000D03*
D10*
G36*
X6799504Y-13126204D02*
G01*
X6823773Y-13129804D01*
X6847571Y-13135765D01*
X6870671Y-13144030D01*
X6892849Y-13154520D01*
X6913893Y-13167133D01*
X6933598Y-13181747D01*
X6951777Y-13198223D01*
X6968253Y-13216402D01*
X6982867Y-13236107D01*
X6995480Y-13257151D01*
X7005970Y-13279329D01*
X7014235Y-13302429D01*
X7020196Y-13326227D01*
X7023796Y-13350496D01*
X7025000Y-13375000D01*
X7025000Y-14625000D01*
X7023796Y-14649504D01*
X7020196Y-14673773D01*
X7014235Y-14697571D01*
X7005970Y-14720671D01*
X6995480Y-14742849D01*
X6982867Y-14763893D01*
X6968253Y-14783598D01*
X6951777Y-14801777D01*
X6933598Y-14818253D01*
X6913893Y-14832867D01*
X6892849Y-14845480D01*
X6870671Y-14855970D01*
X6847571Y-14864235D01*
X6823773Y-14870196D01*
X6799504Y-14873796D01*
X6775000Y-14875000D01*
X6025000Y-14875000D01*
X6000496Y-14873796D01*
X5976227Y-14870196D01*
X5952429Y-14864235D01*
X5929329Y-14855970D01*
X5907151Y-14845480D01*
X5886107Y-14832867D01*
X5866402Y-14818253D01*
X5848223Y-14801777D01*
X5831747Y-14783598D01*
X5817133Y-14763893D01*
X5804520Y-14742849D01*
X5794030Y-14720671D01*
X5785765Y-14697571D01*
X5779804Y-14673773D01*
X5776204Y-14649504D01*
X5775000Y-14625000D01*
X5775000Y-13375000D01*
X5776204Y-13350496D01*
X5779804Y-13326227D01*
X5785765Y-13302429D01*
X5794030Y-13279329D01*
X5804520Y-13257151D01*
X5817133Y-13236107D01*
X5831747Y-13216402D01*
X5848223Y-13198223D01*
X5866402Y-13181747D01*
X5886107Y-13167133D01*
X5907151Y-13154520D01*
X5929329Y-13144030D01*
X5952429Y-13135765D01*
X5976227Y-13129804D01*
X6000496Y-13126204D01*
X6025000Y-13125000D01*
X6775000Y-13125000D01*
X6799504Y-13126204D01*
X6799504Y-13126204D01*
G37*
D14*
X6400000Y-14000000D03*
D10*
G36*
X13799504Y-9626204D02*
G01*
X13823773Y-9629804D01*
X13847571Y-9635765D01*
X13870671Y-9644030D01*
X13892849Y-9654520D01*
X13913893Y-9667133D01*
X13933598Y-9681747D01*
X13951777Y-9698223D01*
X13968253Y-9716402D01*
X13982867Y-9736107D01*
X13995480Y-9757151D01*
X14005970Y-9779329D01*
X14014235Y-9802429D01*
X14020196Y-9826227D01*
X14023796Y-9850496D01*
X14025000Y-9875000D01*
X14025000Y-11125000D01*
X14023796Y-11149504D01*
X14020196Y-11173773D01*
X14014235Y-11197571D01*
X14005970Y-11220671D01*
X13995480Y-11242849D01*
X13982867Y-11263893D01*
X13968253Y-11283598D01*
X13951777Y-11301777D01*
X13933598Y-11318253D01*
X13913893Y-11332867D01*
X13892849Y-11345480D01*
X13870671Y-11355970D01*
X13847571Y-11364235D01*
X13823773Y-11370196D01*
X13799504Y-11373796D01*
X13775000Y-11375000D01*
X13025000Y-11375000D01*
X13000496Y-11373796D01*
X12976227Y-11370196D01*
X12952429Y-11364235D01*
X12929329Y-11355970D01*
X12907151Y-11345480D01*
X12886107Y-11332867D01*
X12866402Y-11318253D01*
X12848223Y-11301777D01*
X12831747Y-11283598D01*
X12817133Y-11263893D01*
X12804520Y-11242849D01*
X12794030Y-11220671D01*
X12785765Y-11197571D01*
X12779804Y-11173773D01*
X12776204Y-11149504D01*
X12775000Y-11125000D01*
X12775000Y-9875000D01*
X12776204Y-9850496D01*
X12779804Y-9826227D01*
X12785765Y-9802429D01*
X12794030Y-9779329D01*
X12804520Y-9757151D01*
X12817133Y-9736107D01*
X12831747Y-9716402D01*
X12848223Y-9698223D01*
X12866402Y-9681747D01*
X12886107Y-9667133D01*
X12907151Y-9654520D01*
X12929329Y-9644030D01*
X12952429Y-9635765D01*
X12976227Y-9629804D01*
X13000496Y-9626204D01*
X13025000Y-9625000D01*
X13775000Y-9625000D01*
X13799504Y-9626204D01*
X13799504Y-9626204D01*
G37*
D14*
X13400000Y-10500000D03*
D10*
G36*
X10999504Y-9626204D02*
G01*
X11023773Y-9629804D01*
X11047571Y-9635765D01*
X11070671Y-9644030D01*
X11092849Y-9654520D01*
X11113893Y-9667133D01*
X11133598Y-9681747D01*
X11151777Y-9698223D01*
X11168253Y-9716402D01*
X11182867Y-9736107D01*
X11195480Y-9757151D01*
X11205970Y-9779329D01*
X11214235Y-9802429D01*
X11220196Y-9826227D01*
X11223796Y-9850496D01*
X11225000Y-9875000D01*
X11225000Y-11125000D01*
X11223796Y-11149504D01*
X11220196Y-11173773D01*
X11214235Y-11197571D01*
X11205970Y-11220671D01*
X11195480Y-11242849D01*
X11182867Y-11263893D01*
X11168253Y-11283598D01*
X11151777Y-11301777D01*
X11133598Y-11318253D01*
X11113893Y-11332867D01*
X11092849Y-11345480D01*
X11070671Y-11355970D01*
X11047571Y-11364235D01*
X11023773Y-11370196D01*
X10999504Y-11373796D01*
X10975000Y-11375000D01*
X10225000Y-11375000D01*
X10200496Y-11373796D01*
X10176227Y-11370196D01*
X10152429Y-11364235D01*
X10129329Y-11355970D01*
X10107151Y-11345480D01*
X10086107Y-11332867D01*
X10066402Y-11318253D01*
X10048223Y-11301777D01*
X10031747Y-11283598D01*
X10017133Y-11263893D01*
X10004520Y-11242849D01*
X9994030Y-11220671D01*
X9985765Y-11197571D01*
X9979804Y-11173773D01*
X9976204Y-11149504D01*
X9975000Y-11125000D01*
X9975000Y-9875000D01*
X9976204Y-9850496D01*
X9979804Y-9826227D01*
X9985765Y-9802429D01*
X9994030Y-9779329D01*
X10004520Y-9757151D01*
X10017133Y-9736107D01*
X10031747Y-9716402D01*
X10048223Y-9698223D01*
X10066402Y-9681747D01*
X10086107Y-9667133D01*
X10107151Y-9654520D01*
X10129329Y-9644030D01*
X10152429Y-9635765D01*
X10176227Y-9629804D01*
X10200496Y-9626204D01*
X10225000Y-9625000D01*
X10975000Y-9625000D01*
X10999504Y-9626204D01*
X10999504Y-9626204D01*
G37*
D14*
X10600000Y-10500000D03*
D10*
G36*
X39799504Y-9626204D02*
G01*
X39823773Y-9629804D01*
X39847571Y-9635765D01*
X39870671Y-9644030D01*
X39892849Y-9654520D01*
X39913893Y-9667133D01*
X39933598Y-9681747D01*
X39951777Y-9698223D01*
X39968253Y-9716402D01*
X39982867Y-9736107D01*
X39995480Y-9757151D01*
X40005970Y-9779329D01*
X40014235Y-9802429D01*
X40020196Y-9826227D01*
X40023796Y-9850496D01*
X40025000Y-9875000D01*
X40025000Y-11125000D01*
X40023796Y-11149504D01*
X40020196Y-11173773D01*
X40014235Y-11197571D01*
X40005970Y-11220671D01*
X39995480Y-11242849D01*
X39982867Y-11263893D01*
X39968253Y-11283598D01*
X39951777Y-11301777D01*
X39933598Y-11318253D01*
X39913893Y-11332867D01*
X39892849Y-11345480D01*
X39870671Y-11355970D01*
X39847571Y-11364235D01*
X39823773Y-11370196D01*
X39799504Y-11373796D01*
X39775000Y-11375000D01*
X39025000Y-11375000D01*
X39000496Y-11373796D01*
X38976227Y-11370196D01*
X38952429Y-11364235D01*
X38929329Y-11355970D01*
X38907151Y-11345480D01*
X38886107Y-11332867D01*
X38866402Y-11318253D01*
X38848223Y-11301777D01*
X38831747Y-11283598D01*
X38817133Y-11263893D01*
X38804520Y-11242849D01*
X38794030Y-11220671D01*
X38785765Y-11197571D01*
X38779804Y-11173773D01*
X38776204Y-11149504D01*
X38775000Y-11125000D01*
X38775000Y-9875000D01*
X38776204Y-9850496D01*
X38779804Y-9826227D01*
X38785765Y-9802429D01*
X38794030Y-9779329D01*
X38804520Y-9757151D01*
X38817133Y-9736107D01*
X38831747Y-9716402D01*
X38848223Y-9698223D01*
X38866402Y-9681747D01*
X38886107Y-9667133D01*
X38907151Y-9654520D01*
X38929329Y-9644030D01*
X38952429Y-9635765D01*
X38976227Y-9629804D01*
X39000496Y-9626204D01*
X39025000Y-9625000D01*
X39775000Y-9625000D01*
X39799504Y-9626204D01*
X39799504Y-9626204D01*
G37*
D14*
X39400000Y-10500000D03*
D10*
G36*
X36999504Y-9626204D02*
G01*
X37023773Y-9629804D01*
X37047571Y-9635765D01*
X37070671Y-9644030D01*
X37092849Y-9654520D01*
X37113893Y-9667133D01*
X37133598Y-9681747D01*
X37151777Y-9698223D01*
X37168253Y-9716402D01*
X37182867Y-9736107D01*
X37195480Y-9757151D01*
X37205970Y-9779329D01*
X37214235Y-9802429D01*
X37220196Y-9826227D01*
X37223796Y-9850496D01*
X37225000Y-9875000D01*
X37225000Y-11125000D01*
X37223796Y-11149504D01*
X37220196Y-11173773D01*
X37214235Y-11197571D01*
X37205970Y-11220671D01*
X37195480Y-11242849D01*
X37182867Y-11263893D01*
X37168253Y-11283598D01*
X37151777Y-11301777D01*
X37133598Y-11318253D01*
X37113893Y-11332867D01*
X37092849Y-11345480D01*
X37070671Y-11355970D01*
X37047571Y-11364235D01*
X37023773Y-11370196D01*
X36999504Y-11373796D01*
X36975000Y-11375000D01*
X36225000Y-11375000D01*
X36200496Y-11373796D01*
X36176227Y-11370196D01*
X36152429Y-11364235D01*
X36129329Y-11355970D01*
X36107151Y-11345480D01*
X36086107Y-11332867D01*
X36066402Y-11318253D01*
X36048223Y-11301777D01*
X36031747Y-11283598D01*
X36017133Y-11263893D01*
X36004520Y-11242849D01*
X35994030Y-11220671D01*
X35985765Y-11197571D01*
X35979804Y-11173773D01*
X35976204Y-11149504D01*
X35975000Y-11125000D01*
X35975000Y-9875000D01*
X35976204Y-9850496D01*
X35979804Y-9826227D01*
X35985765Y-9802429D01*
X35994030Y-9779329D01*
X36004520Y-9757151D01*
X36017133Y-9736107D01*
X36031747Y-9716402D01*
X36048223Y-9698223D01*
X36066402Y-9681747D01*
X36086107Y-9667133D01*
X36107151Y-9654520D01*
X36129329Y-9644030D01*
X36152429Y-9635765D01*
X36176227Y-9629804D01*
X36200496Y-9626204D01*
X36225000Y-9625000D01*
X36975000Y-9625000D01*
X36999504Y-9626204D01*
X36999504Y-9626204D01*
G37*
D14*
X36600000Y-10500000D03*
D10*
G36*
X46799504Y-9626204D02*
G01*
X46823773Y-9629804D01*
X46847571Y-9635765D01*
X46870671Y-9644030D01*
X46892849Y-9654520D01*
X46913893Y-9667133D01*
X46933598Y-9681747D01*
X46951777Y-9698223D01*
X46968253Y-9716402D01*
X46982867Y-9736107D01*
X46995480Y-9757151D01*
X47005970Y-9779329D01*
X47014235Y-9802429D01*
X47020196Y-9826227D01*
X47023796Y-9850496D01*
X47025000Y-9875000D01*
X47025000Y-11125000D01*
X47023796Y-11149504D01*
X47020196Y-11173773D01*
X47014235Y-11197571D01*
X47005970Y-11220671D01*
X46995480Y-11242849D01*
X46982867Y-11263893D01*
X46968253Y-11283598D01*
X46951777Y-11301777D01*
X46933598Y-11318253D01*
X46913893Y-11332867D01*
X46892849Y-11345480D01*
X46870671Y-11355970D01*
X46847571Y-11364235D01*
X46823773Y-11370196D01*
X46799504Y-11373796D01*
X46775000Y-11375000D01*
X46025000Y-11375000D01*
X46000496Y-11373796D01*
X45976227Y-11370196D01*
X45952429Y-11364235D01*
X45929329Y-11355970D01*
X45907151Y-11345480D01*
X45886107Y-11332867D01*
X45866402Y-11318253D01*
X45848223Y-11301777D01*
X45831747Y-11283598D01*
X45817133Y-11263893D01*
X45804520Y-11242849D01*
X45794030Y-11220671D01*
X45785765Y-11197571D01*
X45779804Y-11173773D01*
X45776204Y-11149504D01*
X45775000Y-11125000D01*
X45775000Y-9875000D01*
X45776204Y-9850496D01*
X45779804Y-9826227D01*
X45785765Y-9802429D01*
X45794030Y-9779329D01*
X45804520Y-9757151D01*
X45817133Y-9736107D01*
X45831747Y-9716402D01*
X45848223Y-9698223D01*
X45866402Y-9681747D01*
X45886107Y-9667133D01*
X45907151Y-9654520D01*
X45929329Y-9644030D01*
X45952429Y-9635765D01*
X45976227Y-9629804D01*
X46000496Y-9626204D01*
X46025000Y-9625000D01*
X46775000Y-9625000D01*
X46799504Y-9626204D01*
X46799504Y-9626204D01*
G37*
D14*
X46400000Y-10500000D03*
D10*
G36*
X43999504Y-9626204D02*
G01*
X44023773Y-9629804D01*
X44047571Y-9635765D01*
X44070671Y-9644030D01*
X44092849Y-9654520D01*
X44113893Y-9667133D01*
X44133598Y-9681747D01*
X44151777Y-9698223D01*
X44168253Y-9716402D01*
X44182867Y-9736107D01*
X44195480Y-9757151D01*
X44205970Y-9779329D01*
X44214235Y-9802429D01*
X44220196Y-9826227D01*
X44223796Y-9850496D01*
X44225000Y-9875000D01*
X44225000Y-11125000D01*
X44223796Y-11149504D01*
X44220196Y-11173773D01*
X44214235Y-11197571D01*
X44205970Y-11220671D01*
X44195480Y-11242849D01*
X44182867Y-11263893D01*
X44168253Y-11283598D01*
X44151777Y-11301777D01*
X44133598Y-11318253D01*
X44113893Y-11332867D01*
X44092849Y-11345480D01*
X44070671Y-11355970D01*
X44047571Y-11364235D01*
X44023773Y-11370196D01*
X43999504Y-11373796D01*
X43975000Y-11375000D01*
X43225000Y-11375000D01*
X43200496Y-11373796D01*
X43176227Y-11370196D01*
X43152429Y-11364235D01*
X43129329Y-11355970D01*
X43107151Y-11345480D01*
X43086107Y-11332867D01*
X43066402Y-11318253D01*
X43048223Y-11301777D01*
X43031747Y-11283598D01*
X43017133Y-11263893D01*
X43004520Y-11242849D01*
X42994030Y-11220671D01*
X42985765Y-11197571D01*
X42979804Y-11173773D01*
X42976204Y-11149504D01*
X42975000Y-11125000D01*
X42975000Y-9875000D01*
X42976204Y-9850496D01*
X42979804Y-9826227D01*
X42985765Y-9802429D01*
X42994030Y-9779329D01*
X43004520Y-9757151D01*
X43017133Y-9736107D01*
X43031747Y-9716402D01*
X43048223Y-9698223D01*
X43066402Y-9681747D01*
X43086107Y-9667133D01*
X43107151Y-9654520D01*
X43129329Y-9644030D01*
X43152429Y-9635765D01*
X43176227Y-9629804D01*
X43200496Y-9626204D01*
X43225000Y-9625000D01*
X43975000Y-9625000D01*
X43999504Y-9626204D01*
X43999504Y-9626204D01*
G37*
D14*
X43600000Y-10500000D03*
D10*
G36*
X13799504Y-6126204D02*
G01*
X13823773Y-6129804D01*
X13847571Y-6135765D01*
X13870671Y-6144030D01*
X13892849Y-6154520D01*
X13913893Y-6167133D01*
X13933598Y-6181747D01*
X13951777Y-6198223D01*
X13968253Y-6216402D01*
X13982867Y-6236107D01*
X13995480Y-6257151D01*
X14005970Y-6279329D01*
X14014235Y-6302429D01*
X14020196Y-6326227D01*
X14023796Y-6350496D01*
X14025000Y-6375000D01*
X14025000Y-7625000D01*
X14023796Y-7649504D01*
X14020196Y-7673773D01*
X14014235Y-7697571D01*
X14005970Y-7720671D01*
X13995480Y-7742849D01*
X13982867Y-7763893D01*
X13968253Y-7783598D01*
X13951777Y-7801777D01*
X13933598Y-7818253D01*
X13913893Y-7832867D01*
X13892849Y-7845480D01*
X13870671Y-7855970D01*
X13847571Y-7864235D01*
X13823773Y-7870196D01*
X13799504Y-7873796D01*
X13775000Y-7875000D01*
X13025000Y-7875000D01*
X13000496Y-7873796D01*
X12976227Y-7870196D01*
X12952429Y-7864235D01*
X12929329Y-7855970D01*
X12907151Y-7845480D01*
X12886107Y-7832867D01*
X12866402Y-7818253D01*
X12848223Y-7801777D01*
X12831747Y-7783598D01*
X12817133Y-7763893D01*
X12804520Y-7742849D01*
X12794030Y-7720671D01*
X12785765Y-7697571D01*
X12779804Y-7673773D01*
X12776204Y-7649504D01*
X12775000Y-7625000D01*
X12775000Y-6375000D01*
X12776204Y-6350496D01*
X12779804Y-6326227D01*
X12785765Y-6302429D01*
X12794030Y-6279329D01*
X12804520Y-6257151D01*
X12817133Y-6236107D01*
X12831747Y-6216402D01*
X12848223Y-6198223D01*
X12866402Y-6181747D01*
X12886107Y-6167133D01*
X12907151Y-6154520D01*
X12929329Y-6144030D01*
X12952429Y-6135765D01*
X12976227Y-6129804D01*
X13000496Y-6126204D01*
X13025000Y-6125000D01*
X13775000Y-6125000D01*
X13799504Y-6126204D01*
X13799504Y-6126204D01*
G37*
D14*
X13400000Y-7000000D03*
D10*
G36*
X10999504Y-6126204D02*
G01*
X11023773Y-6129804D01*
X11047571Y-6135765D01*
X11070671Y-6144030D01*
X11092849Y-6154520D01*
X11113893Y-6167133D01*
X11133598Y-6181747D01*
X11151777Y-6198223D01*
X11168253Y-6216402D01*
X11182867Y-6236107D01*
X11195480Y-6257151D01*
X11205970Y-6279329D01*
X11214235Y-6302429D01*
X11220196Y-6326227D01*
X11223796Y-6350496D01*
X11225000Y-6375000D01*
X11225000Y-7625000D01*
X11223796Y-7649504D01*
X11220196Y-7673773D01*
X11214235Y-7697571D01*
X11205970Y-7720671D01*
X11195480Y-7742849D01*
X11182867Y-7763893D01*
X11168253Y-7783598D01*
X11151777Y-7801777D01*
X11133598Y-7818253D01*
X11113893Y-7832867D01*
X11092849Y-7845480D01*
X11070671Y-7855970D01*
X11047571Y-7864235D01*
X11023773Y-7870196D01*
X10999504Y-7873796D01*
X10975000Y-7875000D01*
X10225000Y-7875000D01*
X10200496Y-7873796D01*
X10176227Y-7870196D01*
X10152429Y-7864235D01*
X10129329Y-7855970D01*
X10107151Y-7845480D01*
X10086107Y-7832867D01*
X10066402Y-7818253D01*
X10048223Y-7801777D01*
X10031747Y-7783598D01*
X10017133Y-7763893D01*
X10004520Y-7742849D01*
X9994030Y-7720671D01*
X9985765Y-7697571D01*
X9979804Y-7673773D01*
X9976204Y-7649504D01*
X9975000Y-7625000D01*
X9975000Y-6375000D01*
X9976204Y-6350496D01*
X9979804Y-6326227D01*
X9985765Y-6302429D01*
X9994030Y-6279329D01*
X10004520Y-6257151D01*
X10017133Y-6236107D01*
X10031747Y-6216402D01*
X10048223Y-6198223D01*
X10066402Y-6181747D01*
X10086107Y-6167133D01*
X10107151Y-6154520D01*
X10129329Y-6144030D01*
X10152429Y-6135765D01*
X10176227Y-6129804D01*
X10200496Y-6126204D01*
X10225000Y-6125000D01*
X10975000Y-6125000D01*
X10999504Y-6126204D01*
X10999504Y-6126204D01*
G37*
D14*
X10600000Y-7000000D03*
D10*
G36*
X46799504Y-6126204D02*
G01*
X46823773Y-6129804D01*
X46847571Y-6135765D01*
X46870671Y-6144030D01*
X46892849Y-6154520D01*
X46913893Y-6167133D01*
X46933598Y-6181747D01*
X46951777Y-6198223D01*
X46968253Y-6216402D01*
X46982867Y-6236107D01*
X46995480Y-6257151D01*
X47005970Y-6279329D01*
X47014235Y-6302429D01*
X47020196Y-6326227D01*
X47023796Y-6350496D01*
X47025000Y-6375000D01*
X47025000Y-7625000D01*
X47023796Y-7649504D01*
X47020196Y-7673773D01*
X47014235Y-7697571D01*
X47005970Y-7720671D01*
X46995480Y-7742849D01*
X46982867Y-7763893D01*
X46968253Y-7783598D01*
X46951777Y-7801777D01*
X46933598Y-7818253D01*
X46913893Y-7832867D01*
X46892849Y-7845480D01*
X46870671Y-7855970D01*
X46847571Y-7864235D01*
X46823773Y-7870196D01*
X46799504Y-7873796D01*
X46775000Y-7875000D01*
X46025000Y-7875000D01*
X46000496Y-7873796D01*
X45976227Y-7870196D01*
X45952429Y-7864235D01*
X45929329Y-7855970D01*
X45907151Y-7845480D01*
X45886107Y-7832867D01*
X45866402Y-7818253D01*
X45848223Y-7801777D01*
X45831747Y-7783598D01*
X45817133Y-7763893D01*
X45804520Y-7742849D01*
X45794030Y-7720671D01*
X45785765Y-7697571D01*
X45779804Y-7673773D01*
X45776204Y-7649504D01*
X45775000Y-7625000D01*
X45775000Y-6375000D01*
X45776204Y-6350496D01*
X45779804Y-6326227D01*
X45785765Y-6302429D01*
X45794030Y-6279329D01*
X45804520Y-6257151D01*
X45817133Y-6236107D01*
X45831747Y-6216402D01*
X45848223Y-6198223D01*
X45866402Y-6181747D01*
X45886107Y-6167133D01*
X45907151Y-6154520D01*
X45929329Y-6144030D01*
X45952429Y-6135765D01*
X45976227Y-6129804D01*
X46000496Y-6126204D01*
X46025000Y-6125000D01*
X46775000Y-6125000D01*
X46799504Y-6126204D01*
X46799504Y-6126204D01*
G37*
D14*
X46400000Y-7000000D03*
D10*
G36*
X43999504Y-6126204D02*
G01*
X44023773Y-6129804D01*
X44047571Y-6135765D01*
X44070671Y-6144030D01*
X44092849Y-6154520D01*
X44113893Y-6167133D01*
X44133598Y-6181747D01*
X44151777Y-6198223D01*
X44168253Y-6216402D01*
X44182867Y-6236107D01*
X44195480Y-6257151D01*
X44205970Y-6279329D01*
X44214235Y-6302429D01*
X44220196Y-6326227D01*
X44223796Y-6350496D01*
X44225000Y-6375000D01*
X44225000Y-7625000D01*
X44223796Y-7649504D01*
X44220196Y-7673773D01*
X44214235Y-7697571D01*
X44205970Y-7720671D01*
X44195480Y-7742849D01*
X44182867Y-7763893D01*
X44168253Y-7783598D01*
X44151777Y-7801777D01*
X44133598Y-7818253D01*
X44113893Y-7832867D01*
X44092849Y-7845480D01*
X44070671Y-7855970D01*
X44047571Y-7864235D01*
X44023773Y-7870196D01*
X43999504Y-7873796D01*
X43975000Y-7875000D01*
X43225000Y-7875000D01*
X43200496Y-7873796D01*
X43176227Y-7870196D01*
X43152429Y-7864235D01*
X43129329Y-7855970D01*
X43107151Y-7845480D01*
X43086107Y-7832867D01*
X43066402Y-7818253D01*
X43048223Y-7801777D01*
X43031747Y-7783598D01*
X43017133Y-7763893D01*
X43004520Y-7742849D01*
X42994030Y-7720671D01*
X42985765Y-7697571D01*
X42979804Y-7673773D01*
X42976204Y-7649504D01*
X42975000Y-7625000D01*
X42975000Y-6375000D01*
X42976204Y-6350496D01*
X42979804Y-6326227D01*
X42985765Y-6302429D01*
X42994030Y-6279329D01*
X43004520Y-6257151D01*
X43017133Y-6236107D01*
X43031747Y-6216402D01*
X43048223Y-6198223D01*
X43066402Y-6181747D01*
X43086107Y-6167133D01*
X43107151Y-6154520D01*
X43129329Y-6144030D01*
X43152429Y-6135765D01*
X43176227Y-6129804D01*
X43200496Y-6126204D01*
X43225000Y-6125000D01*
X43975000Y-6125000D01*
X43999504Y-6126204D01*
X43999504Y-6126204D01*
G37*
D14*
X43600000Y-7000000D03*
D10*
G36*
X13799504Y-2626204D02*
G01*
X13823773Y-2629804D01*
X13847571Y-2635765D01*
X13870671Y-2644030D01*
X13892849Y-2654520D01*
X13913893Y-2667133D01*
X13933598Y-2681747D01*
X13951777Y-2698223D01*
X13968253Y-2716402D01*
X13982867Y-2736107D01*
X13995480Y-2757151D01*
X14005970Y-2779329D01*
X14014235Y-2802429D01*
X14020196Y-2826227D01*
X14023796Y-2850496D01*
X14025000Y-2875000D01*
X14025000Y-4125000D01*
X14023796Y-4149504D01*
X14020196Y-4173773D01*
X14014235Y-4197571D01*
X14005970Y-4220671D01*
X13995480Y-4242849D01*
X13982867Y-4263893D01*
X13968253Y-4283598D01*
X13951777Y-4301777D01*
X13933598Y-4318253D01*
X13913893Y-4332867D01*
X13892849Y-4345480D01*
X13870671Y-4355970D01*
X13847571Y-4364235D01*
X13823773Y-4370196D01*
X13799504Y-4373796D01*
X13775000Y-4375000D01*
X13025000Y-4375000D01*
X13000496Y-4373796D01*
X12976227Y-4370196D01*
X12952429Y-4364235D01*
X12929329Y-4355970D01*
X12907151Y-4345480D01*
X12886107Y-4332867D01*
X12866402Y-4318253D01*
X12848223Y-4301777D01*
X12831747Y-4283598D01*
X12817133Y-4263893D01*
X12804520Y-4242849D01*
X12794030Y-4220671D01*
X12785765Y-4197571D01*
X12779804Y-4173773D01*
X12776204Y-4149504D01*
X12775000Y-4125000D01*
X12775000Y-2875000D01*
X12776204Y-2850496D01*
X12779804Y-2826227D01*
X12785765Y-2802429D01*
X12794030Y-2779329D01*
X12804520Y-2757151D01*
X12817133Y-2736107D01*
X12831747Y-2716402D01*
X12848223Y-2698223D01*
X12866402Y-2681747D01*
X12886107Y-2667133D01*
X12907151Y-2654520D01*
X12929329Y-2644030D01*
X12952429Y-2635765D01*
X12976227Y-2629804D01*
X13000496Y-2626204D01*
X13025000Y-2625000D01*
X13775000Y-2625000D01*
X13799504Y-2626204D01*
X13799504Y-2626204D01*
G37*
D14*
X13400000Y-3500000D03*
D10*
G36*
X10999504Y-2626204D02*
G01*
X11023773Y-2629804D01*
X11047571Y-2635765D01*
X11070671Y-2644030D01*
X11092849Y-2654520D01*
X11113893Y-2667133D01*
X11133598Y-2681747D01*
X11151777Y-2698223D01*
X11168253Y-2716402D01*
X11182867Y-2736107D01*
X11195480Y-2757151D01*
X11205970Y-2779329D01*
X11214235Y-2802429D01*
X11220196Y-2826227D01*
X11223796Y-2850496D01*
X11225000Y-2875000D01*
X11225000Y-4125000D01*
X11223796Y-4149504D01*
X11220196Y-4173773D01*
X11214235Y-4197571D01*
X11205970Y-4220671D01*
X11195480Y-4242849D01*
X11182867Y-4263893D01*
X11168253Y-4283598D01*
X11151777Y-4301777D01*
X11133598Y-4318253D01*
X11113893Y-4332867D01*
X11092849Y-4345480D01*
X11070671Y-4355970D01*
X11047571Y-4364235D01*
X11023773Y-4370196D01*
X10999504Y-4373796D01*
X10975000Y-4375000D01*
X10225000Y-4375000D01*
X10200496Y-4373796D01*
X10176227Y-4370196D01*
X10152429Y-4364235D01*
X10129329Y-4355970D01*
X10107151Y-4345480D01*
X10086107Y-4332867D01*
X10066402Y-4318253D01*
X10048223Y-4301777D01*
X10031747Y-4283598D01*
X10017133Y-4263893D01*
X10004520Y-4242849D01*
X9994030Y-4220671D01*
X9985765Y-4197571D01*
X9979804Y-4173773D01*
X9976204Y-4149504D01*
X9975000Y-4125000D01*
X9975000Y-2875000D01*
X9976204Y-2850496D01*
X9979804Y-2826227D01*
X9985765Y-2802429D01*
X9994030Y-2779329D01*
X10004520Y-2757151D01*
X10017133Y-2736107D01*
X10031747Y-2716402D01*
X10048223Y-2698223D01*
X10066402Y-2681747D01*
X10086107Y-2667133D01*
X10107151Y-2654520D01*
X10129329Y-2644030D01*
X10152429Y-2635765D01*
X10176227Y-2629804D01*
X10200496Y-2626204D01*
X10225000Y-2625000D01*
X10975000Y-2625000D01*
X10999504Y-2626204D01*
X10999504Y-2626204D01*
G37*
D14*
X10600000Y-3500000D03*
D10*
G36*
X46799504Y-2626204D02*
G01*
X46823773Y-2629804D01*
X46847571Y-2635765D01*
X46870671Y-2644030D01*
X46892849Y-2654520D01*
X46913893Y-2667133D01*
X46933598Y-2681747D01*
X46951777Y-2698223D01*
X46968253Y-2716402D01*
X46982867Y-2736107D01*
X46995480Y-2757151D01*
X47005970Y-2779329D01*
X47014235Y-2802429D01*
X47020196Y-2826227D01*
X47023796Y-2850496D01*
X47025000Y-2875000D01*
X47025000Y-4125000D01*
X47023796Y-4149504D01*
X47020196Y-4173773D01*
X47014235Y-4197571D01*
X47005970Y-4220671D01*
X46995480Y-4242849D01*
X46982867Y-4263893D01*
X46968253Y-4283598D01*
X46951777Y-4301777D01*
X46933598Y-4318253D01*
X46913893Y-4332867D01*
X46892849Y-4345480D01*
X46870671Y-4355970D01*
X46847571Y-4364235D01*
X46823773Y-4370196D01*
X46799504Y-4373796D01*
X46775000Y-4375000D01*
X46025000Y-4375000D01*
X46000496Y-4373796D01*
X45976227Y-4370196D01*
X45952429Y-4364235D01*
X45929329Y-4355970D01*
X45907151Y-4345480D01*
X45886107Y-4332867D01*
X45866402Y-4318253D01*
X45848223Y-4301777D01*
X45831747Y-4283598D01*
X45817133Y-4263893D01*
X45804520Y-4242849D01*
X45794030Y-4220671D01*
X45785765Y-4197571D01*
X45779804Y-4173773D01*
X45776204Y-4149504D01*
X45775000Y-4125000D01*
X45775000Y-2875000D01*
X45776204Y-2850496D01*
X45779804Y-2826227D01*
X45785765Y-2802429D01*
X45794030Y-2779329D01*
X45804520Y-2757151D01*
X45817133Y-2736107D01*
X45831747Y-2716402D01*
X45848223Y-2698223D01*
X45866402Y-2681747D01*
X45886107Y-2667133D01*
X45907151Y-2654520D01*
X45929329Y-2644030D01*
X45952429Y-2635765D01*
X45976227Y-2629804D01*
X46000496Y-2626204D01*
X46025000Y-2625000D01*
X46775000Y-2625000D01*
X46799504Y-2626204D01*
X46799504Y-2626204D01*
G37*
D14*
X46400000Y-3500000D03*
D10*
G36*
X43999504Y-2626204D02*
G01*
X44023773Y-2629804D01*
X44047571Y-2635765D01*
X44070671Y-2644030D01*
X44092849Y-2654520D01*
X44113893Y-2667133D01*
X44133598Y-2681747D01*
X44151777Y-2698223D01*
X44168253Y-2716402D01*
X44182867Y-2736107D01*
X44195480Y-2757151D01*
X44205970Y-2779329D01*
X44214235Y-2802429D01*
X44220196Y-2826227D01*
X44223796Y-2850496D01*
X44225000Y-2875000D01*
X44225000Y-4125000D01*
X44223796Y-4149504D01*
X44220196Y-4173773D01*
X44214235Y-4197571D01*
X44205970Y-4220671D01*
X44195480Y-4242849D01*
X44182867Y-4263893D01*
X44168253Y-4283598D01*
X44151777Y-4301777D01*
X44133598Y-4318253D01*
X44113893Y-4332867D01*
X44092849Y-4345480D01*
X44070671Y-4355970D01*
X44047571Y-4364235D01*
X44023773Y-4370196D01*
X43999504Y-4373796D01*
X43975000Y-4375000D01*
X43225000Y-4375000D01*
X43200496Y-4373796D01*
X43176227Y-4370196D01*
X43152429Y-4364235D01*
X43129329Y-4355970D01*
X43107151Y-4345480D01*
X43086107Y-4332867D01*
X43066402Y-4318253D01*
X43048223Y-4301777D01*
X43031747Y-4283598D01*
X43017133Y-4263893D01*
X43004520Y-4242849D01*
X42994030Y-4220671D01*
X42985765Y-4197571D01*
X42979804Y-4173773D01*
X42976204Y-4149504D01*
X42975000Y-4125000D01*
X42975000Y-2875000D01*
X42976204Y-2850496D01*
X42979804Y-2826227D01*
X42985765Y-2802429D01*
X42994030Y-2779329D01*
X43004520Y-2757151D01*
X43017133Y-2736107D01*
X43031747Y-2716402D01*
X43048223Y-2698223D01*
X43066402Y-2681747D01*
X43086107Y-2667133D01*
X43107151Y-2654520D01*
X43129329Y-2644030D01*
X43152429Y-2635765D01*
X43176227Y-2629804D01*
X43200496Y-2626204D01*
X43225000Y-2625000D01*
X43975000Y-2625000D01*
X43999504Y-2626204D01*
X43999504Y-2626204D01*
G37*
D14*
X43600000Y-3500000D03*
D10*
G36*
X23299504Y-13126204D02*
G01*
X23323773Y-13129804D01*
X23347571Y-13135765D01*
X23370671Y-13144030D01*
X23392849Y-13154520D01*
X23413893Y-13167133D01*
X23433598Y-13181747D01*
X23451777Y-13198223D01*
X23468253Y-13216402D01*
X23482867Y-13236107D01*
X23495480Y-13257151D01*
X23505970Y-13279329D01*
X23514235Y-13302429D01*
X23520196Y-13326227D01*
X23523796Y-13350496D01*
X23525000Y-13375000D01*
X23525000Y-14625000D01*
X23523796Y-14649504D01*
X23520196Y-14673773D01*
X23514235Y-14697571D01*
X23505970Y-14720671D01*
X23495480Y-14742849D01*
X23482867Y-14763893D01*
X23468253Y-14783598D01*
X23451777Y-14801777D01*
X23433598Y-14818253D01*
X23413893Y-14832867D01*
X23392849Y-14845480D01*
X23370671Y-14855970D01*
X23347571Y-14864235D01*
X23323773Y-14870196D01*
X23299504Y-14873796D01*
X23275000Y-14875000D01*
X22525000Y-14875000D01*
X22500496Y-14873796D01*
X22476227Y-14870196D01*
X22452429Y-14864235D01*
X22429329Y-14855970D01*
X22407151Y-14845480D01*
X22386107Y-14832867D01*
X22366402Y-14818253D01*
X22348223Y-14801777D01*
X22331747Y-14783598D01*
X22317133Y-14763893D01*
X22304520Y-14742849D01*
X22294030Y-14720671D01*
X22285765Y-14697571D01*
X22279804Y-14673773D01*
X22276204Y-14649504D01*
X22275000Y-14625000D01*
X22275000Y-13375000D01*
X22276204Y-13350496D01*
X22279804Y-13326227D01*
X22285765Y-13302429D01*
X22294030Y-13279329D01*
X22304520Y-13257151D01*
X22317133Y-13236107D01*
X22331747Y-13216402D01*
X22348223Y-13198223D01*
X22366402Y-13181747D01*
X22386107Y-13167133D01*
X22407151Y-13154520D01*
X22429329Y-13144030D01*
X22452429Y-13135765D01*
X22476227Y-13129804D01*
X22500496Y-13126204D01*
X22525000Y-13125000D01*
X23275000Y-13125000D01*
X23299504Y-13126204D01*
X23299504Y-13126204D01*
G37*
D14*
X22900000Y-14000000D03*
D10*
G36*
X20499504Y-13126204D02*
G01*
X20523773Y-13129804D01*
X20547571Y-13135765D01*
X20570671Y-13144030D01*
X20592849Y-13154520D01*
X20613893Y-13167133D01*
X20633598Y-13181747D01*
X20651777Y-13198223D01*
X20668253Y-13216402D01*
X20682867Y-13236107D01*
X20695480Y-13257151D01*
X20705970Y-13279329D01*
X20714235Y-13302429D01*
X20720196Y-13326227D01*
X20723796Y-13350496D01*
X20725000Y-13375000D01*
X20725000Y-14625000D01*
X20723796Y-14649504D01*
X20720196Y-14673773D01*
X20714235Y-14697571D01*
X20705970Y-14720671D01*
X20695480Y-14742849D01*
X20682867Y-14763893D01*
X20668253Y-14783598D01*
X20651777Y-14801777D01*
X20633598Y-14818253D01*
X20613893Y-14832867D01*
X20592849Y-14845480D01*
X20570671Y-14855970D01*
X20547571Y-14864235D01*
X20523773Y-14870196D01*
X20499504Y-14873796D01*
X20475000Y-14875000D01*
X19725000Y-14875000D01*
X19700496Y-14873796D01*
X19676227Y-14870196D01*
X19652429Y-14864235D01*
X19629329Y-14855970D01*
X19607151Y-14845480D01*
X19586107Y-14832867D01*
X19566402Y-14818253D01*
X19548223Y-14801777D01*
X19531747Y-14783598D01*
X19517133Y-14763893D01*
X19504520Y-14742849D01*
X19494030Y-14720671D01*
X19485765Y-14697571D01*
X19479804Y-14673773D01*
X19476204Y-14649504D01*
X19475000Y-14625000D01*
X19475000Y-13375000D01*
X19476204Y-13350496D01*
X19479804Y-13326227D01*
X19485765Y-13302429D01*
X19494030Y-13279329D01*
X19504520Y-13257151D01*
X19517133Y-13236107D01*
X19531747Y-13216402D01*
X19548223Y-13198223D01*
X19566402Y-13181747D01*
X19586107Y-13167133D01*
X19607151Y-13154520D01*
X19629329Y-13144030D01*
X19652429Y-13135765D01*
X19676227Y-13129804D01*
X19700496Y-13126204D01*
X19725000Y-13125000D01*
X20475000Y-13125000D01*
X20499504Y-13126204D01*
X20499504Y-13126204D01*
G37*
D14*
X20100000Y-14000000D03*
D10*
G36*
X23299504Y-9626204D02*
G01*
X23323773Y-9629804D01*
X23347571Y-9635765D01*
X23370671Y-9644030D01*
X23392849Y-9654520D01*
X23413893Y-9667133D01*
X23433598Y-9681747D01*
X23451777Y-9698223D01*
X23468253Y-9716402D01*
X23482867Y-9736107D01*
X23495480Y-9757151D01*
X23505970Y-9779329D01*
X23514235Y-9802429D01*
X23520196Y-9826227D01*
X23523796Y-9850496D01*
X23525000Y-9875000D01*
X23525000Y-11125000D01*
X23523796Y-11149504D01*
X23520196Y-11173773D01*
X23514235Y-11197571D01*
X23505970Y-11220671D01*
X23495480Y-11242849D01*
X23482867Y-11263893D01*
X23468253Y-11283598D01*
X23451777Y-11301777D01*
X23433598Y-11318253D01*
X23413893Y-11332867D01*
X23392849Y-11345480D01*
X23370671Y-11355970D01*
X23347571Y-11364235D01*
X23323773Y-11370196D01*
X23299504Y-11373796D01*
X23275000Y-11375000D01*
X22525000Y-11375000D01*
X22500496Y-11373796D01*
X22476227Y-11370196D01*
X22452429Y-11364235D01*
X22429329Y-11355970D01*
X22407151Y-11345480D01*
X22386107Y-11332867D01*
X22366402Y-11318253D01*
X22348223Y-11301777D01*
X22331747Y-11283598D01*
X22317133Y-11263893D01*
X22304520Y-11242849D01*
X22294030Y-11220671D01*
X22285765Y-11197571D01*
X22279804Y-11173773D01*
X22276204Y-11149504D01*
X22275000Y-11125000D01*
X22275000Y-9875000D01*
X22276204Y-9850496D01*
X22279804Y-9826227D01*
X22285765Y-9802429D01*
X22294030Y-9779329D01*
X22304520Y-9757151D01*
X22317133Y-9736107D01*
X22331747Y-9716402D01*
X22348223Y-9698223D01*
X22366402Y-9681747D01*
X22386107Y-9667133D01*
X22407151Y-9654520D01*
X22429329Y-9644030D01*
X22452429Y-9635765D01*
X22476227Y-9629804D01*
X22500496Y-9626204D01*
X22525000Y-9625000D01*
X23275000Y-9625000D01*
X23299504Y-9626204D01*
X23299504Y-9626204D01*
G37*
D14*
X22900000Y-10500000D03*
D10*
G36*
X20499504Y-9626204D02*
G01*
X20523773Y-9629804D01*
X20547571Y-9635765D01*
X20570671Y-9644030D01*
X20592849Y-9654520D01*
X20613893Y-9667133D01*
X20633598Y-9681747D01*
X20651777Y-9698223D01*
X20668253Y-9716402D01*
X20682867Y-9736107D01*
X20695480Y-9757151D01*
X20705970Y-9779329D01*
X20714235Y-9802429D01*
X20720196Y-9826227D01*
X20723796Y-9850496D01*
X20725000Y-9875000D01*
X20725000Y-11125000D01*
X20723796Y-11149504D01*
X20720196Y-11173773D01*
X20714235Y-11197571D01*
X20705970Y-11220671D01*
X20695480Y-11242849D01*
X20682867Y-11263893D01*
X20668253Y-11283598D01*
X20651777Y-11301777D01*
X20633598Y-11318253D01*
X20613893Y-11332867D01*
X20592849Y-11345480D01*
X20570671Y-11355970D01*
X20547571Y-11364235D01*
X20523773Y-11370196D01*
X20499504Y-11373796D01*
X20475000Y-11375000D01*
X19725000Y-11375000D01*
X19700496Y-11373796D01*
X19676227Y-11370196D01*
X19652429Y-11364235D01*
X19629329Y-11355970D01*
X19607151Y-11345480D01*
X19586107Y-11332867D01*
X19566402Y-11318253D01*
X19548223Y-11301777D01*
X19531747Y-11283598D01*
X19517133Y-11263893D01*
X19504520Y-11242849D01*
X19494030Y-11220671D01*
X19485765Y-11197571D01*
X19479804Y-11173773D01*
X19476204Y-11149504D01*
X19475000Y-11125000D01*
X19475000Y-9875000D01*
X19476204Y-9850496D01*
X19479804Y-9826227D01*
X19485765Y-9802429D01*
X19494030Y-9779329D01*
X19504520Y-9757151D01*
X19517133Y-9736107D01*
X19531747Y-9716402D01*
X19548223Y-9698223D01*
X19566402Y-9681747D01*
X19586107Y-9667133D01*
X19607151Y-9654520D01*
X19629329Y-9644030D01*
X19652429Y-9635765D01*
X19676227Y-9629804D01*
X19700496Y-9626204D01*
X19725000Y-9625000D01*
X20475000Y-9625000D01*
X20499504Y-9626204D01*
X20499504Y-9626204D01*
G37*
D14*
X20100000Y-10500000D03*
D10*
G36*
X23299504Y-6126204D02*
G01*
X23323773Y-6129804D01*
X23347571Y-6135765D01*
X23370671Y-6144030D01*
X23392849Y-6154520D01*
X23413893Y-6167133D01*
X23433598Y-6181747D01*
X23451777Y-6198223D01*
X23468253Y-6216402D01*
X23482867Y-6236107D01*
X23495480Y-6257151D01*
X23505970Y-6279329D01*
X23514235Y-6302429D01*
X23520196Y-6326227D01*
X23523796Y-6350496D01*
X23525000Y-6375000D01*
X23525000Y-7625000D01*
X23523796Y-7649504D01*
X23520196Y-7673773D01*
X23514235Y-7697571D01*
X23505970Y-7720671D01*
X23495480Y-7742849D01*
X23482867Y-7763893D01*
X23468253Y-7783598D01*
X23451777Y-7801777D01*
X23433598Y-7818253D01*
X23413893Y-7832867D01*
X23392849Y-7845480D01*
X23370671Y-7855970D01*
X23347571Y-7864235D01*
X23323773Y-7870196D01*
X23299504Y-7873796D01*
X23275000Y-7875000D01*
X22525000Y-7875000D01*
X22500496Y-7873796D01*
X22476227Y-7870196D01*
X22452429Y-7864235D01*
X22429329Y-7855970D01*
X22407151Y-7845480D01*
X22386107Y-7832867D01*
X22366402Y-7818253D01*
X22348223Y-7801777D01*
X22331747Y-7783598D01*
X22317133Y-7763893D01*
X22304520Y-7742849D01*
X22294030Y-7720671D01*
X22285765Y-7697571D01*
X22279804Y-7673773D01*
X22276204Y-7649504D01*
X22275000Y-7625000D01*
X22275000Y-6375000D01*
X22276204Y-6350496D01*
X22279804Y-6326227D01*
X22285765Y-6302429D01*
X22294030Y-6279329D01*
X22304520Y-6257151D01*
X22317133Y-6236107D01*
X22331747Y-6216402D01*
X22348223Y-6198223D01*
X22366402Y-6181747D01*
X22386107Y-6167133D01*
X22407151Y-6154520D01*
X22429329Y-6144030D01*
X22452429Y-6135765D01*
X22476227Y-6129804D01*
X22500496Y-6126204D01*
X22525000Y-6125000D01*
X23275000Y-6125000D01*
X23299504Y-6126204D01*
X23299504Y-6126204D01*
G37*
D14*
X22900000Y-7000000D03*
D10*
G36*
X20499504Y-6126204D02*
G01*
X20523773Y-6129804D01*
X20547571Y-6135765D01*
X20570671Y-6144030D01*
X20592849Y-6154520D01*
X20613893Y-6167133D01*
X20633598Y-6181747D01*
X20651777Y-6198223D01*
X20668253Y-6216402D01*
X20682867Y-6236107D01*
X20695480Y-6257151D01*
X20705970Y-6279329D01*
X20714235Y-6302429D01*
X20720196Y-6326227D01*
X20723796Y-6350496D01*
X20725000Y-6375000D01*
X20725000Y-7625000D01*
X20723796Y-7649504D01*
X20720196Y-7673773D01*
X20714235Y-7697571D01*
X20705970Y-7720671D01*
X20695480Y-7742849D01*
X20682867Y-7763893D01*
X20668253Y-7783598D01*
X20651777Y-7801777D01*
X20633598Y-7818253D01*
X20613893Y-7832867D01*
X20592849Y-7845480D01*
X20570671Y-7855970D01*
X20547571Y-7864235D01*
X20523773Y-7870196D01*
X20499504Y-7873796D01*
X20475000Y-7875000D01*
X19725000Y-7875000D01*
X19700496Y-7873796D01*
X19676227Y-7870196D01*
X19652429Y-7864235D01*
X19629329Y-7855970D01*
X19607151Y-7845480D01*
X19586107Y-7832867D01*
X19566402Y-7818253D01*
X19548223Y-7801777D01*
X19531747Y-7783598D01*
X19517133Y-7763893D01*
X19504520Y-7742849D01*
X19494030Y-7720671D01*
X19485765Y-7697571D01*
X19479804Y-7673773D01*
X19476204Y-7649504D01*
X19475000Y-7625000D01*
X19475000Y-6375000D01*
X19476204Y-6350496D01*
X19479804Y-6326227D01*
X19485765Y-6302429D01*
X19494030Y-6279329D01*
X19504520Y-6257151D01*
X19517133Y-6236107D01*
X19531747Y-6216402D01*
X19548223Y-6198223D01*
X19566402Y-6181747D01*
X19586107Y-6167133D01*
X19607151Y-6154520D01*
X19629329Y-6144030D01*
X19652429Y-6135765D01*
X19676227Y-6129804D01*
X19700496Y-6126204D01*
X19725000Y-6125000D01*
X20475000Y-6125000D01*
X20499504Y-6126204D01*
X20499504Y-6126204D01*
G37*
D14*
X20100000Y-7000000D03*
D10*
G36*
X30299504Y-13126204D02*
G01*
X30323773Y-13129804D01*
X30347571Y-13135765D01*
X30370671Y-13144030D01*
X30392849Y-13154520D01*
X30413893Y-13167133D01*
X30433598Y-13181747D01*
X30451777Y-13198223D01*
X30468253Y-13216402D01*
X30482867Y-13236107D01*
X30495480Y-13257151D01*
X30505970Y-13279329D01*
X30514235Y-13302429D01*
X30520196Y-13326227D01*
X30523796Y-13350496D01*
X30525000Y-13375000D01*
X30525000Y-14625000D01*
X30523796Y-14649504D01*
X30520196Y-14673773D01*
X30514235Y-14697571D01*
X30505970Y-14720671D01*
X30495480Y-14742849D01*
X30482867Y-14763893D01*
X30468253Y-14783598D01*
X30451777Y-14801777D01*
X30433598Y-14818253D01*
X30413893Y-14832867D01*
X30392849Y-14845480D01*
X30370671Y-14855970D01*
X30347571Y-14864235D01*
X30323773Y-14870196D01*
X30299504Y-14873796D01*
X30275000Y-14875000D01*
X29525000Y-14875000D01*
X29500496Y-14873796D01*
X29476227Y-14870196D01*
X29452429Y-14864235D01*
X29429329Y-14855970D01*
X29407151Y-14845480D01*
X29386107Y-14832867D01*
X29366402Y-14818253D01*
X29348223Y-14801777D01*
X29331747Y-14783598D01*
X29317133Y-14763893D01*
X29304520Y-14742849D01*
X29294030Y-14720671D01*
X29285765Y-14697571D01*
X29279804Y-14673773D01*
X29276204Y-14649504D01*
X29275000Y-14625000D01*
X29275000Y-13375000D01*
X29276204Y-13350496D01*
X29279804Y-13326227D01*
X29285765Y-13302429D01*
X29294030Y-13279329D01*
X29304520Y-13257151D01*
X29317133Y-13236107D01*
X29331747Y-13216402D01*
X29348223Y-13198223D01*
X29366402Y-13181747D01*
X29386107Y-13167133D01*
X29407151Y-13154520D01*
X29429329Y-13144030D01*
X29452429Y-13135765D01*
X29476227Y-13129804D01*
X29500496Y-13126204D01*
X29525000Y-13125000D01*
X30275000Y-13125000D01*
X30299504Y-13126204D01*
X30299504Y-13126204D01*
G37*
D14*
X29900000Y-14000000D03*
D10*
G36*
X27499504Y-13126204D02*
G01*
X27523773Y-13129804D01*
X27547571Y-13135765D01*
X27570671Y-13144030D01*
X27592849Y-13154520D01*
X27613893Y-13167133D01*
X27633598Y-13181747D01*
X27651777Y-13198223D01*
X27668253Y-13216402D01*
X27682867Y-13236107D01*
X27695480Y-13257151D01*
X27705970Y-13279329D01*
X27714235Y-13302429D01*
X27720196Y-13326227D01*
X27723796Y-13350496D01*
X27725000Y-13375000D01*
X27725000Y-14625000D01*
X27723796Y-14649504D01*
X27720196Y-14673773D01*
X27714235Y-14697571D01*
X27705970Y-14720671D01*
X27695480Y-14742849D01*
X27682867Y-14763893D01*
X27668253Y-14783598D01*
X27651777Y-14801777D01*
X27633598Y-14818253D01*
X27613893Y-14832867D01*
X27592849Y-14845480D01*
X27570671Y-14855970D01*
X27547571Y-14864235D01*
X27523773Y-14870196D01*
X27499504Y-14873796D01*
X27475000Y-14875000D01*
X26725000Y-14875000D01*
X26700496Y-14873796D01*
X26676227Y-14870196D01*
X26652429Y-14864235D01*
X26629329Y-14855970D01*
X26607151Y-14845480D01*
X26586107Y-14832867D01*
X26566402Y-14818253D01*
X26548223Y-14801777D01*
X26531747Y-14783598D01*
X26517133Y-14763893D01*
X26504520Y-14742849D01*
X26494030Y-14720671D01*
X26485765Y-14697571D01*
X26479804Y-14673773D01*
X26476204Y-14649504D01*
X26475000Y-14625000D01*
X26475000Y-13375000D01*
X26476204Y-13350496D01*
X26479804Y-13326227D01*
X26485765Y-13302429D01*
X26494030Y-13279329D01*
X26504520Y-13257151D01*
X26517133Y-13236107D01*
X26531747Y-13216402D01*
X26548223Y-13198223D01*
X26566402Y-13181747D01*
X26586107Y-13167133D01*
X26607151Y-13154520D01*
X26629329Y-13144030D01*
X26652429Y-13135765D01*
X26676227Y-13129804D01*
X26700496Y-13126204D01*
X26725000Y-13125000D01*
X27475000Y-13125000D01*
X27499504Y-13126204D01*
X27499504Y-13126204D01*
G37*
D14*
X27100000Y-14000000D03*
D10*
G36*
X39799504Y-6126204D02*
G01*
X39823773Y-6129804D01*
X39847571Y-6135765D01*
X39870671Y-6144030D01*
X39892849Y-6154520D01*
X39913893Y-6167133D01*
X39933598Y-6181747D01*
X39951777Y-6198223D01*
X39968253Y-6216402D01*
X39982867Y-6236107D01*
X39995480Y-6257151D01*
X40005970Y-6279329D01*
X40014235Y-6302429D01*
X40020196Y-6326227D01*
X40023796Y-6350496D01*
X40025000Y-6375000D01*
X40025000Y-7625000D01*
X40023796Y-7649504D01*
X40020196Y-7673773D01*
X40014235Y-7697571D01*
X40005970Y-7720671D01*
X39995480Y-7742849D01*
X39982867Y-7763893D01*
X39968253Y-7783598D01*
X39951777Y-7801777D01*
X39933598Y-7818253D01*
X39913893Y-7832867D01*
X39892849Y-7845480D01*
X39870671Y-7855970D01*
X39847571Y-7864235D01*
X39823773Y-7870196D01*
X39799504Y-7873796D01*
X39775000Y-7875000D01*
X39025000Y-7875000D01*
X39000496Y-7873796D01*
X38976227Y-7870196D01*
X38952429Y-7864235D01*
X38929329Y-7855970D01*
X38907151Y-7845480D01*
X38886107Y-7832867D01*
X38866402Y-7818253D01*
X38848223Y-7801777D01*
X38831747Y-7783598D01*
X38817133Y-7763893D01*
X38804520Y-7742849D01*
X38794030Y-7720671D01*
X38785765Y-7697571D01*
X38779804Y-7673773D01*
X38776204Y-7649504D01*
X38775000Y-7625000D01*
X38775000Y-6375000D01*
X38776204Y-6350496D01*
X38779804Y-6326227D01*
X38785765Y-6302429D01*
X38794030Y-6279329D01*
X38804520Y-6257151D01*
X38817133Y-6236107D01*
X38831747Y-6216402D01*
X38848223Y-6198223D01*
X38866402Y-6181747D01*
X38886107Y-6167133D01*
X38907151Y-6154520D01*
X38929329Y-6144030D01*
X38952429Y-6135765D01*
X38976227Y-6129804D01*
X39000496Y-6126204D01*
X39025000Y-6125000D01*
X39775000Y-6125000D01*
X39799504Y-6126204D01*
X39799504Y-6126204D01*
G37*
D14*
X39400000Y-7000000D03*
D10*
G36*
X36999504Y-6126204D02*
G01*
X37023773Y-6129804D01*
X37047571Y-6135765D01*
X37070671Y-6144030D01*
X37092849Y-6154520D01*
X37113893Y-6167133D01*
X37133598Y-6181747D01*
X37151777Y-6198223D01*
X37168253Y-6216402D01*
X37182867Y-6236107D01*
X37195480Y-6257151D01*
X37205970Y-6279329D01*
X37214235Y-6302429D01*
X37220196Y-6326227D01*
X37223796Y-6350496D01*
X37225000Y-6375000D01*
X37225000Y-7625000D01*
X37223796Y-7649504D01*
X37220196Y-7673773D01*
X37214235Y-7697571D01*
X37205970Y-7720671D01*
X37195480Y-7742849D01*
X37182867Y-7763893D01*
X37168253Y-7783598D01*
X37151777Y-7801777D01*
X37133598Y-7818253D01*
X37113893Y-7832867D01*
X37092849Y-7845480D01*
X37070671Y-7855970D01*
X37047571Y-7864235D01*
X37023773Y-7870196D01*
X36999504Y-7873796D01*
X36975000Y-7875000D01*
X36225000Y-7875000D01*
X36200496Y-7873796D01*
X36176227Y-7870196D01*
X36152429Y-7864235D01*
X36129329Y-7855970D01*
X36107151Y-7845480D01*
X36086107Y-7832867D01*
X36066402Y-7818253D01*
X36048223Y-7801777D01*
X36031747Y-7783598D01*
X36017133Y-7763893D01*
X36004520Y-7742849D01*
X35994030Y-7720671D01*
X35985765Y-7697571D01*
X35979804Y-7673773D01*
X35976204Y-7649504D01*
X35975000Y-7625000D01*
X35975000Y-6375000D01*
X35976204Y-6350496D01*
X35979804Y-6326227D01*
X35985765Y-6302429D01*
X35994030Y-6279329D01*
X36004520Y-6257151D01*
X36017133Y-6236107D01*
X36031747Y-6216402D01*
X36048223Y-6198223D01*
X36066402Y-6181747D01*
X36086107Y-6167133D01*
X36107151Y-6154520D01*
X36129329Y-6144030D01*
X36152429Y-6135765D01*
X36176227Y-6129804D01*
X36200496Y-6126204D01*
X36225000Y-6125000D01*
X36975000Y-6125000D01*
X36999504Y-6126204D01*
X36999504Y-6126204D01*
G37*
D14*
X36600000Y-7000000D03*
D10*
G36*
X30299504Y-9626204D02*
G01*
X30323773Y-9629804D01*
X30347571Y-9635765D01*
X30370671Y-9644030D01*
X30392849Y-9654520D01*
X30413893Y-9667133D01*
X30433598Y-9681747D01*
X30451777Y-9698223D01*
X30468253Y-9716402D01*
X30482867Y-9736107D01*
X30495480Y-9757151D01*
X30505970Y-9779329D01*
X30514235Y-9802429D01*
X30520196Y-9826227D01*
X30523796Y-9850496D01*
X30525000Y-9875000D01*
X30525000Y-11125000D01*
X30523796Y-11149504D01*
X30520196Y-11173773D01*
X30514235Y-11197571D01*
X30505970Y-11220671D01*
X30495480Y-11242849D01*
X30482867Y-11263893D01*
X30468253Y-11283598D01*
X30451777Y-11301777D01*
X30433598Y-11318253D01*
X30413893Y-11332867D01*
X30392849Y-11345480D01*
X30370671Y-11355970D01*
X30347571Y-11364235D01*
X30323773Y-11370196D01*
X30299504Y-11373796D01*
X30275000Y-11375000D01*
X29525000Y-11375000D01*
X29500496Y-11373796D01*
X29476227Y-11370196D01*
X29452429Y-11364235D01*
X29429329Y-11355970D01*
X29407151Y-11345480D01*
X29386107Y-11332867D01*
X29366402Y-11318253D01*
X29348223Y-11301777D01*
X29331747Y-11283598D01*
X29317133Y-11263893D01*
X29304520Y-11242849D01*
X29294030Y-11220671D01*
X29285765Y-11197571D01*
X29279804Y-11173773D01*
X29276204Y-11149504D01*
X29275000Y-11125000D01*
X29275000Y-9875000D01*
X29276204Y-9850496D01*
X29279804Y-9826227D01*
X29285765Y-9802429D01*
X29294030Y-9779329D01*
X29304520Y-9757151D01*
X29317133Y-9736107D01*
X29331747Y-9716402D01*
X29348223Y-9698223D01*
X29366402Y-9681747D01*
X29386107Y-9667133D01*
X29407151Y-9654520D01*
X29429329Y-9644030D01*
X29452429Y-9635765D01*
X29476227Y-9629804D01*
X29500496Y-9626204D01*
X29525000Y-9625000D01*
X30275000Y-9625000D01*
X30299504Y-9626204D01*
X30299504Y-9626204D01*
G37*
D14*
X29900000Y-10500000D03*
D10*
G36*
X27499504Y-9626204D02*
G01*
X27523773Y-9629804D01*
X27547571Y-9635765D01*
X27570671Y-9644030D01*
X27592849Y-9654520D01*
X27613893Y-9667133D01*
X27633598Y-9681747D01*
X27651777Y-9698223D01*
X27668253Y-9716402D01*
X27682867Y-9736107D01*
X27695480Y-9757151D01*
X27705970Y-9779329D01*
X27714235Y-9802429D01*
X27720196Y-9826227D01*
X27723796Y-9850496D01*
X27725000Y-9875000D01*
X27725000Y-11125000D01*
X27723796Y-11149504D01*
X27720196Y-11173773D01*
X27714235Y-11197571D01*
X27705970Y-11220671D01*
X27695480Y-11242849D01*
X27682867Y-11263893D01*
X27668253Y-11283598D01*
X27651777Y-11301777D01*
X27633598Y-11318253D01*
X27613893Y-11332867D01*
X27592849Y-11345480D01*
X27570671Y-11355970D01*
X27547571Y-11364235D01*
X27523773Y-11370196D01*
X27499504Y-11373796D01*
X27475000Y-11375000D01*
X26725000Y-11375000D01*
X26700496Y-11373796D01*
X26676227Y-11370196D01*
X26652429Y-11364235D01*
X26629329Y-11355970D01*
X26607151Y-11345480D01*
X26586107Y-11332867D01*
X26566402Y-11318253D01*
X26548223Y-11301777D01*
X26531747Y-11283598D01*
X26517133Y-11263893D01*
X26504520Y-11242849D01*
X26494030Y-11220671D01*
X26485765Y-11197571D01*
X26479804Y-11173773D01*
X26476204Y-11149504D01*
X26475000Y-11125000D01*
X26475000Y-9875000D01*
X26476204Y-9850496D01*
X26479804Y-9826227D01*
X26485765Y-9802429D01*
X26494030Y-9779329D01*
X26504520Y-9757151D01*
X26517133Y-9736107D01*
X26531747Y-9716402D01*
X26548223Y-9698223D01*
X26566402Y-9681747D01*
X26586107Y-9667133D01*
X26607151Y-9654520D01*
X26629329Y-9644030D01*
X26652429Y-9635765D01*
X26676227Y-9629804D01*
X26700496Y-9626204D01*
X26725000Y-9625000D01*
X27475000Y-9625000D01*
X27499504Y-9626204D01*
X27499504Y-9626204D01*
G37*
D14*
X27100000Y-10500000D03*
D10*
G36*
X30299504Y-6126204D02*
G01*
X30323773Y-6129804D01*
X30347571Y-6135765D01*
X30370671Y-6144030D01*
X30392849Y-6154520D01*
X30413893Y-6167133D01*
X30433598Y-6181747D01*
X30451777Y-6198223D01*
X30468253Y-6216402D01*
X30482867Y-6236107D01*
X30495480Y-6257151D01*
X30505970Y-6279329D01*
X30514235Y-6302429D01*
X30520196Y-6326227D01*
X30523796Y-6350496D01*
X30525000Y-6375000D01*
X30525000Y-7625000D01*
X30523796Y-7649504D01*
X30520196Y-7673773D01*
X30514235Y-7697571D01*
X30505970Y-7720671D01*
X30495480Y-7742849D01*
X30482867Y-7763893D01*
X30468253Y-7783598D01*
X30451777Y-7801777D01*
X30433598Y-7818253D01*
X30413893Y-7832867D01*
X30392849Y-7845480D01*
X30370671Y-7855970D01*
X30347571Y-7864235D01*
X30323773Y-7870196D01*
X30299504Y-7873796D01*
X30275000Y-7875000D01*
X29525000Y-7875000D01*
X29500496Y-7873796D01*
X29476227Y-7870196D01*
X29452429Y-7864235D01*
X29429329Y-7855970D01*
X29407151Y-7845480D01*
X29386107Y-7832867D01*
X29366402Y-7818253D01*
X29348223Y-7801777D01*
X29331747Y-7783598D01*
X29317133Y-7763893D01*
X29304520Y-7742849D01*
X29294030Y-7720671D01*
X29285765Y-7697571D01*
X29279804Y-7673773D01*
X29276204Y-7649504D01*
X29275000Y-7625000D01*
X29275000Y-6375000D01*
X29276204Y-6350496D01*
X29279804Y-6326227D01*
X29285765Y-6302429D01*
X29294030Y-6279329D01*
X29304520Y-6257151D01*
X29317133Y-6236107D01*
X29331747Y-6216402D01*
X29348223Y-6198223D01*
X29366402Y-6181747D01*
X29386107Y-6167133D01*
X29407151Y-6154520D01*
X29429329Y-6144030D01*
X29452429Y-6135765D01*
X29476227Y-6129804D01*
X29500496Y-6126204D01*
X29525000Y-6125000D01*
X30275000Y-6125000D01*
X30299504Y-6126204D01*
X30299504Y-6126204D01*
G37*
D14*
X29900000Y-7000000D03*
D10*
G36*
X27499504Y-6126204D02*
G01*
X27523773Y-6129804D01*
X27547571Y-6135765D01*
X27570671Y-6144030D01*
X27592849Y-6154520D01*
X27613893Y-6167133D01*
X27633598Y-6181747D01*
X27651777Y-6198223D01*
X27668253Y-6216402D01*
X27682867Y-6236107D01*
X27695480Y-6257151D01*
X27705970Y-6279329D01*
X27714235Y-6302429D01*
X27720196Y-6326227D01*
X27723796Y-6350496D01*
X27725000Y-6375000D01*
X27725000Y-7625000D01*
X27723796Y-7649504D01*
X27720196Y-7673773D01*
X27714235Y-7697571D01*
X27705970Y-7720671D01*
X27695480Y-7742849D01*
X27682867Y-7763893D01*
X27668253Y-7783598D01*
X27651777Y-7801777D01*
X27633598Y-7818253D01*
X27613893Y-7832867D01*
X27592849Y-7845480D01*
X27570671Y-7855970D01*
X27547571Y-7864235D01*
X27523773Y-7870196D01*
X27499504Y-7873796D01*
X27475000Y-7875000D01*
X26725000Y-7875000D01*
X26700496Y-7873796D01*
X26676227Y-7870196D01*
X26652429Y-7864235D01*
X26629329Y-7855970D01*
X26607151Y-7845480D01*
X26586107Y-7832867D01*
X26566402Y-7818253D01*
X26548223Y-7801777D01*
X26531747Y-7783598D01*
X26517133Y-7763893D01*
X26504520Y-7742849D01*
X26494030Y-7720671D01*
X26485765Y-7697571D01*
X26479804Y-7673773D01*
X26476204Y-7649504D01*
X26475000Y-7625000D01*
X26475000Y-6375000D01*
X26476204Y-6350496D01*
X26479804Y-6326227D01*
X26485765Y-6302429D01*
X26494030Y-6279329D01*
X26504520Y-6257151D01*
X26517133Y-6236107D01*
X26531747Y-6216402D01*
X26548223Y-6198223D01*
X26566402Y-6181747D01*
X26586107Y-6167133D01*
X26607151Y-6154520D01*
X26629329Y-6144030D01*
X26652429Y-6135765D01*
X26676227Y-6129804D01*
X26700496Y-6126204D01*
X26725000Y-6125000D01*
X27475000Y-6125000D01*
X27499504Y-6126204D01*
X27499504Y-6126204D01*
G37*
D14*
X27100000Y-7000000D03*
D10*
G36*
X30299504Y-2626204D02*
G01*
X30323773Y-2629804D01*
X30347571Y-2635765D01*
X30370671Y-2644030D01*
X30392849Y-2654520D01*
X30413893Y-2667133D01*
X30433598Y-2681747D01*
X30451777Y-2698223D01*
X30468253Y-2716402D01*
X30482867Y-2736107D01*
X30495480Y-2757151D01*
X30505970Y-2779329D01*
X30514235Y-2802429D01*
X30520196Y-2826227D01*
X30523796Y-2850496D01*
X30525000Y-2875000D01*
X30525000Y-4125000D01*
X30523796Y-4149504D01*
X30520196Y-4173773D01*
X30514235Y-4197571D01*
X30505970Y-4220671D01*
X30495480Y-4242849D01*
X30482867Y-4263893D01*
X30468253Y-4283598D01*
X30451777Y-4301777D01*
X30433598Y-4318253D01*
X30413893Y-4332867D01*
X30392849Y-4345480D01*
X30370671Y-4355970D01*
X30347571Y-4364235D01*
X30323773Y-4370196D01*
X30299504Y-4373796D01*
X30275000Y-4375000D01*
X29525000Y-4375000D01*
X29500496Y-4373796D01*
X29476227Y-4370196D01*
X29452429Y-4364235D01*
X29429329Y-4355970D01*
X29407151Y-4345480D01*
X29386107Y-4332867D01*
X29366402Y-4318253D01*
X29348223Y-4301777D01*
X29331747Y-4283598D01*
X29317133Y-4263893D01*
X29304520Y-4242849D01*
X29294030Y-4220671D01*
X29285765Y-4197571D01*
X29279804Y-4173773D01*
X29276204Y-4149504D01*
X29275000Y-4125000D01*
X29275000Y-2875000D01*
X29276204Y-2850496D01*
X29279804Y-2826227D01*
X29285765Y-2802429D01*
X29294030Y-2779329D01*
X29304520Y-2757151D01*
X29317133Y-2736107D01*
X29331747Y-2716402D01*
X29348223Y-2698223D01*
X29366402Y-2681747D01*
X29386107Y-2667133D01*
X29407151Y-2654520D01*
X29429329Y-2644030D01*
X29452429Y-2635765D01*
X29476227Y-2629804D01*
X29500496Y-2626204D01*
X29525000Y-2625000D01*
X30275000Y-2625000D01*
X30299504Y-2626204D01*
X30299504Y-2626204D01*
G37*
D14*
X29900000Y-3500000D03*
D10*
G36*
X27499504Y-2626204D02*
G01*
X27523773Y-2629804D01*
X27547571Y-2635765D01*
X27570671Y-2644030D01*
X27592849Y-2654520D01*
X27613893Y-2667133D01*
X27633598Y-2681747D01*
X27651777Y-2698223D01*
X27668253Y-2716402D01*
X27682867Y-2736107D01*
X27695480Y-2757151D01*
X27705970Y-2779329D01*
X27714235Y-2802429D01*
X27720196Y-2826227D01*
X27723796Y-2850496D01*
X27725000Y-2875000D01*
X27725000Y-4125000D01*
X27723796Y-4149504D01*
X27720196Y-4173773D01*
X27714235Y-4197571D01*
X27705970Y-4220671D01*
X27695480Y-4242849D01*
X27682867Y-4263893D01*
X27668253Y-4283598D01*
X27651777Y-4301777D01*
X27633598Y-4318253D01*
X27613893Y-4332867D01*
X27592849Y-4345480D01*
X27570671Y-4355970D01*
X27547571Y-4364235D01*
X27523773Y-4370196D01*
X27499504Y-4373796D01*
X27475000Y-4375000D01*
X26725000Y-4375000D01*
X26700496Y-4373796D01*
X26676227Y-4370196D01*
X26652429Y-4364235D01*
X26629329Y-4355970D01*
X26607151Y-4345480D01*
X26586107Y-4332867D01*
X26566402Y-4318253D01*
X26548223Y-4301777D01*
X26531747Y-4283598D01*
X26517133Y-4263893D01*
X26504520Y-4242849D01*
X26494030Y-4220671D01*
X26485765Y-4197571D01*
X26479804Y-4173773D01*
X26476204Y-4149504D01*
X26475000Y-4125000D01*
X26475000Y-2875000D01*
X26476204Y-2850496D01*
X26479804Y-2826227D01*
X26485765Y-2802429D01*
X26494030Y-2779329D01*
X26504520Y-2757151D01*
X26517133Y-2736107D01*
X26531747Y-2716402D01*
X26548223Y-2698223D01*
X26566402Y-2681747D01*
X26586107Y-2667133D01*
X26607151Y-2654520D01*
X26629329Y-2644030D01*
X26652429Y-2635765D01*
X26676227Y-2629804D01*
X26700496Y-2626204D01*
X26725000Y-2625000D01*
X27475000Y-2625000D01*
X27499504Y-2626204D01*
X27499504Y-2626204D01*
G37*
D14*
X27100000Y-3500000D03*
D10*
G36*
X4249504Y-18276204D02*
G01*
X4273773Y-18279804D01*
X4297571Y-18285765D01*
X4320671Y-18294030D01*
X4342849Y-18304520D01*
X4363893Y-18317133D01*
X4383598Y-18331747D01*
X4401777Y-18348223D01*
X4418253Y-18366402D01*
X4432867Y-18386107D01*
X4445480Y-18407151D01*
X4455970Y-18429329D01*
X4464235Y-18452429D01*
X4470196Y-18476227D01*
X4473796Y-18500496D01*
X4475000Y-18525000D01*
X4475000Y-19275000D01*
X4473796Y-19299504D01*
X4470196Y-19323773D01*
X4464235Y-19347571D01*
X4455970Y-19370671D01*
X4445480Y-19392849D01*
X4432867Y-19413893D01*
X4418253Y-19433598D01*
X4401777Y-19451777D01*
X4383598Y-19468253D01*
X4363893Y-19482867D01*
X4342849Y-19495480D01*
X4320671Y-19505970D01*
X4297571Y-19514235D01*
X4273773Y-19520196D01*
X4249504Y-19523796D01*
X4225000Y-19525000D01*
X2975000Y-19525000D01*
X2950496Y-19523796D01*
X2926227Y-19520196D01*
X2902429Y-19514235D01*
X2879329Y-19505970D01*
X2857151Y-19495480D01*
X2836107Y-19482867D01*
X2816402Y-19468253D01*
X2798223Y-19451777D01*
X2781747Y-19433598D01*
X2767133Y-19413893D01*
X2754520Y-19392849D01*
X2744030Y-19370671D01*
X2735765Y-19347571D01*
X2729804Y-19323773D01*
X2726204Y-19299504D01*
X2725000Y-19275000D01*
X2725000Y-18525000D01*
X2726204Y-18500496D01*
X2729804Y-18476227D01*
X2735765Y-18452429D01*
X2744030Y-18429329D01*
X2754520Y-18407151D01*
X2767133Y-18386107D01*
X2781747Y-18366402D01*
X2798223Y-18348223D01*
X2816402Y-18331747D01*
X2836107Y-18317133D01*
X2857151Y-18304520D01*
X2879329Y-18294030D01*
X2902429Y-18285765D01*
X2926227Y-18279804D01*
X2950496Y-18276204D01*
X2975000Y-18275000D01*
X4225000Y-18275000D01*
X4249504Y-18276204D01*
X4249504Y-18276204D01*
G37*
D14*
X3600000Y-18900000D03*
D10*
G36*
X4249504Y-15476204D02*
G01*
X4273773Y-15479804D01*
X4297571Y-15485765D01*
X4320671Y-15494030D01*
X4342849Y-15504520D01*
X4363893Y-15517133D01*
X4383598Y-15531747D01*
X4401777Y-15548223D01*
X4418253Y-15566402D01*
X4432867Y-15586107D01*
X4445480Y-15607151D01*
X4455970Y-15629329D01*
X4464235Y-15652429D01*
X4470196Y-15676227D01*
X4473796Y-15700496D01*
X4475000Y-15725000D01*
X4475000Y-16475000D01*
X4473796Y-16499504D01*
X4470196Y-16523773D01*
X4464235Y-16547571D01*
X4455970Y-16570671D01*
X4445480Y-16592849D01*
X4432867Y-16613893D01*
X4418253Y-16633598D01*
X4401777Y-16651777D01*
X4383598Y-16668253D01*
X4363893Y-16682867D01*
X4342849Y-16695480D01*
X4320671Y-16705970D01*
X4297571Y-16714235D01*
X4273773Y-16720196D01*
X4249504Y-16723796D01*
X4225000Y-16725000D01*
X2975000Y-16725000D01*
X2950496Y-16723796D01*
X2926227Y-16720196D01*
X2902429Y-16714235D01*
X2879329Y-16705970D01*
X2857151Y-16695480D01*
X2836107Y-16682867D01*
X2816402Y-16668253D01*
X2798223Y-16651777D01*
X2781747Y-16633598D01*
X2767133Y-16613893D01*
X2754520Y-16592849D01*
X2744030Y-16570671D01*
X2735765Y-16547571D01*
X2729804Y-16523773D01*
X2726204Y-16499504D01*
X2725000Y-16475000D01*
X2725000Y-15725000D01*
X2726204Y-15700496D01*
X2729804Y-15676227D01*
X2735765Y-15652429D01*
X2744030Y-15629329D01*
X2754520Y-15607151D01*
X2767133Y-15586107D01*
X2781747Y-15566402D01*
X2798223Y-15548223D01*
X2816402Y-15531747D01*
X2836107Y-15517133D01*
X2857151Y-15504520D01*
X2879329Y-15494030D01*
X2902429Y-15485765D01*
X2926227Y-15479804D01*
X2950496Y-15476204D01*
X2975000Y-15475000D01*
X4225000Y-15475000D01*
X4249504Y-15476204D01*
X4249504Y-15476204D01*
G37*
D14*
X3600000Y-16100000D03*
D10*
G36*
X7049504Y-18276204D02*
G01*
X7073773Y-18279804D01*
X7097571Y-18285765D01*
X7120671Y-18294030D01*
X7142849Y-18304520D01*
X7163893Y-18317133D01*
X7183598Y-18331747D01*
X7201777Y-18348223D01*
X7218253Y-18366402D01*
X7232867Y-18386107D01*
X7245480Y-18407151D01*
X7255970Y-18429329D01*
X7264235Y-18452429D01*
X7270196Y-18476227D01*
X7273796Y-18500496D01*
X7275000Y-18525000D01*
X7275000Y-19275000D01*
X7273796Y-19299504D01*
X7270196Y-19323773D01*
X7264235Y-19347571D01*
X7255970Y-19370671D01*
X7245480Y-19392849D01*
X7232867Y-19413893D01*
X7218253Y-19433598D01*
X7201777Y-19451777D01*
X7183598Y-19468253D01*
X7163893Y-19482867D01*
X7142849Y-19495480D01*
X7120671Y-19505970D01*
X7097571Y-19514235D01*
X7073773Y-19520196D01*
X7049504Y-19523796D01*
X7025000Y-19525000D01*
X5775000Y-19525000D01*
X5750496Y-19523796D01*
X5726227Y-19520196D01*
X5702429Y-19514235D01*
X5679329Y-19505970D01*
X5657151Y-19495480D01*
X5636107Y-19482867D01*
X5616402Y-19468253D01*
X5598223Y-19451777D01*
X5581747Y-19433598D01*
X5567133Y-19413893D01*
X5554520Y-19392849D01*
X5544030Y-19370671D01*
X5535765Y-19347571D01*
X5529804Y-19323773D01*
X5526204Y-19299504D01*
X5525000Y-19275000D01*
X5525000Y-18525000D01*
X5526204Y-18500496D01*
X5529804Y-18476227D01*
X5535765Y-18452429D01*
X5544030Y-18429329D01*
X5554520Y-18407151D01*
X5567133Y-18386107D01*
X5581747Y-18366402D01*
X5598223Y-18348223D01*
X5616402Y-18331747D01*
X5636107Y-18317133D01*
X5657151Y-18304520D01*
X5679329Y-18294030D01*
X5702429Y-18285765D01*
X5726227Y-18279804D01*
X5750496Y-18276204D01*
X5775000Y-18275000D01*
X7025000Y-18275000D01*
X7049504Y-18276204D01*
X7049504Y-18276204D01*
G37*
D14*
X6400000Y-18900000D03*
D10*
G36*
X7049504Y-15476204D02*
G01*
X7073773Y-15479804D01*
X7097571Y-15485765D01*
X7120671Y-15494030D01*
X7142849Y-15504520D01*
X7163893Y-15517133D01*
X7183598Y-15531747D01*
X7201777Y-15548223D01*
X7218253Y-15566402D01*
X7232867Y-15586107D01*
X7245480Y-15607151D01*
X7255970Y-15629329D01*
X7264235Y-15652429D01*
X7270196Y-15676227D01*
X7273796Y-15700496D01*
X7275000Y-15725000D01*
X7275000Y-16475000D01*
X7273796Y-16499504D01*
X7270196Y-16523773D01*
X7264235Y-16547571D01*
X7255970Y-16570671D01*
X7245480Y-16592849D01*
X7232867Y-16613893D01*
X7218253Y-16633598D01*
X7201777Y-16651777D01*
X7183598Y-16668253D01*
X7163893Y-16682867D01*
X7142849Y-16695480D01*
X7120671Y-16705970D01*
X7097571Y-16714235D01*
X7073773Y-16720196D01*
X7049504Y-16723796D01*
X7025000Y-16725000D01*
X5775000Y-16725000D01*
X5750496Y-16723796D01*
X5726227Y-16720196D01*
X5702429Y-16714235D01*
X5679329Y-16705970D01*
X5657151Y-16695480D01*
X5636107Y-16682867D01*
X5616402Y-16668253D01*
X5598223Y-16651777D01*
X5581747Y-16633598D01*
X5567133Y-16613893D01*
X5554520Y-16592849D01*
X5544030Y-16570671D01*
X5535765Y-16547571D01*
X5529804Y-16523773D01*
X5526204Y-16499504D01*
X5525000Y-16475000D01*
X5525000Y-15725000D01*
X5526204Y-15700496D01*
X5529804Y-15676227D01*
X5535765Y-15652429D01*
X5544030Y-15629329D01*
X5554520Y-15607151D01*
X5567133Y-15586107D01*
X5581747Y-15566402D01*
X5598223Y-15548223D01*
X5616402Y-15531747D01*
X5636107Y-15517133D01*
X5657151Y-15504520D01*
X5679329Y-15494030D01*
X5702429Y-15485765D01*
X5726227Y-15479804D01*
X5750496Y-15476204D01*
X5775000Y-15475000D01*
X7025000Y-15475000D01*
X7049504Y-15476204D01*
X7049504Y-15476204D01*
G37*
D14*
X6400000Y-16100000D03*
D10*
G36*
X10649504Y-18276204D02*
G01*
X10673773Y-18279804D01*
X10697571Y-18285765D01*
X10720671Y-18294030D01*
X10742849Y-18304520D01*
X10763893Y-18317133D01*
X10783598Y-18331747D01*
X10801777Y-18348223D01*
X10818253Y-18366402D01*
X10832867Y-18386107D01*
X10845480Y-18407151D01*
X10855970Y-18429329D01*
X10864235Y-18452429D01*
X10870196Y-18476227D01*
X10873796Y-18500496D01*
X10875000Y-18525000D01*
X10875000Y-19275000D01*
X10873796Y-19299504D01*
X10870196Y-19323773D01*
X10864235Y-19347571D01*
X10855970Y-19370671D01*
X10845480Y-19392849D01*
X10832867Y-19413893D01*
X10818253Y-19433598D01*
X10801777Y-19451777D01*
X10783598Y-19468253D01*
X10763893Y-19482867D01*
X10742849Y-19495480D01*
X10720671Y-19505970D01*
X10697571Y-19514235D01*
X10673773Y-19520196D01*
X10649504Y-19523796D01*
X10625000Y-19525000D01*
X9375000Y-19525000D01*
X9350496Y-19523796D01*
X9326227Y-19520196D01*
X9302429Y-19514235D01*
X9279329Y-19505970D01*
X9257151Y-19495480D01*
X9236107Y-19482867D01*
X9216402Y-19468253D01*
X9198223Y-19451777D01*
X9181747Y-19433598D01*
X9167133Y-19413893D01*
X9154520Y-19392849D01*
X9144030Y-19370671D01*
X9135765Y-19347571D01*
X9129804Y-19323773D01*
X9126204Y-19299504D01*
X9125000Y-19275000D01*
X9125000Y-18525000D01*
X9126204Y-18500496D01*
X9129804Y-18476227D01*
X9135765Y-18452429D01*
X9144030Y-18429329D01*
X9154520Y-18407151D01*
X9167133Y-18386107D01*
X9181747Y-18366402D01*
X9198223Y-18348223D01*
X9216402Y-18331747D01*
X9236107Y-18317133D01*
X9257151Y-18304520D01*
X9279329Y-18294030D01*
X9302429Y-18285765D01*
X9326227Y-18279804D01*
X9350496Y-18276204D01*
X9375000Y-18275000D01*
X10625000Y-18275000D01*
X10649504Y-18276204D01*
X10649504Y-18276204D01*
G37*
D14*
X10000000Y-18900000D03*
D10*
G36*
X10649504Y-15476204D02*
G01*
X10673773Y-15479804D01*
X10697571Y-15485765D01*
X10720671Y-15494030D01*
X10742849Y-15504520D01*
X10763893Y-15517133D01*
X10783598Y-15531747D01*
X10801777Y-15548223D01*
X10818253Y-15566402D01*
X10832867Y-15586107D01*
X10845480Y-15607151D01*
X10855970Y-15629329D01*
X10864235Y-15652429D01*
X10870196Y-15676227D01*
X10873796Y-15700496D01*
X10875000Y-15725000D01*
X10875000Y-16475000D01*
X10873796Y-16499504D01*
X10870196Y-16523773D01*
X10864235Y-16547571D01*
X10855970Y-16570671D01*
X10845480Y-16592849D01*
X10832867Y-16613893D01*
X10818253Y-16633598D01*
X10801777Y-16651777D01*
X10783598Y-16668253D01*
X10763893Y-16682867D01*
X10742849Y-16695480D01*
X10720671Y-16705970D01*
X10697571Y-16714235D01*
X10673773Y-16720196D01*
X10649504Y-16723796D01*
X10625000Y-16725000D01*
X9375000Y-16725000D01*
X9350496Y-16723796D01*
X9326227Y-16720196D01*
X9302429Y-16714235D01*
X9279329Y-16705970D01*
X9257151Y-16695480D01*
X9236107Y-16682867D01*
X9216402Y-16668253D01*
X9198223Y-16651777D01*
X9181747Y-16633598D01*
X9167133Y-16613893D01*
X9154520Y-16592849D01*
X9144030Y-16570671D01*
X9135765Y-16547571D01*
X9129804Y-16523773D01*
X9126204Y-16499504D01*
X9125000Y-16475000D01*
X9125000Y-15725000D01*
X9126204Y-15700496D01*
X9129804Y-15676227D01*
X9135765Y-15652429D01*
X9144030Y-15629329D01*
X9154520Y-15607151D01*
X9167133Y-15586107D01*
X9181747Y-15566402D01*
X9198223Y-15548223D01*
X9216402Y-15531747D01*
X9236107Y-15517133D01*
X9257151Y-15504520D01*
X9279329Y-15494030D01*
X9302429Y-15485765D01*
X9326227Y-15479804D01*
X9350496Y-15476204D01*
X9375000Y-15475000D01*
X10625000Y-15475000D01*
X10649504Y-15476204D01*
X10649504Y-15476204D01*
G37*
D14*
X10000000Y-16100000D03*
D10*
G36*
X44249504Y-15476204D02*
G01*
X44273773Y-15479804D01*
X44297571Y-15485765D01*
X44320671Y-15494030D01*
X44342849Y-15504520D01*
X44363893Y-15517133D01*
X44383598Y-15531747D01*
X44401777Y-15548223D01*
X44418253Y-15566402D01*
X44432867Y-15586107D01*
X44445480Y-15607151D01*
X44455970Y-15629329D01*
X44464235Y-15652429D01*
X44470196Y-15676227D01*
X44473796Y-15700496D01*
X44475000Y-15725000D01*
X44475000Y-16475000D01*
X44473796Y-16499504D01*
X44470196Y-16523773D01*
X44464235Y-16547571D01*
X44455970Y-16570671D01*
X44445480Y-16592849D01*
X44432867Y-16613893D01*
X44418253Y-16633598D01*
X44401777Y-16651777D01*
X44383598Y-16668253D01*
X44363893Y-16682867D01*
X44342849Y-16695480D01*
X44320671Y-16705970D01*
X44297571Y-16714235D01*
X44273773Y-16720196D01*
X44249504Y-16723796D01*
X44225000Y-16725000D01*
X42975000Y-16725000D01*
X42950496Y-16723796D01*
X42926227Y-16720196D01*
X42902429Y-16714235D01*
X42879329Y-16705970D01*
X42857151Y-16695480D01*
X42836107Y-16682867D01*
X42816402Y-16668253D01*
X42798223Y-16651777D01*
X42781747Y-16633598D01*
X42767133Y-16613893D01*
X42754520Y-16592849D01*
X42744030Y-16570671D01*
X42735765Y-16547571D01*
X42729804Y-16523773D01*
X42726204Y-16499504D01*
X42725000Y-16475000D01*
X42725000Y-15725000D01*
X42726204Y-15700496D01*
X42729804Y-15676227D01*
X42735765Y-15652429D01*
X42744030Y-15629329D01*
X42754520Y-15607151D01*
X42767133Y-15586107D01*
X42781747Y-15566402D01*
X42798223Y-15548223D01*
X42816402Y-15531747D01*
X42836107Y-15517133D01*
X42857151Y-15504520D01*
X42879329Y-15494030D01*
X42902429Y-15485765D01*
X42926227Y-15479804D01*
X42950496Y-15476204D01*
X42975000Y-15475000D01*
X44225000Y-15475000D01*
X44249504Y-15476204D01*
X44249504Y-15476204D01*
G37*
D14*
X43600000Y-16100000D03*
D10*
G36*
X44249504Y-18276204D02*
G01*
X44273773Y-18279804D01*
X44297571Y-18285765D01*
X44320671Y-18294030D01*
X44342849Y-18304520D01*
X44363893Y-18317133D01*
X44383598Y-18331747D01*
X44401777Y-18348223D01*
X44418253Y-18366402D01*
X44432867Y-18386107D01*
X44445480Y-18407151D01*
X44455970Y-18429329D01*
X44464235Y-18452429D01*
X44470196Y-18476227D01*
X44473796Y-18500496D01*
X44475000Y-18525000D01*
X44475000Y-19275000D01*
X44473796Y-19299504D01*
X44470196Y-19323773D01*
X44464235Y-19347571D01*
X44455970Y-19370671D01*
X44445480Y-19392849D01*
X44432867Y-19413893D01*
X44418253Y-19433598D01*
X44401777Y-19451777D01*
X44383598Y-19468253D01*
X44363893Y-19482867D01*
X44342849Y-19495480D01*
X44320671Y-19505970D01*
X44297571Y-19514235D01*
X44273773Y-19520196D01*
X44249504Y-19523796D01*
X44225000Y-19525000D01*
X42975000Y-19525000D01*
X42950496Y-19523796D01*
X42926227Y-19520196D01*
X42902429Y-19514235D01*
X42879329Y-19505970D01*
X42857151Y-19495480D01*
X42836107Y-19482867D01*
X42816402Y-19468253D01*
X42798223Y-19451777D01*
X42781747Y-19433598D01*
X42767133Y-19413893D01*
X42754520Y-19392849D01*
X42744030Y-19370671D01*
X42735765Y-19347571D01*
X42729804Y-19323773D01*
X42726204Y-19299504D01*
X42725000Y-19275000D01*
X42725000Y-18525000D01*
X42726204Y-18500496D01*
X42729804Y-18476227D01*
X42735765Y-18452429D01*
X42744030Y-18429329D01*
X42754520Y-18407151D01*
X42767133Y-18386107D01*
X42781747Y-18366402D01*
X42798223Y-18348223D01*
X42816402Y-18331747D01*
X42836107Y-18317133D01*
X42857151Y-18304520D01*
X42879329Y-18294030D01*
X42902429Y-18285765D01*
X42926227Y-18279804D01*
X42950496Y-18276204D01*
X42975000Y-18275000D01*
X44225000Y-18275000D01*
X44249504Y-18276204D01*
X44249504Y-18276204D01*
G37*
D14*
X43600000Y-18900000D03*
D10*
G36*
X47049504Y-18276204D02*
G01*
X47073773Y-18279804D01*
X47097571Y-18285765D01*
X47120671Y-18294030D01*
X47142849Y-18304520D01*
X47163893Y-18317133D01*
X47183598Y-18331747D01*
X47201777Y-18348223D01*
X47218253Y-18366402D01*
X47232867Y-18386107D01*
X47245480Y-18407151D01*
X47255970Y-18429329D01*
X47264235Y-18452429D01*
X47270196Y-18476227D01*
X47273796Y-18500496D01*
X47275000Y-18525000D01*
X47275000Y-19275000D01*
X47273796Y-19299504D01*
X47270196Y-19323773D01*
X47264235Y-19347571D01*
X47255970Y-19370671D01*
X47245480Y-19392849D01*
X47232867Y-19413893D01*
X47218253Y-19433598D01*
X47201777Y-19451777D01*
X47183598Y-19468253D01*
X47163893Y-19482867D01*
X47142849Y-19495480D01*
X47120671Y-19505970D01*
X47097571Y-19514235D01*
X47073773Y-19520196D01*
X47049504Y-19523796D01*
X47025000Y-19525000D01*
X45775000Y-19525000D01*
X45750496Y-19523796D01*
X45726227Y-19520196D01*
X45702429Y-19514235D01*
X45679329Y-19505970D01*
X45657151Y-19495480D01*
X45636107Y-19482867D01*
X45616402Y-19468253D01*
X45598223Y-19451777D01*
X45581747Y-19433598D01*
X45567133Y-19413893D01*
X45554520Y-19392849D01*
X45544030Y-19370671D01*
X45535765Y-19347571D01*
X45529804Y-19323773D01*
X45526204Y-19299504D01*
X45525000Y-19275000D01*
X45525000Y-18525000D01*
X45526204Y-18500496D01*
X45529804Y-18476227D01*
X45535765Y-18452429D01*
X45544030Y-18429329D01*
X45554520Y-18407151D01*
X45567133Y-18386107D01*
X45581747Y-18366402D01*
X45598223Y-18348223D01*
X45616402Y-18331747D01*
X45636107Y-18317133D01*
X45657151Y-18304520D01*
X45679329Y-18294030D01*
X45702429Y-18285765D01*
X45726227Y-18279804D01*
X45750496Y-18276204D01*
X45775000Y-18275000D01*
X47025000Y-18275000D01*
X47049504Y-18276204D01*
X47049504Y-18276204D01*
G37*
D14*
X46400000Y-18900000D03*
D10*
G36*
X47049504Y-15476204D02*
G01*
X47073773Y-15479804D01*
X47097571Y-15485765D01*
X47120671Y-15494030D01*
X47142849Y-15504520D01*
X47163893Y-15517133D01*
X47183598Y-15531747D01*
X47201777Y-15548223D01*
X47218253Y-15566402D01*
X47232867Y-15586107D01*
X47245480Y-15607151D01*
X47255970Y-15629329D01*
X47264235Y-15652429D01*
X47270196Y-15676227D01*
X47273796Y-15700496D01*
X47275000Y-15725000D01*
X47275000Y-16475000D01*
X47273796Y-16499504D01*
X47270196Y-16523773D01*
X47264235Y-16547571D01*
X47255970Y-16570671D01*
X47245480Y-16592849D01*
X47232867Y-16613893D01*
X47218253Y-16633598D01*
X47201777Y-16651777D01*
X47183598Y-16668253D01*
X47163893Y-16682867D01*
X47142849Y-16695480D01*
X47120671Y-16705970D01*
X47097571Y-16714235D01*
X47073773Y-16720196D01*
X47049504Y-16723796D01*
X47025000Y-16725000D01*
X45775000Y-16725000D01*
X45750496Y-16723796D01*
X45726227Y-16720196D01*
X45702429Y-16714235D01*
X45679329Y-16705970D01*
X45657151Y-16695480D01*
X45636107Y-16682867D01*
X45616402Y-16668253D01*
X45598223Y-16651777D01*
X45581747Y-16633598D01*
X45567133Y-16613893D01*
X45554520Y-16592849D01*
X45544030Y-16570671D01*
X45535765Y-16547571D01*
X45529804Y-16523773D01*
X45526204Y-16499504D01*
X45525000Y-16475000D01*
X45525000Y-15725000D01*
X45526204Y-15700496D01*
X45529804Y-15676227D01*
X45535765Y-15652429D01*
X45544030Y-15629329D01*
X45554520Y-15607151D01*
X45567133Y-15586107D01*
X45581747Y-15566402D01*
X45598223Y-15548223D01*
X45616402Y-15531747D01*
X45636107Y-15517133D01*
X45657151Y-15504520D01*
X45679329Y-15494030D01*
X45702429Y-15485765D01*
X45726227Y-15479804D01*
X45750496Y-15476204D01*
X45775000Y-15475000D01*
X47025000Y-15475000D01*
X47049504Y-15476204D01*
X47049504Y-15476204D01*
G37*
D14*
X46400000Y-16100000D03*
D10*
G36*
X3542642Y-22201174D02*
G01*
X3566303Y-22204684D01*
X3589507Y-22210496D01*
X3612029Y-22218554D01*
X3633653Y-22228782D01*
X3654170Y-22241079D01*
X3673383Y-22255329D01*
X3691107Y-22271393D01*
X3707171Y-22289117D01*
X3721421Y-22308330D01*
X3733718Y-22328847D01*
X3743946Y-22350471D01*
X3752004Y-22372993D01*
X3757816Y-22396197D01*
X3761326Y-22419858D01*
X3762500Y-22443750D01*
X3762500Y-23356250D01*
X3761326Y-23380142D01*
X3757816Y-23403803D01*
X3752004Y-23427007D01*
X3743946Y-23449529D01*
X3733718Y-23471153D01*
X3721421Y-23491670D01*
X3707171Y-23510883D01*
X3691107Y-23528607D01*
X3673383Y-23544671D01*
X3654170Y-23558921D01*
X3633653Y-23571218D01*
X3612029Y-23581446D01*
X3589507Y-23589504D01*
X3566303Y-23595316D01*
X3542642Y-23598826D01*
X3518750Y-23600000D01*
X3031250Y-23600000D01*
X3007358Y-23598826D01*
X2983697Y-23595316D01*
X2960493Y-23589504D01*
X2937971Y-23581446D01*
X2916347Y-23571218D01*
X2895830Y-23558921D01*
X2876617Y-23544671D01*
X2858893Y-23528607D01*
X2842829Y-23510883D01*
X2828579Y-23491670D01*
X2816282Y-23471153D01*
X2806054Y-23449529D01*
X2797996Y-23427007D01*
X2792184Y-23403803D01*
X2788674Y-23380142D01*
X2787500Y-23356250D01*
X2787500Y-22443750D01*
X2788674Y-22419858D01*
X2792184Y-22396197D01*
X2797996Y-22372993D01*
X2806054Y-22350471D01*
X2816282Y-22328847D01*
X2828579Y-22308330D01*
X2842829Y-22289117D01*
X2858893Y-22271393D01*
X2876617Y-22255329D01*
X2895830Y-22241079D01*
X2916347Y-22228782D01*
X2937971Y-22218554D01*
X2960493Y-22210496D01*
X2983697Y-22204684D01*
X3007358Y-22201174D01*
X3031250Y-22200000D01*
X3518750Y-22200000D01*
X3542642Y-22201174D01*
X3542642Y-22201174D01*
G37*
D11*
X3275000Y-22900000D03*
D10*
G36*
X1667642Y-22201174D02*
G01*
X1691303Y-22204684D01*
X1714507Y-22210496D01*
X1737029Y-22218554D01*
X1758653Y-22228782D01*
X1779170Y-22241079D01*
X1798383Y-22255329D01*
X1816107Y-22271393D01*
X1832171Y-22289117D01*
X1846421Y-22308330D01*
X1858718Y-22328847D01*
X1868946Y-22350471D01*
X1877004Y-22372993D01*
X1882816Y-22396197D01*
X1886326Y-22419858D01*
X1887500Y-22443750D01*
X1887500Y-23356250D01*
X1886326Y-23380142D01*
X1882816Y-23403803D01*
X1877004Y-23427007D01*
X1868946Y-23449529D01*
X1858718Y-23471153D01*
X1846421Y-23491670D01*
X1832171Y-23510883D01*
X1816107Y-23528607D01*
X1798383Y-23544671D01*
X1779170Y-23558921D01*
X1758653Y-23571218D01*
X1737029Y-23581446D01*
X1714507Y-23589504D01*
X1691303Y-23595316D01*
X1667642Y-23598826D01*
X1643750Y-23600000D01*
X1156250Y-23600000D01*
X1132358Y-23598826D01*
X1108697Y-23595316D01*
X1085493Y-23589504D01*
X1062971Y-23581446D01*
X1041347Y-23571218D01*
X1020830Y-23558921D01*
X1001617Y-23544671D01*
X983893Y-23528607D01*
X967829Y-23510883D01*
X953579Y-23491670D01*
X941282Y-23471153D01*
X931054Y-23449529D01*
X922996Y-23427007D01*
X917184Y-23403803D01*
X913674Y-23380142D01*
X912500Y-23356250D01*
X912500Y-22443750D01*
X913674Y-22419858D01*
X917184Y-22396197D01*
X922996Y-22372993D01*
X931054Y-22350471D01*
X941282Y-22328847D01*
X953579Y-22308330D01*
X967829Y-22289117D01*
X983893Y-22271393D01*
X1001617Y-22255329D01*
X1020830Y-22241079D01*
X1041347Y-22228782D01*
X1062971Y-22218554D01*
X1085493Y-22210496D01*
X1108697Y-22204684D01*
X1132358Y-22201174D01*
X1156250Y-22200000D01*
X1643750Y-22200000D01*
X1667642Y-22201174D01*
X1667642Y-22201174D01*
G37*
D11*
X1400000Y-22900000D03*
D18*
X4060000Y-27140000D03*
X4060000Y-27790000D03*
X4060000Y-28440000D03*
X4060000Y-29090000D03*
X4060000Y-29740000D03*
D19*
X3700000Y-25977500D03*
X3700000Y-30902500D03*
D20*
X1400000Y-25530000D03*
X1400000Y-31350000D03*
D21*
X1400000Y-27600000D03*
X1400000Y-29280000D03*
D10*
G36*
X7649504Y-23876204D02*
G01*
X7673773Y-23879804D01*
X7697571Y-23885765D01*
X7720671Y-23894030D01*
X7742849Y-23904520D01*
X7763893Y-23917133D01*
X7783598Y-23931747D01*
X7801777Y-23948223D01*
X7818253Y-23966402D01*
X7832867Y-23986107D01*
X7845480Y-24007151D01*
X7855970Y-24029329D01*
X7864235Y-24052429D01*
X7870196Y-24076227D01*
X7873796Y-24100496D01*
X7875000Y-24125000D01*
X7875000Y-24875000D01*
X7873796Y-24899504D01*
X7870196Y-24923773D01*
X7864235Y-24947571D01*
X7855970Y-24970671D01*
X7845480Y-24992849D01*
X7832867Y-25013893D01*
X7818253Y-25033598D01*
X7801777Y-25051777D01*
X7783598Y-25068253D01*
X7763893Y-25082867D01*
X7742849Y-25095480D01*
X7720671Y-25105970D01*
X7697571Y-25114235D01*
X7673773Y-25120196D01*
X7649504Y-25123796D01*
X7625000Y-25125000D01*
X6375000Y-25125000D01*
X6350496Y-25123796D01*
X6326227Y-25120196D01*
X6302429Y-25114235D01*
X6279329Y-25105970D01*
X6257151Y-25095480D01*
X6236107Y-25082867D01*
X6216402Y-25068253D01*
X6198223Y-25051777D01*
X6181747Y-25033598D01*
X6167133Y-25013893D01*
X6154520Y-24992849D01*
X6144030Y-24970671D01*
X6135765Y-24947571D01*
X6129804Y-24923773D01*
X6126204Y-24899504D01*
X6125000Y-24875000D01*
X6125000Y-24125000D01*
X6126204Y-24100496D01*
X6129804Y-24076227D01*
X6135765Y-24052429D01*
X6144030Y-24029329D01*
X6154520Y-24007151D01*
X6167133Y-23986107D01*
X6181747Y-23966402D01*
X6198223Y-23948223D01*
X6216402Y-23931747D01*
X6236107Y-23917133D01*
X6257151Y-23904520D01*
X6279329Y-23894030D01*
X6302429Y-23885765D01*
X6326227Y-23879804D01*
X6350496Y-23876204D01*
X6375000Y-23875000D01*
X7625000Y-23875000D01*
X7649504Y-23876204D01*
X7649504Y-23876204D01*
G37*
D14*
X7000000Y-24500000D03*
D10*
G36*
X7649504Y-26676204D02*
G01*
X7673773Y-26679804D01*
X7697571Y-26685765D01*
X7720671Y-26694030D01*
X7742849Y-26704520D01*
X7763893Y-26717133D01*
X7783598Y-26731747D01*
X7801777Y-26748223D01*
X7818253Y-26766402D01*
X7832867Y-26786107D01*
X7845480Y-26807151D01*
X7855970Y-26829329D01*
X7864235Y-26852429D01*
X7870196Y-26876227D01*
X7873796Y-26900496D01*
X7875000Y-26925000D01*
X7875000Y-27675000D01*
X7873796Y-27699504D01*
X7870196Y-27723773D01*
X7864235Y-27747571D01*
X7855970Y-27770671D01*
X7845480Y-27792849D01*
X7832867Y-27813893D01*
X7818253Y-27833598D01*
X7801777Y-27851777D01*
X7783598Y-27868253D01*
X7763893Y-27882867D01*
X7742849Y-27895480D01*
X7720671Y-27905970D01*
X7697571Y-27914235D01*
X7673773Y-27920196D01*
X7649504Y-27923796D01*
X7625000Y-27925000D01*
X6375000Y-27925000D01*
X6350496Y-27923796D01*
X6326227Y-27920196D01*
X6302429Y-27914235D01*
X6279329Y-27905970D01*
X6257151Y-27895480D01*
X6236107Y-27882867D01*
X6216402Y-27868253D01*
X6198223Y-27851777D01*
X6181747Y-27833598D01*
X6167133Y-27813893D01*
X6154520Y-27792849D01*
X6144030Y-27770671D01*
X6135765Y-27747571D01*
X6129804Y-27723773D01*
X6126204Y-27699504D01*
X6125000Y-27675000D01*
X6125000Y-26925000D01*
X6126204Y-26900496D01*
X6129804Y-26876227D01*
X6135765Y-26852429D01*
X6144030Y-26829329D01*
X6154520Y-26807151D01*
X6167133Y-26786107D01*
X6181747Y-26766402D01*
X6198223Y-26748223D01*
X6216402Y-26731747D01*
X6236107Y-26717133D01*
X6257151Y-26704520D01*
X6279329Y-26694030D01*
X6302429Y-26685765D01*
X6326227Y-26679804D01*
X6350496Y-26676204D01*
X6375000Y-26675000D01*
X7625000Y-26675000D01*
X7649504Y-26676204D01*
X7649504Y-26676204D01*
G37*
D14*
X7000000Y-27300000D03*
D10*
G36*
X7649504Y-31276204D02*
G01*
X7673773Y-31279804D01*
X7697571Y-31285765D01*
X7720671Y-31294030D01*
X7742849Y-31304520D01*
X7763893Y-31317133D01*
X7783598Y-31331747D01*
X7801777Y-31348223D01*
X7818253Y-31366402D01*
X7832867Y-31386107D01*
X7845480Y-31407151D01*
X7855970Y-31429329D01*
X7864235Y-31452429D01*
X7870196Y-31476227D01*
X7873796Y-31500496D01*
X7875000Y-31525000D01*
X7875000Y-32275000D01*
X7873796Y-32299504D01*
X7870196Y-32323773D01*
X7864235Y-32347571D01*
X7855970Y-32370671D01*
X7845480Y-32392849D01*
X7832867Y-32413893D01*
X7818253Y-32433598D01*
X7801777Y-32451777D01*
X7783598Y-32468253D01*
X7763893Y-32482867D01*
X7742849Y-32495480D01*
X7720671Y-32505970D01*
X7697571Y-32514235D01*
X7673773Y-32520196D01*
X7649504Y-32523796D01*
X7625000Y-32525000D01*
X6375000Y-32525000D01*
X6350496Y-32523796D01*
X6326227Y-32520196D01*
X6302429Y-32514235D01*
X6279329Y-32505970D01*
X6257151Y-32495480D01*
X6236107Y-32482867D01*
X6216402Y-32468253D01*
X6198223Y-32451777D01*
X6181747Y-32433598D01*
X6167133Y-32413893D01*
X6154520Y-32392849D01*
X6144030Y-32370671D01*
X6135765Y-32347571D01*
X6129804Y-32323773D01*
X6126204Y-32299504D01*
X6125000Y-32275000D01*
X6125000Y-31525000D01*
X6126204Y-31500496D01*
X6129804Y-31476227D01*
X6135765Y-31452429D01*
X6144030Y-31429329D01*
X6154520Y-31407151D01*
X6167133Y-31386107D01*
X6181747Y-31366402D01*
X6198223Y-31348223D01*
X6216402Y-31331747D01*
X6236107Y-31317133D01*
X6257151Y-31304520D01*
X6279329Y-31294030D01*
X6302429Y-31285765D01*
X6326227Y-31279804D01*
X6350496Y-31276204D01*
X6375000Y-31275000D01*
X7625000Y-31275000D01*
X7649504Y-31276204D01*
X7649504Y-31276204D01*
G37*
D14*
X7000000Y-31900000D03*
D10*
G36*
X7649504Y-28476204D02*
G01*
X7673773Y-28479804D01*
X7697571Y-28485765D01*
X7720671Y-28494030D01*
X7742849Y-28504520D01*
X7763893Y-28517133D01*
X7783598Y-28531747D01*
X7801777Y-28548223D01*
X7818253Y-28566402D01*
X7832867Y-28586107D01*
X7845480Y-28607151D01*
X7855970Y-28629329D01*
X7864235Y-28652429D01*
X7870196Y-28676227D01*
X7873796Y-28700496D01*
X7875000Y-28725000D01*
X7875000Y-29475000D01*
X7873796Y-29499504D01*
X7870196Y-29523773D01*
X7864235Y-29547571D01*
X7855970Y-29570671D01*
X7845480Y-29592849D01*
X7832867Y-29613893D01*
X7818253Y-29633598D01*
X7801777Y-29651777D01*
X7783598Y-29668253D01*
X7763893Y-29682867D01*
X7742849Y-29695480D01*
X7720671Y-29705970D01*
X7697571Y-29714235D01*
X7673773Y-29720196D01*
X7649504Y-29723796D01*
X7625000Y-29725000D01*
X6375000Y-29725000D01*
X6350496Y-29723796D01*
X6326227Y-29720196D01*
X6302429Y-29714235D01*
X6279329Y-29705970D01*
X6257151Y-29695480D01*
X6236107Y-29682867D01*
X6216402Y-29668253D01*
X6198223Y-29651777D01*
X6181747Y-29633598D01*
X6167133Y-29613893D01*
X6154520Y-29592849D01*
X6144030Y-29570671D01*
X6135765Y-29547571D01*
X6129804Y-29523773D01*
X6126204Y-29499504D01*
X6125000Y-29475000D01*
X6125000Y-28725000D01*
X6126204Y-28700496D01*
X6129804Y-28676227D01*
X6135765Y-28652429D01*
X6144030Y-28629329D01*
X6154520Y-28607151D01*
X6167133Y-28586107D01*
X6181747Y-28566402D01*
X6198223Y-28548223D01*
X6216402Y-28531747D01*
X6236107Y-28517133D01*
X6257151Y-28504520D01*
X6279329Y-28494030D01*
X6302429Y-28485765D01*
X6326227Y-28479804D01*
X6350496Y-28476204D01*
X6375000Y-28475000D01*
X7625000Y-28475000D01*
X7649504Y-28476204D01*
X7649504Y-28476204D01*
G37*
D14*
X7000000Y-29100000D03*
D22*
X11012000Y-26316000D03*
X11012000Y-27116000D03*
X11012000Y-27916000D03*
X11012000Y-28716000D03*
X11012000Y-29516000D03*
X11012000Y-30316000D03*
X11012000Y-31116000D03*
X11012000Y-31916000D03*
X11012000Y-32716000D03*
X11012000Y-33516000D03*
X11012000Y-34316000D03*
D23*
X12712000Y-36016000D03*
X13512000Y-36016000D03*
X14312000Y-36016000D03*
X15112000Y-36016000D03*
X15912000Y-36016000D03*
X16712000Y-36016000D03*
X17512000Y-36016000D03*
X18312000Y-36016000D03*
X19112000Y-36016000D03*
X19912000Y-36016000D03*
X20712000Y-36016000D03*
D22*
X22412000Y-34316000D03*
X22412000Y-33516000D03*
X22412000Y-32716000D03*
X22412000Y-31916000D03*
X22412000Y-31116000D03*
X22412000Y-30316000D03*
X22412000Y-29516000D03*
X22412000Y-28716000D03*
X22412000Y-27916000D03*
X22412000Y-27116000D03*
X22412000Y-26316000D03*
D23*
X20712000Y-24616000D03*
X19912000Y-24616000D03*
X19112000Y-24616000D03*
X18312000Y-24616000D03*
X17512000Y-24616000D03*
X16712000Y-24616000D03*
X15912000Y-24616000D03*
X15112000Y-24616000D03*
X14312000Y-24616000D03*
X13512000Y-24616000D03*
X12712000Y-24616000D03*
D24*
X18050000Y-41375000D03*
X19450000Y-41375000D03*
X19450000Y-40275000D03*
X18050000Y-40275000D03*
D10*
G36*
X7676779Y-34070144D02*
G01*
X7699834Y-34073563D01*
X7722443Y-34079227D01*
X7744387Y-34087079D01*
X7765457Y-34097044D01*
X7785448Y-34109026D01*
X7804168Y-34122910D01*
X7821438Y-34138562D01*
X7837090Y-34155832D01*
X7850974Y-34174552D01*
X7862956Y-34194543D01*
X7872921Y-34215613D01*
X7880773Y-34237557D01*
X7886437Y-34260166D01*
X7889856Y-34283221D01*
X7891000Y-34306500D01*
X7891000Y-34781500D01*
X7889856Y-34804779D01*
X7886437Y-34827834D01*
X7880773Y-34850443D01*
X7872921Y-34872387D01*
X7862956Y-34893457D01*
X7850974Y-34913448D01*
X7837090Y-34932168D01*
X7821438Y-34949438D01*
X7804168Y-34965090D01*
X7785448Y-34978974D01*
X7765457Y-34990956D01*
X7744387Y-35000921D01*
X7722443Y-35008773D01*
X7699834Y-35014437D01*
X7676779Y-35017856D01*
X7653500Y-35019000D01*
X7078500Y-35019000D01*
X7055221Y-35017856D01*
X7032166Y-35014437D01*
X7009557Y-35008773D01*
X6987613Y-35000921D01*
X6966543Y-34990956D01*
X6946552Y-34978974D01*
X6927832Y-34965090D01*
X6910562Y-34949438D01*
X6894910Y-34932168D01*
X6881026Y-34913448D01*
X6869044Y-34893457D01*
X6859079Y-34872387D01*
X6851227Y-34850443D01*
X6845563Y-34827834D01*
X6842144Y-34804779D01*
X6841000Y-34781500D01*
X6841000Y-34306500D01*
X6842144Y-34283221D01*
X6845563Y-34260166D01*
X6851227Y-34237557D01*
X6859079Y-34215613D01*
X6869044Y-34194543D01*
X6881026Y-34174552D01*
X6894910Y-34155832D01*
X6910562Y-34138562D01*
X6927832Y-34122910D01*
X6946552Y-34109026D01*
X6966543Y-34097044D01*
X6987613Y-34087079D01*
X7009557Y-34079227D01*
X7032166Y-34073563D01*
X7055221Y-34070144D01*
X7078500Y-34069000D01*
X7653500Y-34069000D01*
X7676779Y-34070144D01*
X7676779Y-34070144D01*
G37*
D25*
X7366000Y-34544000D03*
D10*
G36*
X5926779Y-34070144D02*
G01*
X5949834Y-34073563D01*
X5972443Y-34079227D01*
X5994387Y-34087079D01*
X6015457Y-34097044D01*
X6035448Y-34109026D01*
X6054168Y-34122910D01*
X6071438Y-34138562D01*
X6087090Y-34155832D01*
X6100974Y-34174552D01*
X6112956Y-34194543D01*
X6122921Y-34215613D01*
X6130773Y-34237557D01*
X6136437Y-34260166D01*
X6139856Y-34283221D01*
X6141000Y-34306500D01*
X6141000Y-34781500D01*
X6139856Y-34804779D01*
X6136437Y-34827834D01*
X6130773Y-34850443D01*
X6122921Y-34872387D01*
X6112956Y-34893457D01*
X6100974Y-34913448D01*
X6087090Y-34932168D01*
X6071438Y-34949438D01*
X6054168Y-34965090D01*
X6035448Y-34978974D01*
X6015457Y-34990956D01*
X5994387Y-35000921D01*
X5972443Y-35008773D01*
X5949834Y-35014437D01*
X5926779Y-35017856D01*
X5903500Y-35019000D01*
X5328500Y-35019000D01*
X5305221Y-35017856D01*
X5282166Y-35014437D01*
X5259557Y-35008773D01*
X5237613Y-35000921D01*
X5216543Y-34990956D01*
X5196552Y-34978974D01*
X5177832Y-34965090D01*
X5160562Y-34949438D01*
X5144910Y-34932168D01*
X5131026Y-34913448D01*
X5119044Y-34893457D01*
X5109079Y-34872387D01*
X5101227Y-34850443D01*
X5095563Y-34827834D01*
X5092144Y-34804779D01*
X5091000Y-34781500D01*
X5091000Y-34306500D01*
X5092144Y-34283221D01*
X5095563Y-34260166D01*
X5101227Y-34237557D01*
X5109079Y-34215613D01*
X5119044Y-34194543D01*
X5131026Y-34174552D01*
X5144910Y-34155832D01*
X5160562Y-34138562D01*
X5177832Y-34122910D01*
X5196552Y-34109026D01*
X5216543Y-34097044D01*
X5237613Y-34087079D01*
X5259557Y-34079227D01*
X5282166Y-34073563D01*
X5305221Y-34070144D01*
X5328500Y-34069000D01*
X5903500Y-34069000D01*
X5926779Y-34070144D01*
X5926779Y-34070144D01*
G37*
D25*
X5616000Y-34544000D03*
D26*
X2975000Y-35800000D03*
D27*
X2975000Y-38340000D03*
X2975000Y-40880000D03*
X2975000Y-43420000D03*
X2975000Y-45960000D03*
X2975000Y-48500000D03*
D28*
X34500000Y-19650000D03*
X34500000Y-23350000D03*
X40500000Y-19650000D03*
X40500000Y-23350000D03*
X32875000Y-23350000D03*
X32875000Y-19650000D03*
X26875000Y-23350000D03*
X26875000Y-19650000D03*
X13150000Y-48500000D03*
X13150000Y-44800000D03*
X7150000Y-48500000D03*
X7150000Y-44800000D03*
D29*
X34476400Y-11540000D02*
X34476400Y-9123600D01*
X30602000Y-15414400D02*
X34476400Y-11540000D01*
X28500000Y-8400000D02*
X28500000Y-14727100D01*
X28500000Y-14727100D02*
X29187300Y-15414400D01*
X24026400Y-6038300D02*
X23589300Y-5601200D01*
X27100000Y-7000000D02*
X27100000Y-3500000D01*
X29187300Y-15414400D02*
X30602000Y-15414400D01*
X24026400Y-7000000D02*
X27100000Y-7000000D01*
X21498800Y-5601200D02*
X20100000Y-7000000D01*
X23589300Y-5601200D02*
X21498800Y-5601200D01*
X24026400Y-7000000D02*
X24026400Y-6038300D01*
X6698700Y-7000000D02*
X10600000Y-7000000D01*
X10600000Y-7000000D02*
X10600000Y-3500000D01*
X3600000Y-14000000D02*
X3600000Y-10500000D01*
X27100000Y-7000000D02*
X28500000Y-8400000D01*
X34476400Y-9123600D02*
X36600000Y-7000000D01*
X3600000Y-10098700D02*
X6698700Y-7000000D01*
X3600000Y-10500000D02*
X3600000Y-10098700D01*
D30*
X3600000Y-14000000D02*
X3600000Y-16100000D01*
D29*
X12036800Y-2063200D02*
X14024600Y-2063200D01*
X22932400Y-9063000D02*
X24026400Y-7969000D01*
X14024600Y-2063200D02*
X16608000Y-4646600D01*
X22275900Y-9063000D02*
X22932400Y-9063000D01*
X10600000Y-3500000D02*
X12036800Y-2063200D01*
X20830500Y-15403200D02*
X21500000Y-14733700D01*
X16608000Y-4646600D02*
X16608000Y-12594900D01*
X16608000Y-12594900D02*
X19416300Y-15403200D01*
X19416300Y-15403200D02*
X20830500Y-15403200D01*
X21500000Y-14733700D02*
X21500000Y-9838900D01*
X21500000Y-9838900D02*
X22275900Y-9063000D01*
X24026400Y-7969000D02*
X24026400Y-7000000D01*
X10600000Y-10500000D02*
X10600000Y-14000000D01*
X22900000Y-14000000D02*
X22900000Y-10500000D01*
X22900000Y-10500000D02*
X27100000Y-10500000D01*
X27100000Y-10500000D02*
X27100000Y-14000000D01*
X10600000Y-10500000D02*
X6400000Y-10500000D01*
X6400000Y-14000000D02*
X6400000Y-10500000D01*
D30*
X6400000Y-14000000D02*
X6400000Y-16100000D01*
D29*
X22900000Y-14465600D02*
X22900000Y-14000000D01*
X10600000Y-14000000D02*
X12830500Y-16230500D01*
X12830500Y-16230500D02*
X21135100Y-16230500D01*
X21135100Y-16230500D02*
X22900000Y-14465600D01*
X38000000Y-9100000D02*
X36600000Y-10500000D01*
X41850000Y-5250000D02*
X43600000Y-3500000D01*
X43600000Y-7000000D02*
X41850000Y-5250000D01*
X41850000Y-5250000D02*
X39050900Y-5250000D01*
X13400000Y-3500000D02*
X13400000Y-7000000D01*
X13400000Y-10500000D02*
X13400000Y-14000000D01*
X11650000Y-8750000D02*
X13400000Y-7000000D01*
X11650000Y-8750000D02*
X13400000Y-10500000D01*
X36600000Y-10500000D02*
X36600000Y-14000000D01*
X38000000Y-6300900D02*
X38000000Y-9100000D01*
X39050900Y-5250000D02*
X38000000Y-6300900D01*
X6080600Y-8750000D02*
X11650000Y-8750000D01*
X10000000Y-16100000D02*
X8874990Y-17225010D01*
X4975010Y-9855590D02*
X6080600Y-8750000D01*
X8874990Y-17225010D02*
X5300010Y-17225010D01*
X5300010Y-17225010D02*
X4975010Y-16900010D01*
X4975010Y-16900010D02*
X4975010Y-9855590D01*
D30*
X10695710Y-16795710D02*
X10000000Y-16100000D01*
X22338046Y-17549989D02*
X11449989Y-17549989D01*
X11449989Y-17549989D02*
X10695710Y-16795710D01*
X23638046Y-16249989D02*
X22338046Y-17549989D01*
X34350011Y-16249989D02*
X23638046Y-16249989D01*
X36600000Y-14000000D02*
X34350011Y-16249989D01*
D29*
X39400000Y-7000000D02*
X39400000Y-10500000D01*
X43600000Y-10500000D02*
X39400000Y-10500000D01*
X20100000Y-14000000D02*
X20100000Y-10500000D01*
X39400000Y-14000000D02*
X39400000Y-10500000D01*
X43600000Y-14000000D02*
X43600000Y-10500000D01*
X20100000Y-9063100D02*
X20100000Y-10500000D01*
X20836900Y-9063100D02*
X20100000Y-9063100D01*
X22900000Y-7000000D02*
X20836900Y-9063100D01*
X47775010Y-2814332D02*
X46335678Y-1375000D01*
X47775010Y-16785668D02*
X47775010Y-2814332D01*
X47335668Y-17225010D02*
X47775010Y-16785668D01*
X23714332Y-1324990D02*
X18775000Y-6264322D01*
X44617043Y-1324979D02*
X23714332Y-1324990D01*
X44667064Y-1375000D02*
X44617043Y-1324979D01*
X46335678Y-1375000D02*
X44667064Y-1375000D01*
X18775000Y-7738100D02*
X20100000Y-9063100D01*
X18775000Y-6264322D02*
X18775000Y-7738100D01*
X43600000Y-14000000D02*
X43600000Y-16100000D01*
X44725010Y-17225010D02*
X47335668Y-17225010D01*
X43600000Y-16100000D02*
X44725010Y-17225010D01*
X46400000Y-14000000D02*
X46400000Y-10500000D01*
X46400000Y-7000000D02*
X46400000Y-10500000D01*
X29900000Y-3500000D02*
X29900000Y-7000000D01*
X29900000Y-7000000D02*
X29900000Y-10500000D01*
X46400000Y-7000000D02*
X46400000Y-3500000D01*
X29900000Y-14000000D02*
X29900000Y-10500000D01*
X46400000Y-14000000D02*
X46400000Y-16100000D01*
X31275005Y-2124995D02*
X30595710Y-2804290D01*
X30595710Y-2804290D02*
X29900000Y-3500000D01*
X44299995Y-2124995D02*
X31275005Y-2124995D01*
X45675000Y-3500000D02*
X44299995Y-2124995D01*
X46400000Y-3500000D02*
X45675000Y-3500000D01*
D30*
X15112000Y-34955964D02*
X15112000Y-36016000D01*
X15751964Y-34316000D02*
X15112000Y-34955964D01*
X22412000Y-34316000D02*
X15751964Y-34316000D01*
X19912000Y-24616000D02*
X19912000Y-25651002D01*
X19747001Y-25816001D02*
X13716001Y-25816001D01*
X19912000Y-25651002D02*
X19747001Y-25816001D01*
X13512000Y-25612000D02*
X13512000Y-24616000D01*
X13716001Y-25816001D02*
X13512000Y-25612000D01*
X1400000Y-25530000D02*
X1400000Y-31350000D01*
X1847500Y-25977500D02*
X1400000Y-25530000D01*
X3700000Y-25977500D02*
X1847500Y-25977500D01*
X1847500Y-30902500D02*
X1400000Y-31350000D01*
X3700000Y-30902500D02*
X1847500Y-30902500D01*
X1400000Y-22900000D02*
X1400000Y-25530000D01*
D31*
X3700000Y-30100000D02*
X4060000Y-29740000D01*
X3700000Y-30902500D02*
X3700000Y-30100000D01*
X5616000Y-34544000D02*
X6491010Y-33668990D01*
X7150266Y-33668990D02*
X9144000Y-31675256D01*
X6491010Y-33668990D02*
X7150266Y-33668990D01*
X9144000Y-31675256D02*
X9144000Y-30234000D01*
X9862000Y-29516000D02*
X11012000Y-29516000D01*
X9144000Y-30234000D02*
X9862000Y-29516000D01*
X3700000Y-32628000D02*
X5616000Y-34544000D01*
X3700000Y-30902500D02*
X3700000Y-32628000D01*
D30*
X1400000Y-46925000D02*
X2975000Y-48500000D01*
X1400000Y-31350000D02*
X1400000Y-46925000D01*
X13512000Y-23580998D02*
X13512000Y-24616000D01*
X12755981Y-22824979D02*
X13512000Y-23580998D01*
X2550010Y-24050010D02*
X3806116Y-24050010D01*
X5031148Y-22824979D02*
X12755981Y-22824979D01*
X3806116Y-24050010D02*
X5031148Y-22824979D01*
X1400000Y-22900000D02*
X2550010Y-24050010D01*
D29*
X6970000Y-48500000D02*
X6995000Y-48475000D01*
X2975000Y-48500000D02*
X6970000Y-48500000D01*
X6995000Y-48475000D02*
X14955000Y-48475000D01*
X15112000Y-36016000D02*
X15112000Y-40487000D01*
X15112000Y-40487000D02*
X17075000Y-42450000D01*
X15080000Y-48475000D02*
X14955000Y-48475000D01*
X17075000Y-46480000D02*
X15080000Y-48475000D01*
X18600000Y-45375000D02*
X21325000Y-45375000D01*
X19223372Y-44751628D02*
X18600000Y-45375000D01*
X19800010Y-44174990D02*
X19223372Y-44751628D01*
X19800010Y-41725010D02*
X19800010Y-44174990D01*
X19450000Y-41375000D02*
X19800010Y-41725010D01*
X18600000Y-45375000D02*
X17400000Y-45375000D01*
X17075000Y-42450000D02*
X17075000Y-45700000D01*
X17400000Y-45375000D02*
X17075000Y-45700000D01*
X17075000Y-45700000D02*
X17075000Y-46480000D01*
X36975000Y-39700000D02*
X36975000Y-44800000D01*
X36975000Y-33710000D02*
X36975000Y-39700000D01*
X34125000Y-30860000D02*
X36975000Y-33710000D01*
X32425000Y-30860000D02*
X34125000Y-30860000D01*
X38735001Y-35470001D02*
X36975000Y-33710000D01*
X44129999Y-35470001D02*
X38735001Y-35470001D01*
X44800000Y-34800000D02*
X44129999Y-35470001D01*
X47325020Y-32899980D02*
X47325020Y-26950020D01*
X45425000Y-34800000D02*
X47325020Y-32899980D01*
X44800000Y-34800000D02*
X45425000Y-34800000D01*
X19912000Y-23490998D02*
X19912000Y-24616000D01*
D30*
X23752998Y-19650000D02*
X40500000Y-19650000D01*
X19912000Y-23490998D02*
X23752998Y-19650000D01*
X40500000Y-20500000D02*
X45112500Y-25112500D01*
X45112500Y-25112500D02*
X45200000Y-25112500D01*
X40500000Y-19650000D02*
X40500000Y-20500000D01*
X46043737Y-25668737D02*
X47325020Y-26950020D01*
X45756237Y-25668737D02*
X46043737Y-25668737D01*
X45200000Y-25112500D02*
X45756237Y-25668737D01*
D29*
X16712000Y-38712000D02*
X16712000Y-36016000D01*
X19250000Y-39075000D02*
X17075000Y-39075000D01*
X17075000Y-39075000D02*
X16712000Y-38712000D01*
X19450000Y-40275000D02*
X19450000Y-39275000D01*
X19450000Y-39275000D02*
X19250000Y-39075000D01*
X20500000Y-40275000D02*
X19450000Y-40275000D01*
X21325000Y-41100000D02*
X20500000Y-40275000D01*
X21325000Y-43325000D02*
X21325000Y-41100000D01*
X15912000Y-37366000D02*
X15912000Y-36016000D01*
X15912000Y-39887002D02*
X15912000Y-37366000D01*
X17399998Y-41375000D02*
X15912000Y-39887002D01*
X18050000Y-41375000D02*
X17399998Y-41375000D01*
X18050000Y-42775000D02*
X18050000Y-41375000D01*
X18600000Y-43325000D02*
X18050000Y-42775000D01*
D30*
X4200011Y-21974989D02*
X3831237Y-22343763D01*
X3831237Y-22343763D02*
X3275000Y-22900000D01*
X12895957Y-21974989D02*
X4200011Y-21974989D01*
X14312000Y-24616000D02*
X14312000Y-23391032D01*
X14312000Y-23391032D02*
X12895957Y-21974989D01*
D31*
X7366000Y-34544000D02*
X7865072Y-34044928D01*
X9862000Y-31805798D02*
X9862000Y-30364542D01*
X9862000Y-30364542D02*
X9910542Y-30316000D01*
X9910542Y-30316000D02*
X11012000Y-30316000D01*
X7865072Y-33802726D02*
X9862000Y-31805798D01*
X7865072Y-34044928D02*
X7865072Y-33802726D01*
D30*
X12712000Y-24616000D02*
X12712000Y-25651002D01*
X20712000Y-33066000D02*
X20712000Y-25866000D01*
X21162000Y-33516000D02*
X20712000Y-33066000D01*
X22412000Y-33516000D02*
X21162000Y-33516000D01*
X12712000Y-26666000D02*
X12712000Y-25651002D01*
X12262000Y-27116000D02*
X12712000Y-26666000D01*
X11012000Y-27116000D02*
X12262000Y-27116000D01*
X12712000Y-25840967D02*
X13387045Y-26516012D01*
X20061988Y-26516012D02*
X20712000Y-25866000D01*
X12712000Y-25651002D02*
X12712000Y-25840967D01*
X13387045Y-26516012D02*
X20061988Y-26516012D01*
X20712000Y-25866000D02*
X20712000Y-24616000D01*
X16012000Y-33066000D02*
X20712000Y-33066000D01*
X14312000Y-34766000D02*
X16012000Y-33066000D01*
X14312000Y-36016000D02*
X14312000Y-34766000D01*
D31*
X5150001Y-27139999D02*
X5600000Y-26690000D01*
X4060000Y-27140000D02*
X5150001Y-27139999D01*
X6105754Y-23474990D02*
X7894246Y-23474990D01*
X5600000Y-23980744D02*
X6105754Y-23474990D01*
X9862000Y-27116000D02*
X11012000Y-27116000D01*
X7894246Y-23474990D02*
X9861999Y-25442743D01*
X9861999Y-25442743D02*
X9862000Y-27116000D01*
X5600000Y-26690000D02*
X5600000Y-23980744D01*
D30*
X12712000Y-30666000D02*
X12712000Y-26666000D01*
X12262000Y-31116000D02*
X12712000Y-30666000D01*
X11012000Y-31116000D02*
X12262000Y-31116000D01*
D29*
X4177081Y-45960000D02*
X2975000Y-45960000D01*
X4187081Y-45950000D02*
X4177081Y-45960000D01*
X14312000Y-41006998D02*
X16230001Y-42924999D01*
X14312000Y-36016000D02*
X14312000Y-41006998D01*
X16230001Y-42924999D02*
X16230001Y-45025001D01*
X16230001Y-45025001D02*
X15305002Y-45950000D01*
X15305002Y-45950000D02*
X4187081Y-45950000D01*
X13793002Y-41006998D02*
X14312000Y-41006998D01*
X12025000Y-41800000D02*
X13000000Y-41800000D01*
X13000000Y-41800000D02*
X13793002Y-41006998D01*
X28400000Y-31875000D02*
X29675000Y-30600000D01*
X27300000Y-31875000D02*
X28400000Y-31875000D01*
X44775000Y-33400000D02*
X44800000Y-33375000D01*
X41625000Y-33400000D02*
X44775000Y-33400000D01*
X45425000Y-33375000D02*
X44800000Y-33375000D01*
X46525010Y-30075010D02*
X46525010Y-32274990D01*
X46525010Y-32274990D02*
X45425000Y-33375000D01*
X45150000Y-28700000D02*
X46525010Y-30075010D01*
X45200000Y-28650000D02*
X45150000Y-28700000D01*
X45200000Y-26987500D02*
X45200000Y-28650000D01*
X29675000Y-30600000D02*
X30824999Y-29450001D01*
X24729708Y-33516000D02*
X23762000Y-33516000D01*
X26604290Y-32570710D02*
X25674998Y-32570710D01*
X27300000Y-31875000D02*
X26604290Y-32570710D01*
X23762000Y-33516000D02*
X22412000Y-33516000D01*
X25674998Y-32570710D02*
X24729708Y-33516000D01*
X40024999Y-32830001D02*
X40594998Y-33400000D01*
X33925001Y-24979999D02*
X40024999Y-31079997D01*
X30824999Y-29450001D02*
X30824999Y-25079999D01*
X40594998Y-33400000D02*
X41625000Y-33400000D01*
X40024999Y-31079997D02*
X40024999Y-32830001D01*
X30824999Y-25079999D02*
X30924999Y-24979999D01*
X30924999Y-24979999D02*
X33925001Y-24979999D01*
D31*
X6510000Y-27790000D02*
X7000000Y-27300000D01*
X4060000Y-27790000D02*
X6510000Y-27790000D01*
X5150000Y-28440000D02*
X4060000Y-28440000D01*
X5724990Y-29014990D02*
X5150000Y-28440000D01*
X5724990Y-30624990D02*
X5724990Y-29014990D01*
X7000000Y-31900000D02*
X5724990Y-30624990D01*
D30*
X9871052Y-32716000D02*
X11012000Y-32716000D01*
X9111988Y-34295301D02*
X9111988Y-33475064D01*
X2975000Y-35800000D02*
X7607289Y-35800000D01*
X9111988Y-33475064D02*
X9871052Y-32716000D01*
X7607289Y-35800000D02*
X9111988Y-34295301D01*
X9811999Y-33765018D02*
X10061017Y-33516000D01*
X6057253Y-38340000D02*
X9811999Y-34585254D01*
X10061017Y-33516000D02*
X11012000Y-33516000D01*
X9811999Y-34585254D02*
X9811999Y-33765018D01*
D29*
X4177081Y-38340000D02*
X6057253Y-38340000D01*
X2975000Y-38340000D02*
X4177081Y-38340000D01*
X6127963Y-38340000D02*
X9761999Y-34705964D01*
X6057253Y-38340000D02*
X6127963Y-38340000D01*
X11012000Y-35191000D02*
X11012000Y-34316000D01*
X5323000Y-40880000D02*
X11012000Y-35191000D01*
X2975000Y-40880000D02*
X5323000Y-40880000D01*
X47975000Y-43750000D02*
X47975000Y-44800000D01*
X33455002Y-32130000D02*
X34075000Y-32749998D01*
X32425000Y-32130000D02*
X33455002Y-32130000D01*
X34075000Y-35320002D02*
X33470002Y-35925000D01*
X34075000Y-32749998D02*
X34075000Y-35320002D01*
X33470002Y-35925000D02*
X29025000Y-35925000D01*
X25975000Y-38975000D02*
X25975000Y-44800000D01*
X29025000Y-35925000D02*
X25975000Y-38975000D01*
X44520000Y-32130000D02*
X45150000Y-31500000D01*
X41625000Y-32130000D02*
X44520000Y-32130000D01*
X32425000Y-33400000D02*
X29675000Y-33400000D01*
X18312000Y-37141002D02*
X18312000Y-36016000D01*
X26000000Y-33400000D02*
X22133999Y-37266001D01*
X18436999Y-37266001D02*
X18312000Y-37141002D01*
X22133999Y-37266001D02*
X18436999Y-37266001D01*
X29675000Y-33400000D02*
X26000000Y-33400000D01*
X17512000Y-37366000D02*
X17536988Y-37366000D01*
X17536988Y-37366000D02*
X17536988Y-37497376D01*
X17512000Y-36016000D02*
X17512000Y-37366000D01*
X17536988Y-37497376D02*
X18105624Y-38066012D01*
X22603988Y-38066012D02*
X26000000Y-34670000D01*
X18105624Y-38066012D02*
X22603988Y-38066012D01*
X26005000Y-34675000D02*
X27300000Y-34675000D01*
X26000000Y-34670000D02*
X26005000Y-34675000D01*
X32420000Y-34675000D02*
X32425000Y-34670000D01*
X27300000Y-34675000D02*
X32420000Y-34675000D01*
D30*
X3824999Y-42570001D02*
X5529999Y-42570001D01*
D29*
X5529999Y-42634999D02*
X5529999Y-42570001D01*
X2975000Y-43420000D02*
X3824999Y-42570001D01*
X5465001Y-42570001D02*
X5529999Y-42634999D01*
X3824999Y-42570001D02*
X5465001Y-42570001D01*
X5465001Y-42570001D02*
X5529999Y-42570001D01*
X13403000Y-37475000D02*
X13512000Y-37366000D01*
X13512000Y-37366000D02*
X13512000Y-36016000D01*
X5529999Y-42570001D02*
X10625000Y-37475000D01*
X10625000Y-37475000D02*
X11950000Y-37475000D01*
X12025000Y-37550000D02*
X11950000Y-37475000D01*
X12025000Y-39000000D02*
X12025000Y-37550000D01*
X11950000Y-37475000D02*
X13403000Y-37475000D01*
X7000000Y-44800000D02*
X7150000Y-44800000D01*
X5529999Y-43329999D02*
X7000000Y-44800000D01*
X5529999Y-42570001D02*
X5529999Y-43329999D01*
X7150000Y-44800000D02*
X13150000Y-44800000D01*
D30*
X15112000Y-23201069D02*
X15112000Y-23366000D01*
X15112000Y-23366000D02*
X15112000Y-24616000D01*
X5375021Y-20675021D02*
X12585952Y-20675021D01*
X3600000Y-18900000D02*
X5375021Y-20675021D01*
X12585952Y-20675021D02*
X15112000Y-23201069D01*
X15912000Y-23366000D02*
X15912000Y-24616000D01*
X12875905Y-19975010D02*
X15912000Y-23011105D01*
X7475010Y-19975010D02*
X12875905Y-19975010D01*
X6400000Y-18900000D02*
X7475010Y-19975010D01*
X15912000Y-23011105D02*
X15912000Y-23366000D01*
X16700000Y-24604000D02*
X16712000Y-24616000D01*
X16712000Y-23366000D02*
X16712000Y-24616000D01*
X16712000Y-22821140D02*
X16712000Y-23366000D01*
X12790860Y-18900000D02*
X16712000Y-22821140D01*
X10000000Y-18900000D02*
X12790860Y-18900000D01*
X17512000Y-23366000D02*
X23928000Y-16950000D01*
X23928000Y-16950000D02*
X41650000Y-16950000D01*
X17512000Y-24616000D02*
X17512000Y-23366000D01*
X41650000Y-16950000D02*
X43600000Y-18900000D01*
X43110034Y-20400000D02*
X44900000Y-20400000D01*
X44900000Y-20400000D02*
X46400000Y-18900000D01*
X24117998Y-17775000D02*
X40485034Y-17775000D01*
X18312000Y-24616000D02*
X18312000Y-23580998D01*
X40485034Y-17775000D02*
X43110034Y-20400000D01*
X18312000Y-23580998D02*
X24117998Y-17775000D01*
D31*
X9862000Y-27916000D02*
X11012000Y-27916000D01*
X9691000Y-27916000D02*
X9862000Y-27916000D01*
X7000000Y-25225000D02*
X9691000Y-27916000D01*
X7000000Y-24500000D02*
X7000000Y-25225000D01*
D30*
X7384000Y-28716000D02*
X11012000Y-28716000D01*
X7000000Y-29100000D02*
X7384000Y-28716000D01*
X23662000Y-32716000D02*
X29025000Y-27353000D01*
X22412000Y-32716000D02*
X23662000Y-32716000D01*
X33699999Y-22549999D02*
X34500000Y-23350000D01*
X32014999Y-22549999D02*
X33699999Y-22549999D01*
X29025000Y-25539998D02*
X32014999Y-22549999D01*
X29025000Y-27353000D02*
X29025000Y-25539998D01*
X26875000Y-23350000D02*
X26875000Y-28513036D01*
X23472036Y-31916000D02*
X22412000Y-31916000D01*
X26875000Y-28513036D02*
X23472036Y-31916000D01*
M02*
