G04 #@! TF.GenerationSoftware,KiCad,Pcbnew,5.1.4+dfsg1-1*
G04 #@! TF.CreationDate,2020-03-29T20:15:13+02:00*
G04 #@! TF.ProjectId,TPSE Glass,54505345-2047-46c6-9173-732e6b696361,rev?*
G04 #@! TF.SameCoordinates,Original*
G04 #@! TF.FileFunction,Legend,Top*
G04 #@! TF.FilePolarity,Positive*
%FSLAX46Y46*%
G04 Gerber Fmt 4.6, Leading zero omitted, Abs format (unit mm)*
G04 Created by KiCad (PCBNEW 5.1.4+dfsg1-1) date 2020-03-29 20:15:13*
%MOMM*%
%LPD*%
G04 APERTURE LIST*
%ADD10C,0.120000*%
%ADD11C,0.150000*%
%ADD12C,0.200000*%
%ADD13C,0.127000*%
%ADD14C,0.015000*%
G04 APERTURE END LIST*
D10*
X44490000Y-26308578D02*
X44490000Y-25791422D01*
X45910000Y-26308578D02*
X45910000Y-25791422D01*
X45585000Y-34887500D02*
X45585000Y-32577500D01*
X45585000Y-32577500D02*
X44015000Y-32577500D01*
X44015000Y-32577500D02*
X44015000Y-34887500D01*
X20615000Y-44088748D02*
X20615000Y-44611252D01*
X22035000Y-44088748D02*
X22035000Y-44611252D01*
X44240000Y-30702064D02*
X44240000Y-29497936D01*
X46060000Y-30702064D02*
X46060000Y-29497936D01*
X11115000Y-41002064D02*
X11115000Y-39797936D01*
X12935000Y-41002064D02*
X12935000Y-39797936D01*
X19310000Y-44088748D02*
X19310000Y-44611252D01*
X17890000Y-44088748D02*
X17890000Y-44611252D01*
D11*
X44975000Y-52800000D02*
G75*
G03X28975000Y-52800000I-8000000J-10000000D01*
G01*
X47975000Y-49800000D02*
X44975000Y-52800000D01*
X25975000Y-49800000D02*
X28975000Y-52800000D01*
X44975000Y-36800000D02*
X47975000Y-39800000D01*
X40975000Y-36800000D02*
X44975000Y-36800000D01*
X28975000Y-36800000D02*
X32975000Y-36800000D01*
X25975000Y-39800000D02*
X28975000Y-36800000D01*
X45975000Y-44800000D02*
G75*
G03X45975000Y-44800000I-9000000J0D01*
G01*
X25975000Y-41800000D02*
X25975000Y-39800000D01*
X47975000Y-41800000D02*
X47975000Y-39800000D01*
X25975000Y-49800000D02*
X25975000Y-47800000D01*
X47975000Y-49800000D02*
X47975000Y-47800000D01*
D10*
X28210000Y-32672936D02*
X28210000Y-33877064D01*
X26390000Y-32672936D02*
X26390000Y-33877064D01*
X28765000Y-31397936D02*
X28765000Y-32602064D01*
X30585000Y-31397936D02*
X30585000Y-32602064D01*
X7285000Y-9365000D02*
X3400000Y-9365000D01*
X7285000Y-11635000D02*
X7285000Y-9365000D01*
X3400000Y-11635000D02*
X7285000Y-11635000D01*
X14285000Y-12865000D02*
X10400000Y-12865000D01*
X14285000Y-15135000D02*
X14285000Y-12865000D01*
X10400000Y-15135000D02*
X14285000Y-15135000D01*
X40285000Y-12865000D02*
X36400000Y-12865000D01*
X40285000Y-15135000D02*
X40285000Y-12865000D01*
X36400000Y-15135000D02*
X40285000Y-15135000D01*
X43400000Y-15135000D02*
X47285000Y-15135000D01*
X47285000Y-15135000D02*
X47285000Y-12865000D01*
X47285000Y-12865000D02*
X43400000Y-12865000D01*
X6600000Y-12865000D02*
X2715000Y-12865000D01*
X2715000Y-12865000D02*
X2715000Y-15135000D01*
X2715000Y-15135000D02*
X6600000Y-15135000D01*
X9715000Y-11635000D02*
X13600000Y-11635000D01*
X9715000Y-9365000D02*
X9715000Y-11635000D01*
X13600000Y-9365000D02*
X9715000Y-9365000D01*
X35715000Y-11635000D02*
X39600000Y-11635000D01*
X35715000Y-9365000D02*
X35715000Y-11635000D01*
X39600000Y-9365000D02*
X35715000Y-9365000D01*
X42715000Y-11635000D02*
X46600000Y-11635000D01*
X42715000Y-9365000D02*
X42715000Y-11635000D01*
X46600000Y-9365000D02*
X42715000Y-9365000D01*
X10400000Y-8135000D02*
X14285000Y-8135000D01*
X14285000Y-8135000D02*
X14285000Y-5865000D01*
X14285000Y-5865000D02*
X10400000Y-5865000D01*
X43400000Y-8135000D02*
X47285000Y-8135000D01*
X47285000Y-8135000D02*
X47285000Y-5865000D01*
X47285000Y-5865000D02*
X43400000Y-5865000D01*
X9715000Y-4635000D02*
X13600000Y-4635000D01*
X9715000Y-2365000D02*
X9715000Y-4635000D01*
X13600000Y-2365000D02*
X9715000Y-2365000D01*
X42715000Y-4635000D02*
X46600000Y-4635000D01*
X42715000Y-2365000D02*
X42715000Y-4635000D01*
X46600000Y-2365000D02*
X42715000Y-2365000D01*
X19215000Y-15135000D02*
X23100000Y-15135000D01*
X19215000Y-12865000D02*
X19215000Y-15135000D01*
X23100000Y-12865000D02*
X19215000Y-12865000D01*
X19900000Y-11635000D02*
X23785000Y-11635000D01*
X23785000Y-11635000D02*
X23785000Y-9365000D01*
X23785000Y-9365000D02*
X19900000Y-9365000D01*
X19900000Y-8135000D02*
X23785000Y-8135000D01*
X23785000Y-8135000D02*
X23785000Y-5865000D01*
X23785000Y-5865000D02*
X19900000Y-5865000D01*
X26900000Y-15135000D02*
X30785000Y-15135000D01*
X30785000Y-15135000D02*
X30785000Y-12865000D01*
X30785000Y-12865000D02*
X26900000Y-12865000D01*
X35715000Y-8135000D02*
X39600000Y-8135000D01*
X35715000Y-5865000D02*
X35715000Y-8135000D01*
X39600000Y-5865000D02*
X35715000Y-5865000D01*
X26215000Y-11635000D02*
X30100000Y-11635000D01*
X26215000Y-9365000D02*
X26215000Y-11635000D01*
X30100000Y-9365000D02*
X26215000Y-9365000D01*
X26900000Y-8135000D02*
X30785000Y-8135000D01*
X30785000Y-8135000D02*
X30785000Y-5865000D01*
X30785000Y-5865000D02*
X26900000Y-5865000D01*
X26215000Y-4635000D02*
X30100000Y-4635000D01*
X26215000Y-2365000D02*
X26215000Y-4635000D01*
X30100000Y-2365000D02*
X26215000Y-2365000D01*
X2690000Y-16897936D02*
X2690000Y-18102064D01*
X4510000Y-16897936D02*
X4510000Y-18102064D01*
X5490000Y-16897936D02*
X5490000Y-18102064D01*
X7310000Y-16897936D02*
X7310000Y-18102064D01*
X9090000Y-16897936D02*
X9090000Y-18102064D01*
X10910000Y-16897936D02*
X10910000Y-18102064D01*
X44510000Y-16897936D02*
X44510000Y-18102064D01*
X42690000Y-16897936D02*
X42690000Y-18102064D01*
X45490000Y-16897936D02*
X45490000Y-18102064D01*
X47310000Y-16897936D02*
X47310000Y-18102064D01*
X2596078Y-23610000D02*
X2078922Y-23610000D01*
X2596078Y-22190000D02*
X2078922Y-22190000D01*
X4310000Y-32250000D02*
X4310000Y-31870000D01*
X260000Y-32250000D02*
X0Y-32250000D01*
X4310000Y-32250000D02*
X2540000Y-32250000D01*
X4310000Y-24630000D02*
X4310000Y-25010000D01*
X2540000Y-24630000D02*
X4310000Y-24630000D01*
X0Y-24630000D02*
X260000Y-24630000D01*
X7910000Y-25297936D02*
X7910000Y-26502064D01*
X6090000Y-25297936D02*
X6090000Y-26502064D01*
X6090000Y-29897936D02*
X6090000Y-31102064D01*
X7910000Y-29897936D02*
X7910000Y-31102064D01*
D11*
X11537000Y-25141000D02*
X11537000Y-25716000D01*
X21887000Y-25141000D02*
X21887000Y-25816000D01*
X21887000Y-35491000D02*
X21887000Y-34816000D01*
X11537000Y-35491000D02*
X11537000Y-34816000D01*
X11537000Y-25141000D02*
X12212000Y-25141000D01*
X11537000Y-35491000D02*
X12212000Y-35491000D01*
X21887000Y-35491000D02*
X21212000Y-35491000D01*
X21887000Y-25141000D02*
X21212000Y-25141000D01*
X11537000Y-25716000D02*
X10262000Y-25716000D01*
D10*
X17400000Y-39675000D02*
X17400000Y-41975000D01*
X17400000Y-41975000D02*
X20100000Y-41975000D01*
X6662267Y-35054000D02*
X6319733Y-35054000D01*
X6662267Y-34034000D02*
X6319733Y-34034000D01*
X1645000Y-49830000D02*
X4305000Y-49830000D01*
X1645000Y-37070000D02*
X1645000Y-49830000D01*
X4305000Y-37070000D02*
X4305000Y-49830000D01*
X1645000Y-37070000D02*
X4305000Y-37070000D01*
X1645000Y-35800000D02*
X1645000Y-34470000D01*
X1645000Y-34470000D02*
X2975000Y-34470000D01*
D12*
X42000000Y-23400000D02*
G75*
G03X42000000Y-23400000I-100000J0D01*
G01*
D13*
X35100000Y-22500000D02*
X35100000Y-20500000D01*
X39900000Y-22500000D02*
X39900000Y-20500000D01*
X36000000Y-19100000D02*
X35400000Y-19700000D01*
X39000000Y-19100000D02*
X36000000Y-19100000D01*
X39600000Y-19700000D02*
X39000000Y-19100000D01*
X36000000Y-23900000D02*
X35400000Y-23300000D01*
X39000000Y-23900000D02*
X39600000Y-23300000D01*
X36000000Y-23900000D02*
X39000000Y-23900000D01*
X28375000Y-23900000D02*
X31375000Y-23900000D01*
X31375000Y-23900000D02*
X31975000Y-23300000D01*
X28375000Y-23900000D02*
X27775000Y-23300000D01*
X31975000Y-19700000D02*
X31375000Y-19100000D01*
X31375000Y-19100000D02*
X28375000Y-19100000D01*
X28375000Y-19100000D02*
X27775000Y-19700000D01*
X32275000Y-22500000D02*
X32275000Y-20500000D01*
X27475000Y-22500000D02*
X27475000Y-20500000D01*
D12*
X34375000Y-23400000D02*
G75*
G03X34375000Y-23400000I-100000J0D01*
G01*
D13*
X8650000Y-49050000D02*
X11650000Y-49050000D01*
X11650000Y-49050000D02*
X12250000Y-48450000D01*
X8650000Y-49050000D02*
X8050000Y-48450000D01*
X12250000Y-44850000D02*
X11650000Y-44250000D01*
X11650000Y-44250000D02*
X8650000Y-44250000D01*
X8650000Y-44250000D02*
X8050000Y-44850000D01*
X12550000Y-47650000D02*
X12550000Y-45650000D01*
X7750000Y-47650000D02*
X7750000Y-45650000D01*
D12*
X14650000Y-48550000D02*
G75*
G03X14650000Y-48550000I-100000J0D01*
G01*
D11*
X43907142Y-26216666D02*
X43954761Y-26264285D01*
X44002380Y-26407142D01*
X44002380Y-26502380D01*
X43954761Y-26645238D01*
X43859523Y-26740476D01*
X43764285Y-26788095D01*
X43573809Y-26835714D01*
X43430952Y-26835714D01*
X43240476Y-26788095D01*
X43145238Y-26740476D01*
X43050000Y-26645238D01*
X43002380Y-26502380D01*
X43002380Y-26407142D01*
X43050000Y-26264285D01*
X43097619Y-26216666D01*
X43002380Y-25311904D02*
X43002380Y-25788095D01*
X43478571Y-25835714D01*
X43430952Y-25788095D01*
X43383333Y-25692857D01*
X43383333Y-25454761D01*
X43430952Y-25359523D01*
X43478571Y-25311904D01*
X43573809Y-25264285D01*
X43811904Y-25264285D01*
X43907142Y-25311904D01*
X43954761Y-25359523D01*
X44002380Y-25454761D01*
X44002380Y-25692857D01*
X43954761Y-25788095D01*
X43907142Y-25835714D01*
X46637142Y-34254166D02*
X46684761Y-34301785D01*
X46732380Y-34444642D01*
X46732380Y-34539880D01*
X46684761Y-34682738D01*
X46589523Y-34777976D01*
X46494285Y-34825595D01*
X46303809Y-34873214D01*
X46160952Y-34873214D01*
X45970476Y-34825595D01*
X45875238Y-34777976D01*
X45780000Y-34682738D01*
X45732380Y-34539880D01*
X45732380Y-34444642D01*
X45780000Y-34301785D01*
X45827619Y-34254166D01*
X45732380Y-33397023D02*
X45732380Y-33587500D01*
X45780000Y-33682738D01*
X45827619Y-33730357D01*
X45970476Y-33825595D01*
X46160952Y-33873214D01*
X46541904Y-33873214D01*
X46637142Y-33825595D01*
X46684761Y-33777976D01*
X46732380Y-33682738D01*
X46732380Y-33492261D01*
X46684761Y-33397023D01*
X46637142Y-33349404D01*
X46541904Y-33301785D01*
X46303809Y-33301785D01*
X46208571Y-33349404D01*
X46160952Y-33397023D01*
X46113333Y-33492261D01*
X46113333Y-33682738D01*
X46160952Y-33777976D01*
X46208571Y-33825595D01*
X46303809Y-33873214D01*
X23332142Y-44516666D02*
X23379761Y-44564285D01*
X23427380Y-44707142D01*
X23427380Y-44802380D01*
X23379761Y-44945238D01*
X23284523Y-45040476D01*
X23189285Y-45088095D01*
X22998809Y-45135714D01*
X22855952Y-45135714D01*
X22665476Y-45088095D01*
X22570238Y-45040476D01*
X22475000Y-44945238D01*
X22427380Y-44802380D01*
X22427380Y-44707142D01*
X22475000Y-44564285D01*
X22522619Y-44516666D01*
X23427380Y-43564285D02*
X23427380Y-44135714D01*
X23427380Y-43850000D02*
X22427380Y-43850000D01*
X22570238Y-43945238D01*
X22665476Y-44040476D01*
X22713095Y-44135714D01*
X43782380Y-30266666D02*
X43306190Y-30600000D01*
X43782380Y-30838095D02*
X42782380Y-30838095D01*
X42782380Y-30457142D01*
X42830000Y-30361904D01*
X42877619Y-30314285D01*
X42972857Y-30266666D01*
X43115714Y-30266666D01*
X43210952Y-30314285D01*
X43258571Y-30361904D01*
X43306190Y-30457142D01*
X43306190Y-30838095D01*
X43782380Y-29790476D02*
X43782380Y-29600000D01*
X43734761Y-29504761D01*
X43687142Y-29457142D01*
X43544285Y-29361904D01*
X43353809Y-29314285D01*
X42972857Y-29314285D01*
X42877619Y-29361904D01*
X42830000Y-29409523D01*
X42782380Y-29504761D01*
X42782380Y-29695238D01*
X42830000Y-29790476D01*
X42877619Y-29838095D01*
X42972857Y-29885714D01*
X43210952Y-29885714D01*
X43306190Y-29838095D01*
X43353809Y-29790476D01*
X43401428Y-29695238D01*
X43401428Y-29504761D01*
X43353809Y-29409523D01*
X43306190Y-29361904D01*
X43210952Y-29314285D01*
X10657380Y-40566666D02*
X10181190Y-40900000D01*
X10657380Y-41138095D02*
X9657380Y-41138095D01*
X9657380Y-40757142D01*
X9705000Y-40661904D01*
X9752619Y-40614285D01*
X9847857Y-40566666D01*
X9990714Y-40566666D01*
X10085952Y-40614285D01*
X10133571Y-40661904D01*
X10181190Y-40757142D01*
X10181190Y-41138095D01*
X9657380Y-40233333D02*
X9657380Y-39614285D01*
X10038333Y-39947619D01*
X10038333Y-39804761D01*
X10085952Y-39709523D01*
X10133571Y-39661904D01*
X10228809Y-39614285D01*
X10466904Y-39614285D01*
X10562142Y-39661904D01*
X10609761Y-39709523D01*
X10657380Y-39804761D01*
X10657380Y-40090476D01*
X10609761Y-40185714D01*
X10562142Y-40233333D01*
X20607142Y-44516666D02*
X20654761Y-44564285D01*
X20702380Y-44707142D01*
X20702380Y-44802380D01*
X20654761Y-44945238D01*
X20559523Y-45040476D01*
X20464285Y-45088095D01*
X20273809Y-45135714D01*
X20130952Y-45135714D01*
X19940476Y-45088095D01*
X19845238Y-45040476D01*
X19750000Y-44945238D01*
X19702380Y-44802380D01*
X19702380Y-44707142D01*
X19750000Y-44564285D01*
X19797619Y-44516666D01*
X19797619Y-44135714D02*
X19750000Y-44088095D01*
X19702380Y-43992857D01*
X19702380Y-43754761D01*
X19750000Y-43659523D01*
X19797619Y-43611904D01*
X19892857Y-43564285D01*
X19988095Y-43564285D01*
X20130952Y-43611904D01*
X20702380Y-44183333D01*
X20702380Y-43564285D01*
X36189285Y-41728571D02*
X36332142Y-41776190D01*
X36379761Y-41823809D01*
X36427380Y-41919047D01*
X36427380Y-42061904D01*
X36379761Y-42157142D01*
X36332142Y-42204761D01*
X36236904Y-42252380D01*
X35855952Y-42252380D01*
X35855952Y-41252380D01*
X36189285Y-41252380D01*
X36284523Y-41300000D01*
X36332142Y-41347619D01*
X36379761Y-41442857D01*
X36379761Y-41538095D01*
X36332142Y-41633333D01*
X36284523Y-41680952D01*
X36189285Y-41728571D01*
X35855952Y-41728571D01*
X36713095Y-41252380D02*
X37284523Y-41252380D01*
X36998809Y-42252380D02*
X36998809Y-41252380D01*
X38141666Y-42252380D02*
X37570238Y-42252380D01*
X37855952Y-42252380D02*
X37855952Y-41252380D01*
X37760714Y-41395238D01*
X37665476Y-41490476D01*
X37570238Y-41538095D01*
D14*
X35572380Y-32471190D02*
X34572380Y-32471190D01*
X35477142Y-31423571D02*
X35524761Y-31471190D01*
X35572380Y-31614047D01*
X35572380Y-31709285D01*
X35524761Y-31852142D01*
X35429523Y-31947380D01*
X35334285Y-31995000D01*
X35143809Y-32042619D01*
X35000952Y-32042619D01*
X34810476Y-31995000D01*
X34715238Y-31947380D01*
X34620000Y-31852142D01*
X34572380Y-31709285D01*
X34572380Y-31614047D01*
X34620000Y-31471190D01*
X34667619Y-31423571D01*
X35572380Y-30471190D02*
X35572380Y-31042619D01*
X35572380Y-30756904D02*
X34572380Y-30756904D01*
X34715238Y-30852142D01*
X34810476Y-30947380D01*
X34858095Y-31042619D01*
D11*
X29572380Y-33917857D02*
X29096190Y-34251190D01*
X29572380Y-34489285D02*
X28572380Y-34489285D01*
X28572380Y-34108333D01*
X28620000Y-34013095D01*
X28667619Y-33965476D01*
X28762857Y-33917857D01*
X28905714Y-33917857D01*
X29000952Y-33965476D01*
X29048571Y-34013095D01*
X29096190Y-34108333D01*
X29096190Y-34489285D01*
X29572380Y-32965476D02*
X29572380Y-33536904D01*
X29572380Y-33251190D02*
X28572380Y-33251190D01*
X28715238Y-33346428D01*
X28810476Y-33441666D01*
X28858095Y-33536904D01*
X29572380Y-32013095D02*
X29572380Y-32584523D01*
X29572380Y-32298809D02*
X28572380Y-32298809D01*
X28715238Y-32394047D01*
X28810476Y-32489285D01*
X28858095Y-32584523D01*
X31947380Y-32642857D02*
X31471190Y-32976190D01*
X31947380Y-33214285D02*
X30947380Y-33214285D01*
X30947380Y-32833333D01*
X30995000Y-32738095D01*
X31042619Y-32690476D01*
X31137857Y-32642857D01*
X31280714Y-32642857D01*
X31375952Y-32690476D01*
X31423571Y-32738095D01*
X31471190Y-32833333D01*
X31471190Y-33214285D01*
X31947380Y-31690476D02*
X31947380Y-32261904D01*
X31947380Y-31976190D02*
X30947380Y-31976190D01*
X31090238Y-32071428D01*
X31185476Y-32166666D01*
X31233095Y-32261904D01*
X30947380Y-31071428D02*
X30947380Y-30976190D01*
X30995000Y-30880952D01*
X31042619Y-30833333D01*
X31137857Y-30785714D01*
X31328333Y-30738095D01*
X31566428Y-30738095D01*
X31756904Y-30785714D01*
X31852142Y-30833333D01*
X31899761Y-30880952D01*
X31947380Y-30976190D01*
X31947380Y-31071428D01*
X31899761Y-31166666D01*
X31852142Y-31214285D01*
X31756904Y-31261904D01*
X31566428Y-31309523D01*
X31328333Y-31309523D01*
X31137857Y-31261904D01*
X31042619Y-31214285D01*
X30995000Y-31166666D01*
X30947380Y-31071428D01*
X4261904Y-12772380D02*
X4261904Y-11772380D01*
X4500000Y-11772380D01*
X4642857Y-11820000D01*
X4738095Y-11915238D01*
X4785714Y-12010476D01*
X4833333Y-12200952D01*
X4833333Y-12343809D01*
X4785714Y-12534285D01*
X4738095Y-12629523D01*
X4642857Y-12724761D01*
X4500000Y-12772380D01*
X4261904Y-12772380D01*
X5785714Y-12772380D02*
X5214285Y-12772380D01*
X5500000Y-12772380D02*
X5500000Y-11772380D01*
X5404761Y-11915238D01*
X5309523Y-12010476D01*
X5214285Y-12058095D01*
X11261904Y-16272380D02*
X11261904Y-15272380D01*
X11500000Y-15272380D01*
X11642857Y-15320000D01*
X11738095Y-15415238D01*
X11785714Y-15510476D01*
X11833333Y-15700952D01*
X11833333Y-15843809D01*
X11785714Y-16034285D01*
X11738095Y-16129523D01*
X11642857Y-16224761D01*
X11500000Y-16272380D01*
X11261904Y-16272380D01*
X12214285Y-15367619D02*
X12261904Y-15320000D01*
X12357142Y-15272380D01*
X12595238Y-15272380D01*
X12690476Y-15320000D01*
X12738095Y-15367619D01*
X12785714Y-15462857D01*
X12785714Y-15558095D01*
X12738095Y-15700952D01*
X12166666Y-16272380D01*
X12785714Y-16272380D01*
X37261904Y-16272380D02*
X37261904Y-15272380D01*
X37500000Y-15272380D01*
X37642857Y-15320000D01*
X37738095Y-15415238D01*
X37785714Y-15510476D01*
X37833333Y-15700952D01*
X37833333Y-15843809D01*
X37785714Y-16034285D01*
X37738095Y-16129523D01*
X37642857Y-16224761D01*
X37500000Y-16272380D01*
X37261904Y-16272380D01*
X38166666Y-15272380D02*
X38785714Y-15272380D01*
X38452380Y-15653333D01*
X38595238Y-15653333D01*
X38690476Y-15700952D01*
X38738095Y-15748571D01*
X38785714Y-15843809D01*
X38785714Y-16081904D01*
X38738095Y-16177142D01*
X38690476Y-16224761D01*
X38595238Y-16272380D01*
X38309523Y-16272380D01*
X38214285Y-16224761D01*
X38166666Y-16177142D01*
X44261904Y-16272380D02*
X44261904Y-15272380D01*
X44500000Y-15272380D01*
X44642857Y-15320000D01*
X44738095Y-15415238D01*
X44785714Y-15510476D01*
X44833333Y-15700952D01*
X44833333Y-15843809D01*
X44785714Y-16034285D01*
X44738095Y-16129523D01*
X44642857Y-16224761D01*
X44500000Y-16272380D01*
X44261904Y-16272380D01*
X45690476Y-15605714D02*
X45690476Y-16272380D01*
X45452380Y-15224761D02*
X45214285Y-15939047D01*
X45833333Y-15939047D01*
X4261904Y-12632380D02*
X4261904Y-11632380D01*
X4500000Y-11632380D01*
X4642857Y-11680000D01*
X4738095Y-11775238D01*
X4785714Y-11870476D01*
X4833333Y-12060952D01*
X4833333Y-12203809D01*
X4785714Y-12394285D01*
X4738095Y-12489523D01*
X4642857Y-12584761D01*
X4500000Y-12632380D01*
X4261904Y-12632380D01*
X5738095Y-11632380D02*
X5261904Y-11632380D01*
X5214285Y-12108571D01*
X5261904Y-12060952D01*
X5357142Y-12013333D01*
X5595238Y-12013333D01*
X5690476Y-12060952D01*
X5738095Y-12108571D01*
X5785714Y-12203809D01*
X5785714Y-12441904D01*
X5738095Y-12537142D01*
X5690476Y-12584761D01*
X5595238Y-12632380D01*
X5357142Y-12632380D01*
X5261904Y-12584761D01*
X5214285Y-12537142D01*
X11261904Y-9132380D02*
X11261904Y-8132380D01*
X11500000Y-8132380D01*
X11642857Y-8180000D01*
X11738095Y-8275238D01*
X11785714Y-8370476D01*
X11833333Y-8560952D01*
X11833333Y-8703809D01*
X11785714Y-8894285D01*
X11738095Y-8989523D01*
X11642857Y-9084761D01*
X11500000Y-9132380D01*
X11261904Y-9132380D01*
X12690476Y-8132380D02*
X12500000Y-8132380D01*
X12404761Y-8180000D01*
X12357142Y-8227619D01*
X12261904Y-8370476D01*
X12214285Y-8560952D01*
X12214285Y-8941904D01*
X12261904Y-9037142D01*
X12309523Y-9084761D01*
X12404761Y-9132380D01*
X12595238Y-9132380D01*
X12690476Y-9084761D01*
X12738095Y-9037142D01*
X12785714Y-8941904D01*
X12785714Y-8703809D01*
X12738095Y-8608571D01*
X12690476Y-8560952D01*
X12595238Y-8513333D01*
X12404761Y-8513333D01*
X12309523Y-8560952D01*
X12261904Y-8608571D01*
X12214285Y-8703809D01*
X37261904Y-9132380D02*
X37261904Y-8132380D01*
X37500000Y-8132380D01*
X37642857Y-8180000D01*
X37738095Y-8275238D01*
X37785714Y-8370476D01*
X37833333Y-8560952D01*
X37833333Y-8703809D01*
X37785714Y-8894285D01*
X37738095Y-8989523D01*
X37642857Y-9084761D01*
X37500000Y-9132380D01*
X37261904Y-9132380D01*
X38166666Y-8132380D02*
X38833333Y-8132380D01*
X38404761Y-9132380D01*
X44261904Y-9132380D02*
X44261904Y-8132380D01*
X44500000Y-8132380D01*
X44642857Y-8180000D01*
X44738095Y-8275238D01*
X44785714Y-8370476D01*
X44833333Y-8560952D01*
X44833333Y-8703809D01*
X44785714Y-8894285D01*
X44738095Y-8989523D01*
X44642857Y-9084761D01*
X44500000Y-9132380D01*
X44261904Y-9132380D01*
X45404761Y-8560952D02*
X45309523Y-8513333D01*
X45261904Y-8465714D01*
X45214285Y-8370476D01*
X45214285Y-8322857D01*
X45261904Y-8227619D01*
X45309523Y-8180000D01*
X45404761Y-8132380D01*
X45595238Y-8132380D01*
X45690476Y-8180000D01*
X45738095Y-8227619D01*
X45785714Y-8322857D01*
X45785714Y-8370476D01*
X45738095Y-8465714D01*
X45690476Y-8513333D01*
X45595238Y-8560952D01*
X45404761Y-8560952D01*
X45309523Y-8608571D01*
X45261904Y-8656190D01*
X45214285Y-8751428D01*
X45214285Y-8941904D01*
X45261904Y-9037142D01*
X45309523Y-9084761D01*
X45404761Y-9132380D01*
X45595238Y-9132380D01*
X45690476Y-9084761D01*
X45738095Y-9037142D01*
X45785714Y-8941904D01*
X45785714Y-8751428D01*
X45738095Y-8656190D01*
X45690476Y-8608571D01*
X45595238Y-8560952D01*
X11261904Y-9272380D02*
X11261904Y-8272380D01*
X11500000Y-8272380D01*
X11642857Y-8320000D01*
X11738095Y-8415238D01*
X11785714Y-8510476D01*
X11833333Y-8700952D01*
X11833333Y-8843809D01*
X11785714Y-9034285D01*
X11738095Y-9129523D01*
X11642857Y-9224761D01*
X11500000Y-9272380D01*
X11261904Y-9272380D01*
X12309523Y-9272380D02*
X12500000Y-9272380D01*
X12595238Y-9224761D01*
X12642857Y-9177142D01*
X12738095Y-9034285D01*
X12785714Y-8843809D01*
X12785714Y-8462857D01*
X12738095Y-8367619D01*
X12690476Y-8320000D01*
X12595238Y-8272380D01*
X12404761Y-8272380D01*
X12309523Y-8320000D01*
X12261904Y-8367619D01*
X12214285Y-8462857D01*
X12214285Y-8700952D01*
X12261904Y-8796190D01*
X12309523Y-8843809D01*
X12404761Y-8891428D01*
X12595238Y-8891428D01*
X12690476Y-8843809D01*
X12738095Y-8796190D01*
X12785714Y-8700952D01*
X43785714Y-9272380D02*
X43785714Y-8272380D01*
X44023809Y-8272380D01*
X44166666Y-8320000D01*
X44261904Y-8415238D01*
X44309523Y-8510476D01*
X44357142Y-8700952D01*
X44357142Y-8843809D01*
X44309523Y-9034285D01*
X44261904Y-9129523D01*
X44166666Y-9224761D01*
X44023809Y-9272380D01*
X43785714Y-9272380D01*
X45309523Y-9272380D02*
X44738095Y-9272380D01*
X45023809Y-9272380D02*
X45023809Y-8272380D01*
X44928571Y-8415238D01*
X44833333Y-8510476D01*
X44738095Y-8558095D01*
X45928571Y-8272380D02*
X46023809Y-8272380D01*
X46119047Y-8320000D01*
X46166666Y-8367619D01*
X46214285Y-8462857D01*
X46261904Y-8653333D01*
X46261904Y-8891428D01*
X46214285Y-9081904D01*
X46166666Y-9177142D01*
X46119047Y-9224761D01*
X46023809Y-9272380D01*
X45928571Y-9272380D01*
X45833333Y-9224761D01*
X45785714Y-9177142D01*
X45738095Y-9081904D01*
X45690476Y-8891428D01*
X45690476Y-8653333D01*
X45738095Y-8462857D01*
X45785714Y-8367619D01*
X45833333Y-8320000D01*
X45928571Y-8272380D01*
X10785714Y-2132380D02*
X10785714Y-1132380D01*
X11023809Y-1132380D01*
X11166666Y-1180000D01*
X11261904Y-1275238D01*
X11309523Y-1370476D01*
X11357142Y-1560952D01*
X11357142Y-1703809D01*
X11309523Y-1894285D01*
X11261904Y-1989523D01*
X11166666Y-2084761D01*
X11023809Y-2132380D01*
X10785714Y-2132380D01*
X12309523Y-2132380D02*
X11738095Y-2132380D01*
X12023809Y-2132380D02*
X12023809Y-1132380D01*
X11928571Y-1275238D01*
X11833333Y-1370476D01*
X11738095Y-1418095D01*
X13261904Y-2132380D02*
X12690476Y-2132380D01*
X12976190Y-2132380D02*
X12976190Y-1132380D01*
X12880952Y-1275238D01*
X12785714Y-1370476D01*
X12690476Y-1418095D01*
X43785714Y-2132380D02*
X43785714Y-1132380D01*
X44023809Y-1132380D01*
X44166666Y-1180000D01*
X44261904Y-1275238D01*
X44309523Y-1370476D01*
X44357142Y-1560952D01*
X44357142Y-1703809D01*
X44309523Y-1894285D01*
X44261904Y-1989523D01*
X44166666Y-2084761D01*
X44023809Y-2132380D01*
X43785714Y-2132380D01*
X45309523Y-2132380D02*
X44738095Y-2132380D01*
X45023809Y-2132380D02*
X45023809Y-1132380D01*
X44928571Y-1275238D01*
X44833333Y-1370476D01*
X44738095Y-1418095D01*
X45690476Y-1227619D02*
X45738095Y-1180000D01*
X45833333Y-1132380D01*
X46071428Y-1132380D01*
X46166666Y-1180000D01*
X46214285Y-1227619D01*
X46261904Y-1322857D01*
X46261904Y-1418095D01*
X46214285Y-1560952D01*
X45642857Y-2132380D01*
X46261904Y-2132380D01*
X20285714Y-12632380D02*
X20285714Y-11632380D01*
X20523809Y-11632380D01*
X20666666Y-11680000D01*
X20761904Y-11775238D01*
X20809523Y-11870476D01*
X20857142Y-12060952D01*
X20857142Y-12203809D01*
X20809523Y-12394285D01*
X20761904Y-12489523D01*
X20666666Y-12584761D01*
X20523809Y-12632380D01*
X20285714Y-12632380D01*
X21809523Y-12632380D02*
X21238095Y-12632380D01*
X21523809Y-12632380D02*
X21523809Y-11632380D01*
X21428571Y-11775238D01*
X21333333Y-11870476D01*
X21238095Y-11918095D01*
X22142857Y-11632380D02*
X22761904Y-11632380D01*
X22428571Y-12013333D01*
X22571428Y-12013333D01*
X22666666Y-12060952D01*
X22714285Y-12108571D01*
X22761904Y-12203809D01*
X22761904Y-12441904D01*
X22714285Y-12537142D01*
X22666666Y-12584761D01*
X22571428Y-12632380D01*
X22285714Y-12632380D01*
X22190476Y-12584761D01*
X22142857Y-12537142D01*
X20285714Y-12772380D02*
X20285714Y-11772380D01*
X20523809Y-11772380D01*
X20666666Y-11820000D01*
X20761904Y-11915238D01*
X20809523Y-12010476D01*
X20857142Y-12200952D01*
X20857142Y-12343809D01*
X20809523Y-12534285D01*
X20761904Y-12629523D01*
X20666666Y-12724761D01*
X20523809Y-12772380D01*
X20285714Y-12772380D01*
X21809523Y-12772380D02*
X21238095Y-12772380D01*
X21523809Y-12772380D02*
X21523809Y-11772380D01*
X21428571Y-11915238D01*
X21333333Y-12010476D01*
X21238095Y-12058095D01*
X22666666Y-12105714D02*
X22666666Y-12772380D01*
X22428571Y-11724761D02*
X22190476Y-12439047D01*
X22809523Y-12439047D01*
X20285714Y-9272380D02*
X20285714Y-8272380D01*
X20523809Y-8272380D01*
X20666666Y-8320000D01*
X20761904Y-8415238D01*
X20809523Y-8510476D01*
X20857142Y-8700952D01*
X20857142Y-8843809D01*
X20809523Y-9034285D01*
X20761904Y-9129523D01*
X20666666Y-9224761D01*
X20523809Y-9272380D01*
X20285714Y-9272380D01*
X21809523Y-9272380D02*
X21238095Y-9272380D01*
X21523809Y-9272380D02*
X21523809Y-8272380D01*
X21428571Y-8415238D01*
X21333333Y-8510476D01*
X21238095Y-8558095D01*
X22714285Y-8272380D02*
X22238095Y-8272380D01*
X22190476Y-8748571D01*
X22238095Y-8700952D01*
X22333333Y-8653333D01*
X22571428Y-8653333D01*
X22666666Y-8700952D01*
X22714285Y-8748571D01*
X22761904Y-8843809D01*
X22761904Y-9081904D01*
X22714285Y-9177142D01*
X22666666Y-9224761D01*
X22571428Y-9272380D01*
X22333333Y-9272380D01*
X22238095Y-9224761D01*
X22190476Y-9177142D01*
X27285714Y-16272380D02*
X27285714Y-15272380D01*
X27523809Y-15272380D01*
X27666666Y-15320000D01*
X27761904Y-15415238D01*
X27809523Y-15510476D01*
X27857142Y-15700952D01*
X27857142Y-15843809D01*
X27809523Y-16034285D01*
X27761904Y-16129523D01*
X27666666Y-16224761D01*
X27523809Y-16272380D01*
X27285714Y-16272380D01*
X28809523Y-16272380D02*
X28238095Y-16272380D01*
X28523809Y-16272380D02*
X28523809Y-15272380D01*
X28428571Y-15415238D01*
X28333333Y-15510476D01*
X28238095Y-15558095D01*
X29666666Y-15272380D02*
X29476190Y-15272380D01*
X29380952Y-15320000D01*
X29333333Y-15367619D01*
X29238095Y-15510476D01*
X29190476Y-15700952D01*
X29190476Y-16081904D01*
X29238095Y-16177142D01*
X29285714Y-16224761D01*
X29380952Y-16272380D01*
X29571428Y-16272380D01*
X29666666Y-16224761D01*
X29714285Y-16177142D01*
X29761904Y-16081904D01*
X29761904Y-15843809D01*
X29714285Y-15748571D01*
X29666666Y-15700952D01*
X29571428Y-15653333D01*
X29380952Y-15653333D01*
X29285714Y-15700952D01*
X29238095Y-15748571D01*
X29190476Y-15843809D01*
X36785714Y-5632380D02*
X36785714Y-4632380D01*
X37023809Y-4632380D01*
X37166666Y-4680000D01*
X37261904Y-4775238D01*
X37309523Y-4870476D01*
X37357142Y-5060952D01*
X37357142Y-5203809D01*
X37309523Y-5394285D01*
X37261904Y-5489523D01*
X37166666Y-5584761D01*
X37023809Y-5632380D01*
X36785714Y-5632380D01*
X38309523Y-5632380D02*
X37738095Y-5632380D01*
X38023809Y-5632380D02*
X38023809Y-4632380D01*
X37928571Y-4775238D01*
X37833333Y-4870476D01*
X37738095Y-4918095D01*
X38642857Y-4632380D02*
X39309523Y-4632380D01*
X38880952Y-5632380D01*
X27285714Y-9132380D02*
X27285714Y-8132380D01*
X27523809Y-8132380D01*
X27666666Y-8180000D01*
X27761904Y-8275238D01*
X27809523Y-8370476D01*
X27857142Y-8560952D01*
X27857142Y-8703809D01*
X27809523Y-8894285D01*
X27761904Y-8989523D01*
X27666666Y-9084761D01*
X27523809Y-9132380D01*
X27285714Y-9132380D01*
X28809523Y-9132380D02*
X28238095Y-9132380D01*
X28523809Y-9132380D02*
X28523809Y-8132380D01*
X28428571Y-8275238D01*
X28333333Y-8370476D01*
X28238095Y-8418095D01*
X29380952Y-8560952D02*
X29285714Y-8513333D01*
X29238095Y-8465714D01*
X29190476Y-8370476D01*
X29190476Y-8322857D01*
X29238095Y-8227619D01*
X29285714Y-8180000D01*
X29380952Y-8132380D01*
X29571428Y-8132380D01*
X29666666Y-8180000D01*
X29714285Y-8227619D01*
X29761904Y-8322857D01*
X29761904Y-8370476D01*
X29714285Y-8465714D01*
X29666666Y-8513333D01*
X29571428Y-8560952D01*
X29380952Y-8560952D01*
X29285714Y-8608571D01*
X29238095Y-8656190D01*
X29190476Y-8751428D01*
X29190476Y-8941904D01*
X29238095Y-9037142D01*
X29285714Y-9084761D01*
X29380952Y-9132380D01*
X29571428Y-9132380D01*
X29666666Y-9084761D01*
X29714285Y-9037142D01*
X29761904Y-8941904D01*
X29761904Y-8751428D01*
X29714285Y-8656190D01*
X29666666Y-8608571D01*
X29571428Y-8560952D01*
X27285714Y-9272380D02*
X27285714Y-8272380D01*
X27523809Y-8272380D01*
X27666666Y-8320000D01*
X27761904Y-8415238D01*
X27809523Y-8510476D01*
X27857142Y-8700952D01*
X27857142Y-8843809D01*
X27809523Y-9034285D01*
X27761904Y-9129523D01*
X27666666Y-9224761D01*
X27523809Y-9272380D01*
X27285714Y-9272380D01*
X28809523Y-9272380D02*
X28238095Y-9272380D01*
X28523809Y-9272380D02*
X28523809Y-8272380D01*
X28428571Y-8415238D01*
X28333333Y-8510476D01*
X28238095Y-8558095D01*
X29285714Y-9272380D02*
X29476190Y-9272380D01*
X29571428Y-9224761D01*
X29619047Y-9177142D01*
X29714285Y-9034285D01*
X29761904Y-8843809D01*
X29761904Y-8462857D01*
X29714285Y-8367619D01*
X29666666Y-8320000D01*
X29571428Y-8272380D01*
X29380952Y-8272380D01*
X29285714Y-8320000D01*
X29238095Y-8367619D01*
X29190476Y-8462857D01*
X29190476Y-8700952D01*
X29238095Y-8796190D01*
X29285714Y-8843809D01*
X29380952Y-8891428D01*
X29571428Y-8891428D01*
X29666666Y-8843809D01*
X29714285Y-8796190D01*
X29761904Y-8700952D01*
X27285714Y-2132380D02*
X27285714Y-1132380D01*
X27523809Y-1132380D01*
X27666666Y-1180000D01*
X27761904Y-1275238D01*
X27809523Y-1370476D01*
X27857142Y-1560952D01*
X27857142Y-1703809D01*
X27809523Y-1894285D01*
X27761904Y-1989523D01*
X27666666Y-2084761D01*
X27523809Y-2132380D01*
X27285714Y-2132380D01*
X28238095Y-1227619D02*
X28285714Y-1180000D01*
X28380952Y-1132380D01*
X28619047Y-1132380D01*
X28714285Y-1180000D01*
X28761904Y-1227619D01*
X28809523Y-1322857D01*
X28809523Y-1418095D01*
X28761904Y-1560952D01*
X28190476Y-2132380D01*
X28809523Y-2132380D01*
X29428571Y-1132380D02*
X29523809Y-1132380D01*
X29619047Y-1180000D01*
X29666666Y-1227619D01*
X29714285Y-1322857D01*
X29761904Y-1513333D01*
X29761904Y-1751428D01*
X29714285Y-1941904D01*
X29666666Y-2037142D01*
X29619047Y-2084761D01*
X29523809Y-2132380D01*
X29428571Y-2132380D01*
X29333333Y-2084761D01*
X29285714Y-2037142D01*
X29238095Y-1941904D01*
X29190476Y-1751428D01*
X29190476Y-1513333D01*
X29238095Y-1322857D01*
X29285714Y-1227619D01*
X29333333Y-1180000D01*
X29428571Y-1132380D01*
X5872380Y-17666666D02*
X5396190Y-18000000D01*
X5872380Y-18238095D02*
X4872380Y-18238095D01*
X4872380Y-17857142D01*
X4920000Y-17761904D01*
X4967619Y-17714285D01*
X5062857Y-17666666D01*
X5205714Y-17666666D01*
X5300952Y-17714285D01*
X5348571Y-17761904D01*
X5396190Y-17857142D01*
X5396190Y-18238095D01*
X5205714Y-16809523D02*
X5872380Y-16809523D01*
X4824761Y-17047619D02*
X5539047Y-17285714D01*
X5539047Y-16666666D01*
X8672380Y-17666666D02*
X8196190Y-18000000D01*
X8672380Y-18238095D02*
X7672380Y-18238095D01*
X7672380Y-17857142D01*
X7720000Y-17761904D01*
X7767619Y-17714285D01*
X7862857Y-17666666D01*
X8005714Y-17666666D01*
X8100952Y-17714285D01*
X8148571Y-17761904D01*
X8196190Y-17857142D01*
X8196190Y-18238095D01*
X7672380Y-16761904D02*
X7672380Y-17238095D01*
X8148571Y-17285714D01*
X8100952Y-17238095D01*
X8053333Y-17142857D01*
X8053333Y-16904761D01*
X8100952Y-16809523D01*
X8148571Y-16761904D01*
X8243809Y-16714285D01*
X8481904Y-16714285D01*
X8577142Y-16761904D01*
X8624761Y-16809523D01*
X8672380Y-16904761D01*
X8672380Y-17142857D01*
X8624761Y-17238095D01*
X8577142Y-17285714D01*
X12272380Y-17666666D02*
X11796190Y-18000000D01*
X12272380Y-18238095D02*
X11272380Y-18238095D01*
X11272380Y-17857142D01*
X11320000Y-17761904D01*
X11367619Y-17714285D01*
X11462857Y-17666666D01*
X11605714Y-17666666D01*
X11700952Y-17714285D01*
X11748571Y-17761904D01*
X11796190Y-17857142D01*
X11796190Y-18238095D01*
X11272380Y-16809523D02*
X11272380Y-17000000D01*
X11320000Y-17095238D01*
X11367619Y-17142857D01*
X11510476Y-17238095D01*
X11700952Y-17285714D01*
X12081904Y-17285714D01*
X12177142Y-17238095D01*
X12224761Y-17190476D01*
X12272380Y-17095238D01*
X12272380Y-16904761D01*
X12224761Y-16809523D01*
X12177142Y-16761904D01*
X12081904Y-16714285D01*
X11843809Y-16714285D01*
X11748571Y-16761904D01*
X11700952Y-16809523D01*
X11653333Y-16904761D01*
X11653333Y-17095238D01*
X11700952Y-17190476D01*
X11748571Y-17238095D01*
X11843809Y-17285714D01*
X45872380Y-17666666D02*
X45396190Y-18000000D01*
X45872380Y-18238095D02*
X44872380Y-18238095D01*
X44872380Y-17857142D01*
X44920000Y-17761904D01*
X44967619Y-17714285D01*
X45062857Y-17666666D01*
X45205714Y-17666666D01*
X45300952Y-17714285D01*
X45348571Y-17761904D01*
X45396190Y-17857142D01*
X45396190Y-18238095D01*
X44872380Y-17333333D02*
X44872380Y-16666666D01*
X45872380Y-17095238D01*
X48672380Y-17666666D02*
X48196190Y-18000000D01*
X48672380Y-18238095D02*
X47672380Y-18238095D01*
X47672380Y-17857142D01*
X47720000Y-17761904D01*
X47767619Y-17714285D01*
X47862857Y-17666666D01*
X48005714Y-17666666D01*
X48100952Y-17714285D01*
X48148571Y-17761904D01*
X48196190Y-17857142D01*
X48196190Y-18238095D01*
X48100952Y-17095238D02*
X48053333Y-17190476D01*
X48005714Y-17238095D01*
X47910476Y-17285714D01*
X47862857Y-17285714D01*
X47767619Y-17238095D01*
X47720000Y-17190476D01*
X47672380Y-17095238D01*
X47672380Y-16904761D01*
X47720000Y-16809523D01*
X47767619Y-16761904D01*
X47862857Y-16714285D01*
X47910476Y-16714285D01*
X48005714Y-16761904D01*
X48053333Y-16809523D01*
X48100952Y-16904761D01*
X48100952Y-17095238D01*
X48148571Y-17190476D01*
X48196190Y-17238095D01*
X48291428Y-17285714D01*
X48481904Y-17285714D01*
X48577142Y-17238095D01*
X48624761Y-17190476D01*
X48672380Y-17095238D01*
X48672380Y-16904761D01*
X48624761Y-16809523D01*
X48577142Y-16761904D01*
X48481904Y-16714285D01*
X48291428Y-16714285D01*
X48196190Y-16761904D01*
X48148571Y-16809523D01*
X48100952Y-16904761D01*
X2170833Y-24907142D02*
X2123214Y-24954761D01*
X1980357Y-25002380D01*
X1885119Y-25002380D01*
X1742261Y-24954761D01*
X1647023Y-24859523D01*
X1599404Y-24764285D01*
X1551785Y-24573809D01*
X1551785Y-24430952D01*
X1599404Y-24240476D01*
X1647023Y-24145238D01*
X1742261Y-24050000D01*
X1885119Y-24002380D01*
X1980357Y-24002380D01*
X2123214Y-24050000D01*
X2170833Y-24097619D01*
X2504166Y-24002380D02*
X3123214Y-24002380D01*
X2789880Y-24383333D01*
X2932738Y-24383333D01*
X3027976Y-24430952D01*
X3075595Y-24478571D01*
X3123214Y-24573809D01*
X3123214Y-24811904D01*
X3075595Y-24907142D01*
X3027976Y-24954761D01*
X2932738Y-25002380D01*
X2647023Y-25002380D01*
X2551785Y-24954761D01*
X2504166Y-24907142D01*
X5352380Y-28773333D02*
X6066666Y-28773333D01*
X6209523Y-28820952D01*
X6304761Y-28916190D01*
X6352380Y-29059047D01*
X6352380Y-29154285D01*
X6352380Y-27773333D02*
X6352380Y-28344761D01*
X6352380Y-28059047D02*
X5352380Y-28059047D01*
X5495238Y-28154285D01*
X5590476Y-28249523D01*
X5638095Y-28344761D01*
X5702380Y-27388666D02*
X5226190Y-27722000D01*
X5702380Y-27960095D02*
X4702380Y-27960095D01*
X4702380Y-27579142D01*
X4750000Y-27483904D01*
X4797619Y-27436285D01*
X4892857Y-27388666D01*
X5035714Y-27388666D01*
X5130952Y-27436285D01*
X5178571Y-27483904D01*
X5226190Y-27579142D01*
X5226190Y-27960095D01*
X5702380Y-26436285D02*
X5702380Y-27007714D01*
X5702380Y-26722000D02*
X4702380Y-26722000D01*
X4845238Y-26817238D01*
X4940476Y-26912476D01*
X4988095Y-27007714D01*
X9272380Y-31788666D02*
X8796190Y-32122000D01*
X9272380Y-32360095D02*
X8272380Y-32360095D01*
X8272380Y-31979142D01*
X8320000Y-31883904D01*
X8367619Y-31836285D01*
X8462857Y-31788666D01*
X8605714Y-31788666D01*
X8700952Y-31836285D01*
X8748571Y-31883904D01*
X8796190Y-31979142D01*
X8796190Y-32360095D01*
X8367619Y-31407714D02*
X8320000Y-31360095D01*
X8272380Y-31264857D01*
X8272380Y-31026761D01*
X8320000Y-30931523D01*
X8367619Y-30883904D01*
X8462857Y-30836285D01*
X8558095Y-30836285D01*
X8700952Y-30883904D01*
X9272380Y-31455333D01*
X9272380Y-30836285D01*
X15950095Y-22318380D02*
X15950095Y-23127904D01*
X15997714Y-23223142D01*
X16045333Y-23270761D01*
X16140571Y-23318380D01*
X16331047Y-23318380D01*
X16426285Y-23270761D01*
X16473904Y-23223142D01*
X16521523Y-23127904D01*
X16521523Y-22318380D01*
X17521523Y-23318380D02*
X16950095Y-23318380D01*
X17235809Y-23318380D02*
X17235809Y-22318380D01*
X17140571Y-22461238D01*
X17045333Y-22556476D01*
X16950095Y-22604095D01*
X18273809Y-38801190D02*
X18273809Y-39277380D01*
X17940476Y-38277380D02*
X18273809Y-38801190D01*
X18607142Y-38277380D01*
X19464285Y-39277380D02*
X18892857Y-39277380D01*
X19178571Y-39277380D02*
X19178571Y-38277380D01*
X19083333Y-38420238D01*
X18988095Y-38515476D01*
X18892857Y-38563095D01*
X6324333Y-36331142D02*
X6276714Y-36378761D01*
X6133857Y-36426380D01*
X6038619Y-36426380D01*
X5895761Y-36378761D01*
X5800523Y-36283523D01*
X5752904Y-36188285D01*
X5705285Y-35997809D01*
X5705285Y-35854952D01*
X5752904Y-35664476D01*
X5800523Y-35569238D01*
X5895761Y-35474000D01*
X6038619Y-35426380D01*
X6133857Y-35426380D01*
X6276714Y-35474000D01*
X6324333Y-35521619D01*
X7181476Y-35759714D02*
X7181476Y-36426380D01*
X6943380Y-35378761D02*
X6705285Y-36093047D01*
X7324333Y-36093047D01*
X2641666Y-32922380D02*
X2641666Y-33636666D01*
X2594047Y-33779523D01*
X2498809Y-33874761D01*
X2355952Y-33922380D01*
X2260714Y-33922380D01*
X3260714Y-33350952D02*
X3165476Y-33303333D01*
X3117857Y-33255714D01*
X3070238Y-33160476D01*
X3070238Y-33112857D01*
X3117857Y-33017619D01*
X3165476Y-32970000D01*
X3260714Y-32922380D01*
X3451190Y-32922380D01*
X3546428Y-32970000D01*
X3594047Y-33017619D01*
X3641666Y-33112857D01*
X3641666Y-33160476D01*
X3594047Y-33255714D01*
X3546428Y-33303333D01*
X3451190Y-33350952D01*
X3260714Y-33350952D01*
X3165476Y-33398571D01*
X3117857Y-33446190D01*
X3070238Y-33541428D01*
X3070238Y-33731904D01*
X3117857Y-33827142D01*
X3165476Y-33874761D01*
X3260714Y-33922380D01*
X3451190Y-33922380D01*
X3546428Y-33874761D01*
X3594047Y-33827142D01*
X3641666Y-33731904D01*
X3641666Y-33541428D01*
X3594047Y-33446190D01*
X3546428Y-33398571D01*
X3451190Y-33350952D01*
D14*
X36928666Y-25714761D02*
X37071523Y-25762380D01*
X37309619Y-25762380D01*
X37404857Y-25714761D01*
X37452476Y-25667142D01*
X37500095Y-25571904D01*
X37500095Y-25476666D01*
X37452476Y-25381428D01*
X37404857Y-25333809D01*
X37309619Y-25286190D01*
X37119142Y-25238571D01*
X37023904Y-25190952D01*
X36976285Y-25143333D01*
X36928666Y-25048095D01*
X36928666Y-24952857D01*
X36976285Y-24857619D01*
X37023904Y-24810000D01*
X37119142Y-24762380D01*
X37357238Y-24762380D01*
X37500095Y-24810000D01*
X37833428Y-24762380D02*
X38071523Y-25762380D01*
X38262000Y-25048095D01*
X38452476Y-25762380D01*
X38690571Y-24762380D01*
X39023904Y-24857619D02*
X39071523Y-24810000D01*
X39166761Y-24762380D01*
X39404857Y-24762380D01*
X39500095Y-24810000D01*
X39547714Y-24857619D01*
X39595333Y-24952857D01*
X39595333Y-25048095D01*
X39547714Y-25190952D01*
X38976285Y-25762380D01*
X39595333Y-25762380D01*
X29303666Y-25714761D02*
X29446523Y-25762380D01*
X29684619Y-25762380D01*
X29779857Y-25714761D01*
X29827476Y-25667142D01*
X29875095Y-25571904D01*
X29875095Y-25476666D01*
X29827476Y-25381428D01*
X29779857Y-25333809D01*
X29684619Y-25286190D01*
X29494142Y-25238571D01*
X29398904Y-25190952D01*
X29351285Y-25143333D01*
X29303666Y-25048095D01*
X29303666Y-24952857D01*
X29351285Y-24857619D01*
X29398904Y-24810000D01*
X29494142Y-24762380D01*
X29732238Y-24762380D01*
X29875095Y-24810000D01*
X30208428Y-24762380D02*
X30446523Y-25762380D01*
X30637000Y-25048095D01*
X30827476Y-25762380D01*
X31065571Y-24762380D01*
X31351285Y-24762380D02*
X31970333Y-24762380D01*
X31637000Y-25143333D01*
X31779857Y-25143333D01*
X31875095Y-25190952D01*
X31922714Y-25238571D01*
X31970333Y-25333809D01*
X31970333Y-25571904D01*
X31922714Y-25667142D01*
X31875095Y-25714761D01*
X31779857Y-25762380D01*
X31494142Y-25762380D01*
X31398904Y-25714761D01*
X31351285Y-25667142D01*
X9578666Y-50864761D02*
X9721523Y-50912380D01*
X9959619Y-50912380D01*
X10054857Y-50864761D01*
X10102476Y-50817142D01*
X10150095Y-50721904D01*
X10150095Y-50626666D01*
X10102476Y-50531428D01*
X10054857Y-50483809D01*
X9959619Y-50436190D01*
X9769142Y-50388571D01*
X9673904Y-50340952D01*
X9626285Y-50293333D01*
X9578666Y-50198095D01*
X9578666Y-50102857D01*
X9626285Y-50007619D01*
X9673904Y-49960000D01*
X9769142Y-49912380D01*
X10007238Y-49912380D01*
X10150095Y-49960000D01*
X10483428Y-49912380D02*
X10721523Y-50912380D01*
X10912000Y-50198095D01*
X11102476Y-50912380D01*
X11340571Y-49912380D01*
X12245333Y-50912380D02*
X11673904Y-50912380D01*
X11959619Y-50912380D02*
X11959619Y-49912380D01*
X11864380Y-50055238D01*
X11769142Y-50150476D01*
X11673904Y-50198095D01*
M02*
